<svg id="Component_11_1" data-name="Component 11 – 1" xmlns="http://www.w3.org/2000/svg" xmlns:xlink="http://www.w3.org/1999/xlink" width="188.776" height="96" viewBox="0 0 188.776 96">
  <defs>
    <clipPath id="clip-path">
      <rect id="Rectangle_13" data-name="Rectangle 13" width="188.776" height="96" fill="none"/>
    </clipPath>
  </defs>
  <g id="Group_20" data-name="Group 20" clip-path="url(#clip-path)">
    <path id="Path_169" data-name="Path 169" d="M24.661,69.957a22.563,22.563,0,0,1-6.574,5.484,15.588,15.588,0,0,1-7.334,1.79,10.925,10.925,0,0,1-7.789-2.78A9.511,9.511,0,0,1,0,67.177q0-5.826,5.662-10.11t19-8.474q.037-.533.057-1.2t.019-1.847q0-4.951-1.672-6.95t-5.7-2a9.582,9.582,0,0,0-4.028.8q-1.748.8-1.749,1.6c0,.076.127.242.38.495a6.049,6.049,0,0,1,1.976,4.342,4.3,4.3,0,0,1-1.482,3.37,5.571,5.571,0,0,1-3.838,1.314,5.808,5.808,0,0,1-4.332-1.58A6.05,6.05,0,0,1,2.736,42.5q0-4.494,4.807-7.464t12.293-2.97a25.755,25.755,0,0,1,8.493,1.314,14.751,14.751,0,0,1,6.061,3.75A9,9,0,0,1,36.5,40.768a26.666,26.666,0,0,1,.626,6.912V66.759a5.924,5.924,0,0,0,.361,2.59,1.354,1.354,0,0,0,1.273.609,1.558,1.558,0,0,0,1.311-.7A3.834,3.834,0,0,0,40.7,67.33h3.04A11.15,11.15,0,0,1,41.1,74.642a8.621,8.621,0,0,1-6.631,2.59,10.33,10.33,0,0,1-6.346-1.923,9.282,9.282,0,0,1-3.458-5.351m0-17.365q-6.916,2.7-9.956,5.446a8.232,8.232,0,0,0-3.04,6.245,6,6,0,0,0,1.482,4.189,4.937,4.937,0,0,0,3.838,1.638,6.248,6.248,0,0,0,5.833-3.5q1.918-3.5,1.919-10.663,0-1.372-.019-2.076t-.057-1.275" transform="translate(0 -13.025)" fill="#690911"/>
    <path id="Path_170" data-name="Path 170" d="M93.308,54.96q0,4.609,1.2,5.693T100,61.929v3.808H75.258V61.929q3.572-.151,4.636-1.237t1.064-5.731V27.122H75.03V23.161h6.156v-.229q0-7.769,4.37-11.919t12.5-4.151a13.567,13.567,0,0,1,8.094,2.19,6.789,6.789,0,0,1,3.04,5.769,5.655,5.655,0,0,1-1.387,4.075,5.139,5.139,0,0,1-3.9,1.447,5.6,5.6,0,0,1-3.857-1.294,4.31,4.31,0,0,1-1.463-3.389,5.462,5.462,0,0,1,1.33-3.313q.418-.494.418-.647,0-.419-.779-.761a4.657,4.657,0,0,0-1.881-.343A3.721,3.721,0,0,0,94.258,12.4a11.091,11.091,0,0,0-1.1,5.617v5.141h8.4v3.961H93.308Z" transform="translate(-30.573 -2.787)" fill="#690911"/>
    <path id="Path_171" data-name="Path 171" d="M139.416,54.96q0,4.609,1.2,5.693t5.49,1.276v3.808H121.366V61.929q3.572-.151,4.636-1.237t1.064-5.731V27.122h-5.928V23.161h6.156v-.229q0-7.769,4.37-11.919t12.5-4.151a13.567,13.567,0,0,1,8.094,2.19,6.789,6.789,0,0,1,3.04,5.769,5.655,5.655,0,0,1-1.386,4.075,5.139,5.139,0,0,1-3.895,1.447,5.6,5.6,0,0,1-3.857-1.294,4.306,4.306,0,0,1-1.464-3.389,5.462,5.462,0,0,1,1.33-3.313q.418-.494.418-.647,0-.419-.779-.761a4.657,4.657,0,0,0-1.881-.343,3.721,3.721,0,0,0-3.419,1.809,11.091,11.091,0,0,0-1.1,5.617v5.141h8.4v3.961h-8.246Z" transform="translate(-49.362 -2.787)" fill="#690911"/>
    <path id="Path_172" data-name="Path 172" d="M184.181,40.786v1.98q0,8.8,2.28,12.739t7.372,3.941A9.584,9.584,0,0,0,200.5,56.99a13.437,13.437,0,0,0,3.819-7.065h4.218q-1.179,6.893-5.529,10.587t-11.305,3.694q-9.689,0-15.5-6.131t-5.813-16.413q0-10.054,5.548-16.337a18.185,18.185,0,0,1,14.287-6.284q8.246,0,12.958,5.617T207.893,40.1v.685Zm-1.558-25.971L193.757,3.275A14.668,14.668,0,0,1,196.779.7a4.981,4.981,0,0,1,2.489-.7,3.643,3.643,0,0,1,3.762,3.77,3.168,3.168,0,0,1-.779,2.152,9.938,9.938,0,0,1-2.831,1.961L186.2,14.814Zm1.634,22.011h11.02V32.674q0-4.988-1.273-7.2a4.362,4.362,0,0,0-4.085-2.209,4.647,4.647,0,0,0-4.161,2.475,13.4,13.4,0,0,0-1.5,6.931Z" transform="translate(-69.43)" fill="#690911"/>
    <path id="Path_173" data-name="Path 173" d="M239.711,72.218q3.609-.151,4.693-1.237t1.083-5.731V44.19q0-4.646-1.083-5.75t-4.693-1.256V33.45h1.482q4.18,0,8.113-.324t7.619-.933V42.476a20.286,20.286,0,0,1,4.9-7.141,9.03,9.03,0,0,1,6.041-2.457,7.494,7.494,0,0,1,5.586,2.248,7.822,7.822,0,0,1,2.2,5.712,6.649,6.649,0,0,1-1.805,4.856,6.316,6.316,0,0,1-4.73,1.847,5.672,5.672,0,0,1-3.8-1.256,4.049,4.049,0,0,1-1.482-3.237c0-.126.012-.343.038-.647s.038-.533.038-.686a1.724,1.724,0,0,0-.3-1.123,1.174,1.174,0,0,0-.95-.362q-2.432,0-3.629,4.208t-1.2,12.7v8.111q0,4.646,1.216,5.712t5.548,1.256v3.808h-24.89Z" transform="translate(-97.678 -13.077)" fill="#690911"/>
    <path id="Path_174" data-name="Path 174" d="M125.352,135.215a15.122,15.122,0,0,1,2.989-4.447,4.739,4.739,0,0,1,3.281-1.445,2.741,2.741,0,0,1,2.174.881,3.616,3.616,0,0,1,.774,2.464,8.468,8.468,0,0,1-.334,2.09,30.787,30.787,0,0,1-1,3q-.147.376-.424,1.077a22.15,22.15,0,0,0-1.645,5.435,2.27,2.27,0,0,0,.594,1.665,2.193,2.193,0,0,0,1.637.6,4.854,4.854,0,0,0,2.435-.759,9.019,9.019,0,0,0,2.4-2.114,14.976,14.976,0,0,0,2.41-4.1,11.739,11.739,0,0,0,.9-4.284,2.313,2.313,0,0,0-.39-1.485,2.267,2.267,0,0,0-1.385-.653,3.173,3.173,0,0,1-1.555-.661,1.583,1.583,0,0,1-.48-1.216,1.887,1.887,0,0,1,.57-1.428,2.076,2.076,0,0,1,1.5-.547,2.966,2.966,0,0,1,2.564,1.575,7.513,7.513,0,0,1,1,4.089,13.479,13.479,0,0,1-.635,3.982,17.459,17.459,0,0,1-1.857,4.031A13.062,13.062,0,0,1,137,147.113a8.422,8.422,0,0,1-4.682,1.4,4.641,4.641,0,0,1-3.159-1,3.448,3.448,0,0,1-1.14-2.742,19.978,19.978,0,0,1,1.5-5.777c.119-.327.212-.577.277-.751q.83-2.335,1.164-3.485a6.872,6.872,0,0,0,.334-1.656,1.34,1.34,0,0,0-.252-.857.817.817,0,0,0-.675-.318,2.156,2.156,0,0,0-1.442.832,12.7,12.7,0,0,0-1.7,2.448Z" transform="translate(-51.079 -52.517)" fill="#1a1818"/>
    <path id="Path_175" data-name="Path 175" d="M171.261,137.906a13.982,13.982,0,0,1-2.891,4.423,4.808,4.808,0,0,1-3.347,1.469,2.686,2.686,0,0,1-2.084-.816,3.227,3.227,0,0,1-.75-2.269,10.578,10.578,0,0,1,.326-2.326,24.644,24.644,0,0,1,.944-3.044q.391-1.077,1.075-2.84a18.766,18.766,0,0,0,1.254-3.982,1.264,1.264,0,0,0-.2-.784.748.748,0,0,0-.627-.261,2.282,2.282,0,0,0-1.531.735,12.013,12.013,0,0,0-1.808,2.415h-1.857a14.9,14.9,0,0,1,3.095-4.317,4.962,4.962,0,0,1,3.273-1.525,2.5,2.5,0,0,1,1.987.824,3.41,3.41,0,0,1,.716,2.31,8.916,8.916,0,0,1-.35,2.163q-.35,1.33-1.588,4.79-.912,2.514-1.221,3.582a6.365,6.365,0,0,0-.309,1.559,1.263,1.263,0,0,0,.252.849.882.882,0,0,0,.709.294,2.105,2.105,0,0,0,1.458-.8,11.954,11.954,0,0,0,1.653-2.448ZM165.724,120.2a2.144,2.144,0,0,1,.627-1.566,2.075,2.075,0,0,1,1.539-.637,2.151,2.151,0,0,1,1.572.637,2.216,2.216,0,0,1-1.572,3.77,2.07,2.07,0,0,1-1.531-.645,2.138,2.138,0,0,1-.635-1.559" transform="translate(-65.101 -47.929)" fill="#1a1818"/>
    <path id="Path_176" data-name="Path 176" d="M187.561,127.055h-3.469l.5-1.763h3.469l1.807-6.528h3.192l-1.791,6.528h3.191l-.39,1.763H190.8l-3.274,11.767a6.419,6.419,0,0,0-.2.89,6.007,6.007,0,0,0-.065.857,1.193,1.193,0,0,0,.244.833,1.025,1.025,0,0,0,.782.261,2.9,2.9,0,0,0,1.938-1,12.248,12.248,0,0,0,2.068-2.9h2a15.035,15.035,0,0,1-3.331,4.758,5.71,5.71,0,0,1-3.835,1.591,2.949,2.949,0,0,1-2.256-.874,3.371,3.371,0,0,1-.822-2.407,16.4,16.4,0,0,1,.684-3.541l.065-.213Z" transform="translate(-75.001 -48.241)" fill="#1a1818"/>
    <path id="Path_177" data-name="Path 177" d="M216.7,145.124a10.891,10.891,0,0,1-2.915,2.391,6.36,6.36,0,0,1-3.029.792,4.527,4.527,0,0,1-3.77-1.918,8.1,8.1,0,0,1-1.458-5.035,14,14,0,0,1,.782-4.586,14.184,14.184,0,0,1,2.215-4.113,11.087,11.087,0,0,1,3.192-2.815,7.128,7.128,0,0,1,3.55-.987,4.512,4.512,0,0,1,2.874.914,6.623,6.623,0,0,1,1.93,2.856l.9-3.477h3.175l-3.811,13.775-.016.049a6.8,6.8,0,0,0-.277,1.452,1.337,1.337,0,0,0,.253.857.816.816,0,0,0,.676.318,2.179,2.179,0,0,0,1.49-.832,11.443,11.443,0,0,0,1.653-2.448h1.856a13.749,13.749,0,0,1-2.891,4.415,4.832,4.832,0,0,1-3.346,1.477,2.708,2.708,0,0,1-2.02-.743,4.33,4.33,0,0,1-1.01-2.341m-.831-14a4.325,4.325,0,0,0-2.467.816,8.252,8.252,0,0,0-2.207,2.366,14.383,14.383,0,0,0-1.7,3.73,13.929,13.929,0,0,0-.626,4.023,4.625,4.625,0,0,0,.847,2.946,2.788,2.788,0,0,0,2.313,1.069,4.135,4.135,0,0,0,2.207-.661,7.559,7.559,0,0,0,2.028-1.95,15.341,15.341,0,0,0,2.768-8.291,4.673,4.673,0,0,0-.854-2.954,2.774,2.774,0,0,0-2.3-1.093" transform="translate(-83.748 -52.339)" fill="#1a1818"/>
    <path id="Path_178" data-name="Path 178" d="M257.693,141.88a13.53,13.53,0,0,1-3.77,4.685,7.739,7.739,0,0,1-4.7,1.566,6.483,6.483,0,0,1-4.967-2,7.477,7.477,0,0,1-1.872-5.329,12.463,12.463,0,0,1,1.05-5.1,12.66,12.66,0,0,1,3.053-4.219,10.923,10.923,0,0,1,3.143-2.032,8.737,8.737,0,0,1,3.4-.71,5.43,5.43,0,0,1,3.567,1.1,3.626,3.626,0,0,1,1.336,2.946q0,2.791-3.086,4.546a20.689,20.689,0,0,1-8.721,2.13,13.209,13.209,0,0,0-.286,1.3,6.44,6.44,0,0,0-.089.988,4.56,4.56,0,0,0,1.059,3.158,3.594,3.594,0,0,0,2.817,1.183A5.58,5.58,0,0,0,252.873,145a11.1,11.1,0,0,0,2.9-3.182Zm-11.27-4.047a13.508,13.508,0,0,0,6.01-1.534,3.779,3.779,0,0,0,2.166-3.281,2.451,2.451,0,0,0-.61-1.755,2.173,2.173,0,0,0-1.653-.644,4.372,4.372,0,0,0-3.355,1.885,15.084,15.084,0,0,0-2.557,5.329" transform="translate(-98.767 -52.294)" fill="#1a1818"/>
    <path id="Path_179" data-name="Path 179" d="M277.983,148.208a6.709,6.709,0,0,1-4.316-1.363,4.171,4.171,0,0,1-1.71-3.386,2.951,2.951,0,0,1,.57-1.9,1.863,1.863,0,0,1,1.531-.71,1.9,1.9,0,0,1,1.344.473,1.61,1.61,0,0,1,.513,1.24,2,2,0,0,1-.595,1.388q-.595.636-.594.783,0,.555.977,1.061a4.9,4.9,0,0,0,2.28.505,4.365,4.365,0,0,0,2.753-.8,2.573,2.573,0,0,0,1.026-2.138q0-1.469-2.753-3.558-.374-.277-.553-.424a14.783,14.783,0,0,1-3.094-2.93,4.414,4.414,0,0,1-.814-2.554,4.561,4.561,0,0,1,1.669-3.607,6.273,6.273,0,0,1,4.242-1.436,6.41,6.41,0,0,1,4.014,1.24,3.68,3.68,0,0,1,1.621,3,2.508,2.508,0,0,1-.627,1.762,2.076,2.076,0,0,1-1.6.685,1.906,1.906,0,0,1-1.311-.44,1.457,1.457,0,0,1-.5-1.143,1.845,1.845,0,0,1,.684-1.387q.684-.62.685-.881,0-.375-.863-.808a4.191,4.191,0,0,0-1.906-.433,3.535,3.535,0,0,0-2.281.743,2.238,2.238,0,0,0-.928,1.8,2.437,2.437,0,0,0,.5,1.436,8.483,8.483,0,0,0,1.808,1.664l.358.277q4.673,3.525,4.674,6.186a5.045,5.045,0,0,1-1.955,4.007,7.29,7.29,0,0,1-4.853,1.64" transform="translate(-110.818 -52.339)" fill="#1a1818"/>
    <path id="Path_180" data-name="Path 180" d="M304.539,127.055h-3.469l.5-1.763h3.469l1.807-6.528h3.192l-1.791,6.528h3.191l-.39,1.763H307.78l-3.273,11.767a6.332,6.332,0,0,0-.2.89,5.926,5.926,0,0,0-.065.857,1.193,1.193,0,0,0,.244.833,1.025,1.025,0,0,0,.782.261,2.9,2.9,0,0,0,1.938-1,12.214,12.214,0,0,0,2.069-2.9h2a15.026,15.026,0,0,1-3.331,4.758,5.709,5.709,0,0,1-3.835,1.591,2.948,2.948,0,0,1-2.255-.874,3.368,3.368,0,0,1-.822-2.407,16.4,16.4,0,0,1,.684-3.541l.065-.213Z" transform="translate(-122.668 -48.241)" fill="#1a1818"/>
  </g>
</svg>
