<svg id="Component_9_1" data-name="Component 9 – 1" xmlns="http://www.w3.org/2000/svg" xmlns:xlink="http://www.w3.org/1999/xlink" width="111.74" height="46.86" viewBox="0 0 111.74 46.86">
  <defs>
    <clipPath id="clip-path">
      <rect id="Rectangle_9" data-name="Rectangle 9" width="111.74" height="46.86" fill="none"/>
    </clipPath>
  </defs>
  <g id="Group_13" data-name="Group 13" clip-path="url(#clip-path)">
    <path id="Path_31" data-name="Path 31" d="M2.187,25.451A25.192,25.192,0,0,1,15.933,21.7q5.624,0,8.9,3.124t3.28,9.372V52.943H19.369v-2.5a12.9,12.9,0,0,1-6.873,2.5q-6.249,0-9.372-2.655A9.119,9.119,0,0,1,0,42.946a11.657,11.657,0,0,1,2.952-7.81Q5.905,31.7,12.5,31.7a15.992,15.992,0,0,1,6.873,1.874v-.937q-.064-3.436-5-3.748-5.624,0-8.748,1.874ZM19.369,43.57V40.04q-1.25-2.4-5.936-2.405Q7.81,38.261,7.5,42.009q.311,3.718,5.936,4.03,4.685,0,5.936-2.468" transform="translate(0 -6.082)" fill="#1a1818"/>
    <path id="Path_32" data-name="Path 32" d="M58.56,25.742V46.86H49.812V0H58.56V18.432a10.894,10.894,0,0,1,7.5-2.811q5.936,0,9.06,3.592a12.248,12.248,0,0,1,3.124,8.279V46.86H69.494V29.678a6.944,6.944,0,0,0-1.563-4.842,6.033,6.033,0,0,0-9.372.906" transform="translate(-13.961 0)" fill="#1a1818"/>
    <path id="Path_33" data-name="Path 33" d="M89.45,32.091a14.982,14.982,0,0,1,15.62-15.62q6.873,0,10.934,4.374a15.878,15.878,0,0,1,4.061,11.247v3.124H98.51a5.512,5.512,0,0,0,2.187,3.9,7.086,7.086,0,0,0,4.374,1.406,12.942,12.942,0,0,0,7.811-2.5l5,5q-3.436,4.687-12.808,4.686a14.982,14.982,0,0,1-15.62-15.62m19.994-7.029a7.508,7.508,0,0,0-8.748,0,4.607,4.607,0,0,0-1.874,3.905h12.5a4.607,4.607,0,0,0-1.874-3.905m.094-12.559h-8.529l6.967-9.466h8.278Z" transform="translate(-25.07 -0.852)" fill="#1a1818"/>
    <path id="Path_34" data-name="Path 34" d="M141.764,49.293a11.739,11.739,0,0,1-8.435-2.968,10.083,10.083,0,0,1-3.124-7.654V25.144h-4.686v-7.06h4.686V9.618l8.779-.937v9.4h4.685v7.06h-4.685V37.422a4.787,4.787,0,0,0,1.046,3.514,3.716,3.716,0,0,0,2.7,1.016,15.137,15.137,0,0,0,2.343-.407l1.843,6.28a9.22,9.22,0,0,1-5.155,1.468" transform="translate(-35.179 -2.433)" fill="#1a1818"/>
  </g>
</svg>
