<svg id="Component" xmlns="http://www.w3.org/2000/svg" xmlns:xlink="http://www.w3.org/1999/xlink" width="463.793" height="113.686" viewBox="0 0 463.793 113.686">
  <defs>
    <clipPath id="clip-path">
      <rect id="Rectangle_4" data-name="Rectangle 4" width="463.793" height="113.686" fill="none"/>
    </clipPath>
  </defs>
  <g id="Group_5" data-name="Group 5" clip-path="url(#clip-path)">
    <path id="Path_13" data-name="Path 13" d="M125.256,74.31c-9.061-6.358-19.87-14.961-28.369-14.73a21.818,21.818,0,0,0-19.443,14.08c-6.324-8.6-9.254-19.84-7.027-30.281,2.216-10.391,9.814-19.753,19.994-23.185A15.8,15.8,0,0,0,94.8,28.3c-2.708-8.292-.894-12.04,3.172-16.273s10.266-6.07,16.106-5.474a116.138,116.138,0,0,0,.492,32.32c.654,4.184,1.656,8.568,4.578,11.632,4.341,4.554,11.355,4.786,17.478,6.233a38.895,38.895,0,0,1,26.762,53.268c-11.589-2.091-24.147-4.055-34.649,1.273-2.656,1.348-5.094,3.135-7.881,4.22a9.679,9.679,0,0,1-8.4-.516,28.13,28.13,0,0,1-10.481-9.9,17.16,17.16,0,0,1-2.556-8.006,5.673,5.673,0,0,1,.119-2.589,42.8,42.8,0,0,0,8.307,5.432,15.425,15.425,0,0,0,10.711,1.75,34.846,34.846,0,0,0,9.515-3.909c4.065-2.2,8.129-4.672,12.7-5.654a20.478,20.478,0,0,1,17.48,4.524s.12-20.2-33-22.324" transform="translate(-27.452 -2.539)" fill="#252425"/>
    <path id="Path_14" data-name="Path 14" d="M97.772,106.356a71.209,71.209,0,0,1,11.529,1.813c5.158,1.262,10.265,3.2,14.343,6.6s7.216,8.668,7.158,13.977c-8.726-7.285-20.481-10.918-31.848-10.974s-22.573,3.047-32.99,7.6c-7.133,3.116-13.973,6.918-21.3,9.557s-15.338,4.08-22.907,2.27a28.917,28.917,0,0,1-19.7-17.094,29.935,29.935,0,0,1-.945-19.051c1.807-6.5,6.6-10.6,12.711-13.094-3.669,4.637-3.934,11.266-2.148,16.9a19.93,19.93,0,0,0,6.018,9.442c4.249,3.51,10.116,4.524,15.6,4.012s10.739-2.394,15.973-4.122c15.63-5.16,32.253-9.076,48.5-7.842" transform="translate(0 -34.655)" fill="#71645c"/>
    <path id="Path_15" data-name="Path 15" d="M304.109,40.713H253.943V25.674h50.166ZM253.944,54.678h41.572V69.717H253.944Zm0,31.259h49.844v15.039H253.944Zm21.162-66.279,23.31-10.85L286.062,0l-17.4,15.039Z" transform="translate(-100.05)" fill="#71645c"/>
    <path id="Path_16" data-name="Path 16" d="M396.767,85.37a22.615,22.615,0,0,0-9.346-43.183H357.988v75.3h15.039V87.4l8.593.016L395.693,117.6H411.7Zm-9.346-13H373.027V57.226h14.394a7.565,7.565,0,0,1,7.52,7.627,7.474,7.474,0,0,1-7.52,7.519" transform="translate(-141.042 -16.621)" fill="#252425"/>
    <path id="Path_17" data-name="Path 17" d="M508.581,42.365V57.4h-20.84v60.263H472.7V57.4H451.755V42.365Z" transform="translate(-177.985 -16.691)" fill="#252425"/>
    <path id="Path_18" data-name="Path 18" d="M612.527,57.4H562.362V42.364h50.165ZM562.362,71.368h41.572V86.407H562.362Zm0,31.259H612.2v15.039H562.362Z" transform="translate(-221.562 -16.691)" fill="#71645c"/>
    <path id="Path_19" data-name="Path 19" d="M689.448,42.365a37.024,37.024,0,0,1,26.533,10.956,35.916,35.916,0,0,1,8.056,12.032,37.232,37.232,0,0,1,0,29.326,34.455,34.455,0,0,1-8.056,11.924,37.694,37.694,0,0,1-26.533,11.064H674.3v-.107h-6.123V42.365Zm0,60.263a22.612,22.612,0,0,0,0-45.224h-6.23v45.224Z" transform="translate(-263.253 -16.691)" fill="#252425"/>
  </g>
</svg>
