<svg id="Component_10_1" data-name="Component 10 – 1" xmlns="http://www.w3.org/2000/svg" xmlns:xlink="http://www.w3.org/1999/xlink" width="258.171" height="95.981" viewBox="0 0 258.171 95.981">
  <defs>
    <clipPath id="clip-path">
      <rect id="Rectangle_12" data-name="Rectangle 12" width="258.171" height="95.981" fill="none"/>
    </clipPath>
  </defs>
  <g id="Group_19" data-name="Group 19" clip-path="url(#clip-path)">
    <path id="Path_157" data-name="Path 157" d="M70.474,40.215c-3.016-5.728-6.341-13.09-10.827-15.241A12.774,12.774,0,0,0,45.762,27.1,22.482,22.482,0,0,1,50.2,9.476,18.453,18.453,0,0,1,66.808,2.761a9.233,9.233,0,0,0,.119,5.39c.807-5.037,2.754-6.5,6-7.617a11.543,11.543,0,0,1,9.846,1.457,67.887,67.887,0,0,0-8.386,16.94c-.779,2.35-1.429,4.9-.728,7.273,1.042,3.528,4.63,5.523,7.43,7.912a22.73,22.73,0,0,1-.315,34.854c-5.473-4.184-11.484-8.561-18.374-8.6-1.743-.009-3.49.27-5.231.089a5.664,5.664,0,0,1-4.236-2.514A16.446,16.446,0,0,1,50.127,50a10.018,10.018,0,0,1,.811-4.847,3.314,3.314,0,0,1,.754-1.314,25.04,25.04,0,0,0,2.871,5.044,9.021,9.021,0,0,0,5.107,3.772,20.4,20.4,0,0,0,6,.509c2.7-.06,5.48-.258,8.123.454a11.983,11.983,0,0,1,7.888,7.023s5.465-10.476-11.205-20.426" transform="translate(-16.918 0)" fill="#252425"/>
    <path id="Path_158" data-name="Path 158" d="M53.558,44.983a41.656,41.656,0,0,1,5.516,4.023,20.552,20.552,0,0,1,5.7,7.267,11.055,11.055,0,0,1-.011,9.181A29.6,29.6,0,0,0,51.119,51.238a48.083,48.083,0,0,0-19.2-4.863c-4.546-.285-9.123-.136-13.64-.72S9.2,43.679,5.749,40.714A16.9,16.9,0,0,1,.067,26.561,17.5,17.5,0,0,1,4.67,16.4c2.677-2.9,6.269-3.751,10.117-3.414C11.636,14.419,9.725,17.8,9.148,21.2a11.642,11.642,0,0,0,.607,6.518A12.5,12.5,0,0,0,16.8,33.979,42.978,42.978,0,0,0,26.219,36.1c9.515,1.493,19.214,3.9,27.339,8.88" transform="translate(0 -4.813)" fill="#005360"/>
    <path id="Path_159" data-name="Path 159" d="M151.725,33.87H122.371V25.077h29.354ZM122.37,42.035H146.7v8.793H122.37Zm0,18.277h29.166v8.794H122.37ZM134.753,21.56l13.64-6.344-7.229-5.15-10.183,8.793Z" transform="translate(-45.535 -3.751)" fill="#005360"/>
    <path id="Path_160" data-name="Path 160" d="M203.821,59.141a13.221,13.221,0,0,0-5.469-25.249H181.13V77.92h8.8v-17.6l5.029.009,8.234,17.65h9.366Zm-5.469-7.6H189.93V42.685h8.423a4.425,4.425,0,0,1,4.4,4.46,4.372,4.372,0,0,1-4.4,4.4" transform="translate(-67.4 -12.628)" fill="#252425"/>
    <path id="Path_161" data-name="Path 161" d="M267.336,33.991v8.794H255.143V78.02h-8.8V42.785H234.085V33.991Z" transform="translate(-87.105 -12.665)" fill="#252425"/>
    <path id="Path_162" data-name="Path 162" d="M325.9,42.785H296.551V33.991H325.9ZM296.551,50.95h24.326v8.793H296.551Zm0,18.277h29.166V78.02H296.551Z" transform="translate(-110.349 -12.665)" fill="#005360"/>
    <path id="Path_163" data-name="Path 163" d="M368.758,33.992A21.673,21.673,0,0,1,384.284,40.4a22.352,22.352,0,0,1,6.474,15.577,21.063,21.063,0,0,1-1.761,8.6,20.151,20.151,0,0,1-4.712,6.972,22.082,22.082,0,0,1-15.527,6.469H359.9v-.063h-3.582V33.992Zm0,35.235a13.221,13.221,0,0,0,0-26.442h-3.646V69.227Z" transform="translate(-132.587 -12.665)" fill="#252425"/>
    <path id="Path_164" data-name="Path 164" d="M257.816,112.079V117.1h-6.968v20.135h-5.028V117.1h-7v-5.025Z" transform="translate(-88.865 -41.76)" fill="#005360"/>
    <path id="Path_165" data-name="Path 165" d="M281.944,112.079l11.889,25.16h-5.568l-7.184-15.29-7.794,15.29h-5.64l12.823-25.16Z" transform="translate(-99.594 -41.76)" fill="#005360"/>
    <path id="Path_166" data-name="Path 166" d="M318.385,132.214h9.375V137.2h-14.4V112.079h5.029Z" transform="translate(-116.602 -41.76)" fill="#005360"/>
    <path id="Path_167" data-name="Path 167" d="M350.7,125.718l-1.94,1.974V137.2h-5.029V112.079h5.029v8.111l7.363-8.111h6.788l-8.8,9.835L363.13,137.2h-6Z" transform="translate(-127.906 -41.76)" fill="#005360"/>
    <path id="Path_168" data-name="Path 168" d="M389.649,126.366a12.075,12.075,0,0,1-3.808-1.58,6.9,6.9,0,0,1-3.233-5.67,6.729,6.729,0,0,1,1.832-5.132,8.738,8.738,0,0,1,5.854-2.477,12.5,12.5,0,0,1,7.543,2.513l.826.538-2.622,4.271-.9-.574a7.736,7.736,0,0,0-4.849-1.723,3.844,3.844,0,0,0-2.227.933,1.775,1.775,0,0,0-.431,1.436c.036,1.292.934,2.01,3.232,2.584.288.072.5.144.719.216a13.31,13.31,0,0,1,5.568,3.338,7.264,7.264,0,0,1,1.975,4.918,7.829,7.829,0,0,1-7.795,7.573,14.92,14.92,0,0,1-4.418-.61,13.913,13.913,0,0,1-6-3.805l3.662-3.444a8.707,8.707,0,0,0,6.753,2.835,2.764,2.764,0,0,0,2.766-2.548c0-1.364-1.544-2.621-4.167-3.518l-.107-.036Z" transform="translate(-141.744 -41.547)" fill="#005360"/>
  </g>
</svg>
