<svg id="Component_6_1" data-name="Component 6 – 1" xmlns="http://www.w3.org/2000/svg" xmlns:xlink="http://www.w3.org/1999/xlink" width="182.555" height="100.848" viewBox="0 0 182.555 100.848">
  <defs>
    <clipPath id="clip-path">
      <rect id="Rectangle_6" data-name="Rectangle 6" width="182.555" height="100.848" fill="none"/>
    </clipPath>
  </defs>
  <g id="Group_8" data-name="Group 8" clip-path="url(#clip-path)">
    <path id="Path_21" data-name="Path 21" d="M14.864,75.016l1.868-1.1A11.888,11.888,0,0,1,12.969,80.1a9.7,9.7,0,0,0,3.524,5.718c-.536.663-1.05,1.274-1.535,1.907-.463.6-.92,1.218-1.338,1.855-.439.671-.856,1.36-1.23,2.069a17.755,17.755,0,0,0-.948,2.078c-.28.749-.443,1.541-.707,2.3-.234.667.052,1.489-.661,2.21a3.771,3.771,0,0,1-.212-.78c-.011-2.932-.021-5.863.01-8.8a2.634,2.634,0,0,1,.384-1.078c.217-.426.2-.838-.193-1.055a1.19,1.19,0,0,0-.969-.022.644.644,0,0,0-.218,1.028,2.045,2.045,0,0,1,.384,1.578c0,2.651.008,5.3-.008,7.952,0,.347.2.818-.392,1.021a41.862,41.862,0,0,0-1.245-4.469,23.93,23.93,0,0,0-2.134-4.033c-.836-1.31-1.848-2.509-2.812-3.794A10.008,10.008,0,0,0,6.144,80.29a1.445,1.445,0,0,0-.376-1.611A19.684,19.684,0,0,1,2.16,72.606c-.024-.058.023-.146.053-.3l2.628.564c.031-.07.061-.141.092-.212-.835-.536-1.653-1.1-2.512-1.6a1.775,1.775,0,0,1-.95-1.419C1.045,66.1.5,62.562.228,59.007-.009,55.891.059,52.752,0,49.622c-.007-.317.041-.636.072-1.077l1.741.684L.423,47.535.4,47.563l.72-.134a2.253,2.253,0,0,1-.94-2.477A113.585,113.585,0,0,1,3.957,23.293c.34-1.224.693-2.446,1.054-3.72L6.5,20.3l.175-.149c-.373-.584-.721-1.185-1.128-1.745a1.5,1.5,0,0,1-.242-1.36Q6.561,12.4,7.814,7.754a2.014,2.014,0,0,1,.17-.34l1.357.324-.029.029c-.058-.1-.09-.244-.177-.3C7.849,6.621,8.14,5.585,8.762,4.5l.808.12.059.047-.086-.018L8.9,3.661,10.04.018,10.289,0c.546,1.539,1.182,3.053,1.623,4.622,1.44,5.133,2.8,10.289,4.222,15.426a1.307,1.307,0,0,1-.439,1.481,6.106,6.106,0,0,0-1.311,1.622l1.9-1.111c.711.956.709.983-.146,1.976.185.021.306.038.428.045s.231,0,.478,0c.384,1.71.783,3.421,1.146,5.14.149.7.169,1.437.332,2.137a1.243,1.243,0,0,1-.788,1.587l.981.271c.07.677.165,1.388.213,2.1a117.48,117.48,0,0,1,.009,16.357c-.375,5.2-.919,10.381-1.394,15.571-.07.759-.165,1.515-.261,2.271a9.342,9.342,0,0,1-1.924,4.733,6.563,6.563,0,0,0-.469.808l-.25.241-.224.23-.046.029.022-.053.22-.234.257-.234" transform="translate(0)" fill="#282628"/>
    <path id="Path_22" data-name="Path 22" d="M17.111,132.352a10.966,10.966,0,0,1,1.628-.964c2.968-1.144,5.947-2.263,8.942-3.336a7.759,7.759,0,0,1,2.278-.431c1.748-.07,2.339.469,2.6,2.179.02.127,0,.262.018.389.209,1.276.782,1.686,2.029,1.314a16.866,16.866,0,0,0,1.946-.882,14.106,14.106,0,0,1,2.148-.9,3.6,3.6,0,0,1,3.638.8,7.777,7.777,0,0,0,5.911,2c7.281-.038,88.74-.108,96.019.01,8.38.137,16.758.426,25.135.725a52.38,52.38,0,0,1,7.948.936c-2.637.042-5.275.089-7.914.124q-15.4.2-30.806.406c-5.848.083-85.873.209-91.721.307a6.8,6.8,0,0,1-5.764-2.287,2.066,2.066,0,0,0-2.447-.67c-.988.322-1.964.682-2.959.979a8.358,8.358,0,0,1-1.895.4,2.577,2.577,0,0,1-3-2.582c-.048-.5-.07-1-.119-1.749-.874.17-1.612.272-2.328.461-3.077.813-6.141,1.668-9.221,2.465a15.721,15.721,0,0,1-2.11.26Z" transform="translate(-4.571 -34.176)" fill="#54221b"/>
    <path id="Path_23" data-name="Path 23" d="M71.2,57.426H37.422V47.468H71.2ZM37.423,66.674H65.417v9.959H37.423Zm0,20.7H70.987v9.959H37.423Zm14.25-43.891L67.37,36.3l-8.318-5.833L47.333,40.425Z" transform="translate(-10.022 -8.159)" fill="#54221b"/>
    <path id="Path_24" data-name="Path 24" d="M128.638,53.686v9.959H114.6v39.908H104.478V63.645H90.372V53.686Z" transform="translate(-24.202 -14.377)" fill="#282628"/>
    <path id="Path_25" data-name="Path 25" d="M181.254,63.645H147.473V53.686h33.781Zm-33.781,9.248h27.994v9.959H147.473Zm0,20.7h33.564v9.959H147.473Z" transform="translate(-39.494 -14.377)" fill="#54221b"/>
    <path id="Path_26" data-name="Path 26" d="M225.583,103.527l-9.475-19.99h-5.064v19.919H200.916V53.588h19.1A15.124,15.124,0,0,1,235.2,68.6a14.852,14.852,0,0,1-8.9,13.588l10.055,21.341ZM211.044,63.547v10.03h8.969a4.992,4.992,0,0,0,5.064-4.98,5.051,5.051,0,0,0-5.064-5.051Z" transform="translate(-53.806 -14.351)" fill="#282628"/>
  </g>
</svg>
