<svg id="Component_7_1" data-name="Component 7 – 1" xmlns="http://www.w3.org/2000/svg" xmlns:xlink="http://www.w3.org/1999/xlink" width="136" height="57.253" viewBox="0 0 136 57.253">
  <defs>
    <clipPath id="clip-path">
      <rect id="Rectangle_11" data-name="Rectangle 11" width="136" height="57.253" fill="none"/>
    </clipPath>
  </defs>
  <path id="Path_90" data-name="Path 90" d="M9.228,1376.006l-4.569,3.739-3.172,4.312-1.145,6.921.093,3.743h33.9l-.408-7.032-.793-3.031-1.748-3.259-1.881-1.344-3.388-2.192-1.931-.7,1.3,1.789.584,1.275-.624,1.448-.745.715,2.169-1.119-.279,3.627-1.552,6.321-1.116,3.459h-.351l-2.611-1.834-7.025-6.3-2.691-3.332,2.691.234-3.148-1.428v-2.274l.344-2.8.551-1.9-.014-.452Z" transform="translate(-0.333 -1339.013)" fill="#00465c"/>
  <path id="Path_91" data-name="Path 91" d="M734.639,1309.647l.155.14,1.691,3.11L738,1318l.661,4.707V1324l-1.19-1.956-.985-2.29-1.348-1.941.492-1.024.123-1.38-.449-.579h-1.28l.771-1.615,0-2.194-.189-1.043Z" transform="translate(-715.023 -1275.747)" fill="#93b8e1"/>
  <g id="Group_18" data-name="Group 18">
    <g id="Group_17" data-name="Group 17" clip-path="url(#clip-path)">
      <path id="Path_92" data-name="Path 92" d="M476.241,1293.08l.705,1.044s1.66,2.133,1.824,2.265,2.592,1.771,2.592,1.771l.11.732-1.7.333.762,1.214,1.8,1.406.168.4-.168.12.261,2.922.294,2.788-2.563-3.249-2.964-4.5-1.115-2.289-.449-3.68Z" transform="translate(-463.492 -1259.608)" fill="#93b8e1"/>
      <path id="Path_93" data-name="Path 93" d="M405.855,1303.964l-.692.838-.552.99-.665,3.268-.216,1.882v2.274l2.52,1.143-2.064.051,2.9,3.5,3.622,3.49,2.882,2.379,1.9,1.361,1.087.78h.285l2.283-7.349.793-4.56v-1.489l-1.734.882-.7.567,1.618-2.221-.377-1.348-2.058-2.463-1.97-1.668-.526-.42-.442-.327,1.844,3.978.892,5.063.527,2.161-.057,1.4-.152,1.5-.211,2.7-1.375-1.209-2.062-2.458-.72-.394-3.675-4.245-2.683-5.195-.476-3.252Z" transform="translate(-393.28 -1270.211)" fill="#00587b"/>
      <path id="Path_94" data-name="Path 94" d="M629.146,1510.358l2.715-.532h1.28l.767.532-.44,1.427-.362.9,1.991,3.382,1.4,2.932-.185,2.274-.254,1.615-1.7-1.642-2.088-2.456-.152-.9-.255-2.617-.1-1.742.233-.3-2.088-1.8Z" transform="translate(-612.86 -1470.744)" fill="#a31e0f"/>
      <path id="Path_95" data-name="Path 95" d="M513.428,1273.589l-.169.862v.465l3.293,3.411.892.516.509.764h1.275l-.255-.221.87-1.812-.159-2.339-.306-1.388-.256-.345h-.965Z" transform="translate(-499.974 -1240.536)" fill="#f7a08e"/>
      <path id="Path_96" data-name="Path 96" d="M239.923,53.934l4.051.3,2.4-.152.559-.268-.061-1.115-.133-3.723.1-.533,2.4-.683,3.229-.807.017-3.454-.017-.865v-1.3l3.188-.377,1.387.581,4.23.421,1.261-.453-.091-6.547s-.344-1.6-1.748-1.423l-3.466-.618-.61.124-4.725,4.852-.412-.685-1.756-.405-.667-.208.667-.918,1.809-1.508,1.283-3,.218-1.872-.19-1.06s.534-6.387-5.135-5.97l-2.041.813-2.122,2.458-.717,2.726-.271,1.615-1.26-3.389-1.359-.674-1.827.595-1.734,1.826-.841,2.407-.372,2.434.522,2.221.049.64.625,1.092.424.461,1.133,1.126-1.9.656-.9.832-1.017-.352L233,40.925l.692,1.186,1.648-.389,1.327-.01,1.1-.03V47.5l-.559.961-.538,1.286.845,1.2.518-.53.763-.229.922.158Z" transform="translate(-226.97 -21.675)" fill="#818386"/>
      <path id="Path_97" data-name="Path 97" d="M522.544,654.013l4.42-1.542v6.239l-4.42,1.131Z" transform="translate(-509.018 -635.581)" fill="#c7c9cb"/>
      <path id="Path_98" data-name="Path 98" d="M1611.665,33.491h-15.441V28.862h15.441Zm-15.441,4.3h12.8v4.629h-12.8Zm0,9.622h15.342V52.04h-15.342Zm6.514-20.4,7.175-3.339-3.8-2.711-5.356,4.629Z" transform="translate(-1554.906 -20.417)" fill="#818386"/>
      <path id="Path_99" data-name="Path 99" d="M2357.122,326.247v4.629h-6.414v18.549h-4.629V330.876h-6.447v-4.629Z" transform="translate(-2279.07 -317.802)" fill="#818386"/>
      <path id="Path_100" data-name="Path 100" d="M3152.16,330.876h-15.441v-4.629h15.441Zm-15.441,4.3h12.8V339.8h-12.8Zm0,9.622h15.342v4.629h-15.342Z" transform="translate(-3055.525 -317.802)" fill="#818386"/>
      <path id="Path_101" data-name="Path 101" d="M3891.147,329.6v18.549h-4.629V324.968h9.06a6.961,6.961,0,0,1,2.876,13.292l4.6,9.919h-4.927l-4.332-9.291v-4.629h1.786a2.3,2.3,0,0,0,2.314-2.314,2.329,2.329,0,0,0-2.314-2.348Z" transform="translate(-3785.916 -316.556)" fill="#818386"/>
      <path id="Path_102" data-name="Path 102" d="M1614.145,1307.45v-14.185l-6.646,6.051-6.646-6.051v14.185h-4.629v-23.178h1.587l9.688,8.8,9.655-8.8h1.62v23.178Z" transform="translate(-1554.906 -1251.028)" fill="#00587b"/>
      <path id="Path_103" data-name="Path 103" d="M2648.883,1288.9h-15.441v-4.629h15.441Zm-15.441,4.3h12.8v4.629h-12.8Zm0,9.622h15.342v4.629h-15.342Z" transform="translate(-2565.275 -1251.029)" fill="#00587b"/>
      <path id="Path_104" data-name="Path 104" d="M3383.237,1307.45v-1.323l12.8-17.524H3385.32v-4.331H3404.3v1.356l-12.829,17.524h12.1v4.3Z" transform="translate(-3295.662 -1251.028)" fill="#00587b"/>
      <path id="Path_105" data-name="Path 105" d="M4348.658,997.216a12,12,0,1,1-12-12,12.022,12.022,0,0,1,12,12m-19.243,0a7.241,7.241,0,1,0,7.241-7.241,7.239,7.239,0,0,0-7.241,7.241m5.295-13.292,3.935-6.216h-4.662l-1.686,6.216Zm7.374,0,3.935-6.216h-4.662l-1.686,6.216Z" transform="translate(-4212.71 -952.4)" fill="#00587b"/>
      <path id="Path_106" data-name="Path 106" d="M192.859,1077.923l.043-.488.04-.488c.026-.325.054-.651.078-.976l.007-.1-.041-.075-.182-.335q.013-.164.024-.328l.014-.231.006-.115,0-.115c0-.154.006-.308.009-.462,0-.077,0-.154,0-.231l0-.231-.011-.463c0-.077-.008-.154-.011-.231l-.013-.231c-.015-.309-.045-.616-.074-.924-.013-.154-.035-.307-.052-.461l-.03-.23c-.01-.077-.019-.154-.031-.23-.046-.306-.094-.612-.152-.915-.014-.076-.028-.152-.043-.228s-.029-.152-.046-.227l-.1-.454c-.016-.076-.035-.151-.054-.226l-.056-.225-.056-.225c-.019-.075-.04-.15-.06-.224-.042-.149-.082-.3-.126-.447s-.088-.3-.134-.445c-.022-.074-.047-.147-.071-.221l-.073-.22c-.025-.073-.048-.147-.074-.22s-.052-.146-.079-.219c-.053-.146-.1-.291-.161-.435-.028-.072-.055-.145-.084-.216l-.043-.108-.044-.107-.089-.215c-.03-.071-.058-.143-.091-.214-.063-.141-.125-.283-.19-.424-.26-.562-.544-1.112-.858-1.645-.158-.266-.321-.529-.5-.784a8.548,8.548,0,0,0-.555-.741c.269.554.512,1.114.744,1.678s.451,1.13.657,1.7c.033.091.065.182.1.272-.032-.044-.067-.088-.1-.131a1.185,1.185,0,0,0-.145-.139.817.817,0,0,0-.2-.118.635.635,0,0,0-.124-.038.573.573,0,0,0-.137-.009.545.545,0,0,0-.247.076.68.68,0,0,0-.166.138,1.011,1.011,0,0,0-.11.152,1.334,1.334,0,0,0-.08.154c-.023.052-.043.1-.06.155a2.669,2.669,0,0,0-.129.629l.178-.26c.059-.085.119-.168.181-.245.031-.039.063-.076.094-.112s.065-.068.1-.1a.449.449,0,0,1,.186-.114.068.068,0,0,1,.051.005.112.112,0,0,1,.016.01l.02.017a.644.644,0,0,1,.119.148,1.7,1.7,0,0,1,.115.227c.018.041.034.083.049.125l.012.033a3.144,3.144,0,0,0-.058.541c0,.019,0,.038,0,.057a1.351,1.351,0,0,0-.33-.122,2.35,2.35,0,0,0-.343-.051c-.111-.009-.22-.011-.327-.009a5.894,5.894,0,0,0-.628.051l-.073.011.008-.005a1.564,1.564,0,0,0,.129-.1,1.256,1.256,0,0,0,.119-.111c.02-.019.038-.039.057-.059l.052-.063a2.3,2.3,0,0,0,.334-.558,3.25,3.25,0,0,0,.194-.613,4.24,4.24,0,0,0,.084-.628,4.845,4.845,0,0,0-.091-1.241,4.453,4.453,0,0,0-.166-.6c-.035-.1-.073-.195-.117-.29a2.223,2.223,0,0,0-.146-.276c.009-.069.016-.139.022-.209l.007-.125v-.126c0-.042,0-.084,0-.127s-.006-.085-.011-.128a1.787,1.787,0,0,0-.047-.262,1.141,1.141,0,0,0-.107-.269.822.822,0,0,0-.078-.115c.033-.009.066-.018.1-.03a.973.973,0,0,0,.246-.122.652.652,0,0,0,.129-.118.546.546,0,0,0,.1-.181.531.531,0,0,0,.022-.1c0-.017,0-.034,0-.05v-.033l0-.093-.018-.371c-.005-.124-.014-.248-.021-.372s-.014-.248-.023-.372l-.026-.372-.014-.186-.007-.093,0-.047v-.047l-.012-.744c-.006-.248-.01-.5-.017-.745-.013-.5-.028-.993-.053-1.491-.056.495-.1.99-.148,1.486-.023.248-.043.5-.064.744l-.059.744c-.041.5-.072.993-.1,1.491l-.018.373,0,.071-.005,0a.441.441,0,0,1-.091.032,1.138,1.138,0,0,1-.138.024c-.05.006-.1.01-.154.011h-.168q-1.488-.031-2.977,0c-.248,0-.5.012-.744.017l-.743.024-.185.007-.09,0h-.088c-.117,0-.233,0-.346-.01a1.794,1.794,0,0,1-.318-.052.634.634,0,0,1-.124-.047.355.355,0,0,1-.038-.023l0,0c-.018-.148-.035-.3-.055-.443l-.033-.25-.035-.25c-.012-.083-.024-.167-.037-.25s-.026-.167-.039-.25l-.012-.071a2.05,2.05,0,0,0,.741.784,2.212,2.212,0,0,0,1.064.325,2.338,2.338,0,0,0,1.965-.936,2.253,2.253,0,0,0,.277-.493c.017-.044.033-.088.049-.132l.041-.135.032-.137c.009-.045.017-.089.024-.134a3.158,3.158,0,0,0,.033-.532c0-.083-.007-.166-.015-.248l.3-.024.149-.012.149-.014c.1-.01.2-.019.3-.03s.2-.021.3-.034.2-.024.3-.038c.2-.027.4-.056.6-.092-.2-.037-.4-.066-.6-.092-.1-.014-.2-.026-.3-.038s-.2-.023-.3-.034-.2-.02-.3-.03l-.149-.014-.149-.012c-.2-.018-.4-.031-.6-.045l-.271-.019.007.31a3.835,3.835,0,0,1-.013.451,2.993,2.993,0,0,1-.067.432c-.008.035-.017.07-.026.1l-.03.1c-.012.032-.024.064-.036.1l-.041.093a1.782,1.782,0,0,1-.213.342,1.837,1.837,0,0,1-1.406.687,1.778,1.778,0,0,1-.791-.175,1.628,1.628,0,0,1-.348-.221,1.776,1.776,0,0,1-.293-.306,2.45,2.45,0,0,1-.286-.495c.181-.056.362-.116.542-.182-.206-.005-.41,0-.615,0-.016-.043-.031-.086-.045-.129a4.618,4.618,0,0,1-.193-.939,2.09,2.09,0,0,0-.051.242c-.013.082-.022.164-.029.247a3.207,3.207,0,0,0,0,.5c0,.029.006.057.009.086l-.189.008c-.368.019-.736.044-1.1.078-.183.016-.366.036-.548.054s-.365.041-.547.064q-.546.068-1.09.151l-.263.205,0-.005,0,0,0,.008-.013.021-.032.047-.037.049-.041.048a1.6,1.6,0,0,1-.191.18,2.373,2.373,0,0,1-.471.292l-.131.058c-.044.019-.091.034-.136.052l-.068.025c-.023.009-.047.014-.07.022l-.142.043c-.023.008-.048.012-.072.018l-.073.017-.148.035c-.106.022-.212.045-.318.069q-.635.141-1.26.324-.312.091-.622.2c-.206.069-.412.143-.614.227.219,0,.437-.011.653-.022l.324-.019c.108-.008.216-.014.323-.023q.646-.049,1.286-.116l.32-.033c.026,0,.056-.007.084-.011l.086-.012.086-.013c.029,0,.057-.008.086-.015l.171-.038c.029-.007.057-.012.085-.02l.085-.025.085-.025c.028-.009.057-.016.085-.028l.168-.064c.028-.01.055-.024.083-.036l.082-.039c.055-.025.108-.056.161-.086l.079-.046.077-.052.077-.052.074-.058a2.137,2.137,0,0,0,.278-.262l.063-.075.06-.081.017-.025q.46-.082.919-.174c.18-.036.359-.074.539-.114s.358-.08.537-.123c.358-.084.714-.177,1.069-.276l.182-.052c.011.05.022.1.036.148a2.368,2.368,0,0,0,.1.3q-.012.141-.022.281t-.017.252c-.005.084-.011.168-.015.252l-.013.252-.011.252c-.007.168-.011.336-.017.5v.006l0,.013c0,.015,0,.016,0,.021l0,.011.005.018c0,.011.007.02.011.029a.422.422,0,0,0,.023.046.479.479,0,0,0,.05.07.653.653,0,0,0,.1.1,1.035,1.035,0,0,0,.209.118,1.776,1.776,0,0,0,.3.1l-.006,0c-.021.01-.042.025-.062.037l-.03.02-.029.024-.029.024c-.009.008-.018.018-.027.028l-.026.028c-.008.01-.016.021-.024.032a.343.343,0,0,0-.022.033l-.019.036a.327.327,0,0,0-.016.038.267.267,0,0,0-.012.04.307.307,0,0,0-.008.042c0,.007,0,.014,0,.023v.012s0,.016,0,.019c.01.075.023.151.035.226.025.15.052.3.085.45.034-.15.06-.3.085-.448.012-.075.025-.149.035-.224,0,0,0,.007,0,.005v0l0,0,.008-.012.01-.012a.1.1,0,0,1,.011-.012.213.213,0,0,1,.026-.021l.014-.01.016-.009a.479.479,0,0,1,.153-.048.312.312,0,0,1,.045-.005l.045,0h.1a2.549,2.549,0,0,1,.4.052h.027c.384.034.767.057,1.151.073s.767.024,1.151.025c.767,0,1.535-.024,2.3-.086l.071-.012h0s0,0,0,0a.026.026,0,0,1,.009,0,.058.058,0,0,1,.033,0,.186.186,0,0,1,.051.025.357.357,0,0,1,.058.053.908.908,0,0,1,.11.161c.016.032.033.063.047.1s.03.068.044.1.026.072.039.108l.036.111.033.114.031.115c.04.155.074.313.113.474,0-.023.009-.046.013-.069q-.006.048-.011.1c-.012.1-.021.2-.031.3-.018.2-.031.4-.042.6l-.059,1.159c-.012.19-.025.379-.042.566s-.039.373-.066.559c-.008.046-.013.093-.022.139s-.017.092-.025.139c-.02.091-.038.186-.063.277l-.017.071c-.007.023-.015.045-.021.069-.014.047-.027.1-.044.141-.008.023-.017.047-.025.071s-.016.049-.026.072l-.036.089c-.143.023-.285.048-.425.078-.211.044-.42.1-.627.152l-.008-.043-.026-.141c-.009-.047-.018-.094-.028-.14l-.015-.07c-.007-.026-.013-.053-.022-.078a1.217,1.217,0,0,0-.143-.282,1.907,1.907,0,0,0-.192-.242,2.719,2.719,0,0,0-.219-.21c-.076-.066-.154-.128-.235-.187s-.163-.114-.247-.167l-.128-.077-.066-.037-.033-.018c-.171-.124-.341-.247-.506-.378s-.328-.263-.488-.4-.316-.278-.47-.422-.305-.291-.454-.442-.3-.3-.441-.46-.288-.316-.431-.477c-.07-.081-.143-.162-.213-.245l-.106-.124-.052-.062-.053-.062c-.141-.167-.281-.336-.423-.51a2.871,2.871,0,0,0,.088.326q.052.16.115.316a5.939,5.939,0,0,0,.286.609,6.948,6.948,0,0,0,.751,1.121c.143.175.295.343.454.5.081.079.16.16.245.236.042.038.083.077.126.114l.129.11a6.658,6.658,0,0,0,1.128.762l.035.019h0l.027.01.03.011.061.024.123.051c.082.034.163.071.243.109a4.23,4.23,0,0,1,.465.253,1.59,1.59,0,0,1,.388.329c.013.016.024.033.037.05l.038.06c.025.041.052.081.078.121s.054.08.081.12l.022.03q-.253.07-.5.15c-.1.031-.192.063-.288.1s-.191.068-.285.1c-.189.071-.377.146-.561.23.4-.054.8-.11,1.194-.16s.791-.1,1.184-.127l.294-.02q.146-.009.292-.012a5.659,5.659,0,0,1,.572.008,2.254,2.254,0,0,1,.52.083l.055.018.051.02a.558.558,0,0,1,.083.045.223.223,0,0,1,.041.033s0,.006,0,.009,0,.033,0,.049,0,.033-.006.051c0,.035-.009.069-.017.105s-.013.071-.021.108c-.03.144-.073.291-.118.438-.093.294-.2.587-.328.878-.031.073-.063.145-.1.217l-.048.109-.05.108-.05.108-.025.054c-.008.017-.017.039-.024.05a.81.81,0,0,1-.087.142.424.424,0,0,1-.095.088.3.3,0,0,1-.109.044.482.482,0,0,1-.148,0,.894.894,0,0,1-.179-.041,1.559,1.559,0,0,1-.191-.078c-.032-.014-.064-.033-.1-.048s-.065-.034-.1-.054a4.3,4.3,0,0,1-.381-.253c-.126-.091-.248-.19-.37-.291s-.241-.207-.361-.314c-.475-.431-.93-.9-1.387-1.368.075.147.157.289.241.43s.173.28.265.417q.274.411.589.8c.1.129.215.254.329.378s.234.242.359.358a4.2,4.2,0,0,0,.4.328c.035.026.074.05.11.076s.076.048.117.071a2.173,2.173,0,0,0,.253.125l.044.017-.137.133-.008.007v.015c.009.441.025.88.042,1.32s.038.879.061,1.319l.035.659.039.659c.012.219.028.439.041.658.013.2.026.4.04.605-.192-.266-.388-.527-.586-.786l-.159-.208-.155-.211-.312-.419c-.213-.276-.414-.56-.619-.84l-.154-.21c-.051-.07-.1-.139-.154-.21-.1-.142-.2-.285-.3-.425s-.2-.282-.3-.424l-.292-.429-.146-.214c-.048-.072-.1-.141-.145-.215l-.281-.435c-.245-.374-.479-.754-.705-1.138l.017-.023c.036-.05.068-.1.1-.154a2.882,2.882,0,0,0,.16-.326l.035-.084c.011-.028.021-.056.031-.085.02-.057.041-.114.058-.171s.035-.115.051-.173.029-.116.043-.174c.028-.116.048-.233.07-.35.009-.059.018-.117.025-.176s.016-.118.021-.176c.011-.118.023-.236.028-.353l.007-.177,0-.168a2.254,2.254,0,0,1,.025-.288c0-.022.008-.044.012-.065s.009-.042.015-.061a.746.746,0,0,1,.037-.107.346.346,0,0,1,.28-.226,1.064,1.064,0,0,1,.276-.011,2.486,2.486,0,0,1,.315.047c.108.022.218.05.329.08s.224.064.34.1a1.86,1.86,0,0,0-.246-.268,2.307,2.307,0,0,0-.29-.225,1.859,1.859,0,0,0-.338-.177,1.3,1.3,0,0,0-.407-.092.978.978,0,0,0-.236.016.876.876,0,0,0-.242.085.885.885,0,0,0-.211.157.981.981,0,0,0-.153.2,1.2,1.2,0,0,0-.1.21,1.594,1.594,0,0,0-.06.208,2.249,2.249,0,0,0-.046.4l0,.177v.169c0,.056,0,.112,0,.169s0,.112,0,.168v.674c0,.225,0,.45-.007.677v.086c0,.028,0,.057,0,.085,0,.058-.005.114-.007.172,0,.034,0,.069-.006.1q-.145-.248-.287-.5l-.246-.452-.061-.113-.031-.057-.028-.057c-.038-.077-.076-.154-.115-.23l-.116-.229-.058-.115-.053-.117c-.071-.155-.142-.311-.215-.466l-.2-.472c-.016-.039-.033-.079-.049-.118l-.045-.12-.09-.239c-.064-.159-.112-.321-.167-.483l-.041-.121-.02-.061-.018-.061-.07-.245c-.1-.327-.167-.659-.23-.993-.009-.042-.014-.084-.02-.126l-.018-.126c-.012-.084-.027-.168-.033-.253l-.026-.254c-.007-.085-.008-.169-.014-.254a5.758,5.758,0,0,1,.042-1.021,3.325,3.325,0,0,1,.276-.994c-.014.017-.028.034-.041.052l-.039.054c-.024.037-.049.074-.071.112s-.045.076-.065.116l-.06.119c-.035.081-.073.162-.1.246-.016.042-.032.083-.046.126l-.04.128a5.1,5.1,0,0,0-.194,1.055,6.948,6.948,0,0,0,0,1.076l.026.268.014.134.02.133c.028.177.051.356.092.53l.055.263.014.066.017.065.034.13c.046.173.089.347.146.516l.081.255.041.128c.015.042.031.084.046.125.062.167.124.334.187.5s.139.328.209.491l.053.123.057.12.115.24c.038.08.077.16.116.24l.029.06.031.059.063.117.25.469c.02.04.043.077.066.115l.067.114.135.229c.091.152.177.307.275.454l.288.445c.094.149.2.294.3.438l.305.432c.05.073.1.142.157.212l.16.21.321.419c.11.137.223.272.335.408s.225.27.337.405.232.264.349.395l.352.391.089.1.091.1.183.19.368.376.185.187c.062.062.126.122.19.182.242.229.485.457.733.678l0,.032.006.083.062.074.463.547.466.544c.31.364.624.723.936,1.084s.629.718.943,1.078l.951,1.071.534.6.075-.8.091-.975c.031-.325.058-.65.087-.976m-4.345-18.139v.018h0a.022.022,0,0,1,0,0,.052.052,0,0,1,0-.013m-6.208-.01s0,0,0,.015l0,.019,0-.033m8.582,6.917c.023.072.045.145.068.216s.044.145.066.217l.066.217c.022.073.044.145.064.218.041.146.084.291.126.436s.079.292.119.438c.02.073.041.146.06.219l.056.22.057.22c.019.073.038.146.055.22l.108.441,0,.013c-.133-.289-.262-.572-.383-.855-.145-.338-.279-.674-.392-1.011-.055-.169-.107-.337-.151-.506-.011-.042-.02-.084-.031-.127l-.015-.063-.013-.063c-.008-.042-.019-.084-.026-.126s-.014-.084-.022-.126a4.405,4.405,0,0,1-.048-.5,3.572,3.572,0,0,1,.012-.374c.027.082.053.165.081.247.049.143.094.288.139.432m-.214,10.79c-.323-.351-.645-.7-.971-1.053l-.488-.524-.434-.462c-.023-.186-.047-.372-.071-.558-.028-.218-.055-.436-.085-.654l-.088-.654-.091-.654q-.093-.653-.192-1.306c-.067-.432-.134-.863-.209-1.294l.108-.14.007-.009a1.529,1.529,0,0,0,.217.061,1.077,1.077,0,0,0,.338.015.954.954,0,0,0,.35-.113,1.043,1.043,0,0,0,.277-.225,1.357,1.357,0,0,0,.1-.131c.012-.019.025-.038.037-.057q.305.721.626,1.434c.247.553.5,1.1.756,1.652l.386.822.391.819.4.817.356.727c-.035.3-.066.592-.1.888l-.054.487-.051.487c-.034.325-.069.649-.1.974l-.018.185-.426-.475c-.321-.353-.641-.708-.964-1.06m1.879-2.482-.437-.8-.442-.793-.446-.791c-.3-.526-.6-1.051-.909-1.573q-.4-.684-.819-1.361l.022-.039c.014-.024.021-.04.031-.059l.028-.056.056-.112.056-.112c.019-.037.035-.076.053-.114.035-.076.07-.152.1-.228a8.333,8.333,0,0,0,.353-.952c.013-.041.023-.083.035-.124l.015-.054q.061.153.131.3a5.3,5.3,0,0,0,1,1.421,3.722,3.722,0,0,0,.388.346c.022.1.043.2.066.293.072.294.128.592.195.888.032.148.058.3.089.446s.063.3.088.447.055.3.083.448l.021.112c.007.037.012.075.019.112.012.075.026.15.038.225l.078.45.072.452.038.226c.012.075.021.151.033.227.023.151.045.3.069.454l.018.114.016.114.032.228q.018.119.036.238Z" transform="translate(-169.134 -1027.552)" fill="#252425"/>
      <path id="Path_107" data-name="Path 107" d="M813.781,1383.441l0-.061,0-.061v-.015l0-.019,0-.038-.066-.542-.465.3-.442.286-.12.079.375-.637.085-.145-.071-.142a8.042,8.042,0,0,0-.5-.86c-.046-.069-.093-.136-.14-.2s-.1-.134-.144-.2q-.147-.2-.3-.389-.308-.382-.64-.74t-.68-.7l-.175-.168-.177-.167q-.178-.165-.358-.326c-.24-.216-.485-.426-.731-.633s-.5-.411-.747-.612l-.754-.6c.442.468.9.92,1.348,1.379q.337.343.667.692.165.174.326.351l.161.177.159.178c.211.239.418.48.618.726s.393.5.577.752c.092.128.181.257.268.388.043.066.087.131.128.2s.083.132.123.2q.2.328.364.669l-.5.785-.582.923-.781,1.238,1.244-.785.445-.281.445-.281.372-.236v.028c0,.07-.006.141-.009.212s-.005.141-.009.212l-.015.213-.015.214c0,.036-.006.071-.01.107l-.011.107-.045.428-.057.428-.028.214c0,.036-.009.071-.014.107l-.017.107-.068.428c-.042.286-.1.57-.149.855l-.077.427-.088.426-.086.427-.043.213c-.015.071-.032.142-.047.213q-.1.425-.19.851l-.047.213-.051.212-.1.424-.1.425-.051.212c-.017.071-.033.142-.052.212l-.216.847-.107.424-.053.212-.057.211c-.076.281-.15.564-.225.846l-.111.424-.055.212-.058.211q-.234.844-.452,1.7.333-.812.649-1.631c.026-.068.053-.136.079-.2l.075-.206.15-.413c.1-.276.2-.551.295-.827l.073-.207.069-.208.137-.417.271-.836c.023-.07.044-.14.064-.21l.063-.211.125-.422.124-.422.062-.211.057-.213q.115-.425.226-.851c.018-.071.038-.142.055-.213L813,1389l.1-.429.1-.43.09-.432.089-.433c.031-.144.054-.29.079-.435l.076-.436.019-.109c.006-.036.011-.073.016-.11l.032-.22.061-.44.049-.443.012-.111c0-.037.008-.074.011-.111l.017-.223.017-.223c0-.075.006-.15.009-.225s.006-.15.008-.226v-.229c0-.075,0-.155-.006-.232Z" transform="translate(-786.8 -1341.207)" fill="#252425"/>
      <path id="Path_108" data-name="Path 108" d="M399.971,1348.514c-.141-.109-.279-.221-.418-.333l-.416-.334-.412-.34c-.277-.223-.546-.457-.819-.684-.541-.462-1.079-.926-1.606-1.4s-1.05-.957-1.564-1.446c-.128-.123-.257-.245-.384-.369l-.382-.371c-.252-.249-.5-.5-.752-.752-.5-.5-.988-1.018-1.47-1.537q-.36-.391-.713-.787c-.117-.132-.236-.264-.352-.4l-.175-.2-.173-.2q-.345-.4-.68-.814l-.173-.213.474.037,1.261.1,2.055.157-1.9-.794-1.431-.6-1.258-.521-.008-.923v-.14c0-.047,0-.093,0-.14l.005-.279.01-.559c0-.093,0-.187.008-.279l.014-.279.027-.558c0-.047,0-.093.007-.14l.012-.139.023-.278.022-.278.011-.139c0-.023,0-.047.006-.07l.008-.069c.046-.369.08-.741.144-1.107l.043-.276c0-.023.007-.046.011-.069l.014-.068.027-.137.054-.274c.009-.046.018-.092.028-.137l.034-.135.067-.271c.012-.045.021-.091.035-.135l.04-.133.08-.268c.03-.088.062-.175.094-.263.016-.044.03-.088.048-.131l.054-.129.054-.129c.019-.043.041-.083.061-.125s.041-.084.063-.125l.07-.121c.022-.041.05-.079.076-.118l.02-.029.021-.028c.014-.019.028-.037.044-.055-.018.015-.034.032-.051.049l-.025.025-.023.027c-.03.036-.063.071-.089.11l-.083.115c-.026.039-.051.08-.076.119s-.051.08-.075.121l-.068.124-.068.125c-.023.042-.041.085-.061.128-.04.086-.081.172-.12.258l-.105.264-.052.132c-.018.044-.031.089-.047.134l-.091.269-.045.135c-.014.045-.026.091-.039.137l-.077.274-.038.137-.019.069c-.006.023-.011.046-.017.069l-.063.277c-.091.369-.152.742-.221,1.115l-.013.07c0,.023-.007.047-.01.07l-.02.141-.04.281-.039.281-.019.141c-.006.047-.01.094-.015.141l-.057.564c-.019.188-.039.377-.049.565l-.036.566-.018.283c0,.047-.006.094-.008.142l0,.141-.033,1.133-.005.186.183.082,1,.45-.527-.045-.767-.066.457.615.083.112.082.109c.055.072.111.143.166.215q.167.213.337.423c.226.28.459.554.694.826l.176.2.178.2c.118.135.239.268.359.4q.362.4.733.788,1.483,1.56,3.094,2.987l.2.178.2.176c.136.117.27.235.407.351.275.23.548.462.827.686l.208.169c.069.057.139.113.21.168l.422.332c.14.112.284.218.426.327s.284.218.428.323l.433.318c.144.107.29.209.436.313l.438.309.443.3c.294.2.6.395.9.59.149.1.3.19.454.285l.228.141.229.14c-.28-.222-.566-.435-.845-.658Z" transform="translate(-377.946 -1293.795)" fill="#252425"/>
      <path id="Path_109" data-name="Path 109" d="M9.167,1393.832q-.632.4-1.248.818-1.232.843-2.4,1.784c-.193.158-.386.317-.576.479s-.378.327-.564.495q-.56.5-1.087,1.042t-1.009,1.132q-.239.3-.46.612c-.146.21-.286.427-.416.652a6.185,6.185,0,0,0-.349.7c-.025.062-.049.124-.073.186s-.044.127-.066.19-.037.123-.055.184l-.054.183c-.134.491-.243.984-.333,1.479a28.6,28.6,0,0,0-.366,2.979c-.074.995-.108,1.991-.112,2.986,0,.5.005.995.022,1.492s.041.994.08,1.489c.074-.991.151-1.979.241-2.965s.19-1.969.315-2.947c.015-.122.032-.244.048-.366s.033-.244.051-.366c.034-.244.071-.487.108-.73.079-.485.162-.968.263-1.446s.21-.953.346-1.416c.036-.115.069-.232.105-.344.019-.054.036-.107.056-.161s.042-.107.064-.16a5.619,5.619,0,0,1,.315-.625c.117-.2.245-.406.38-.6s.281-.389.429-.58.3-.377.461-.561.322-.364.487-.544c.331-.358.676-.706,1.027-1.049.175-.172.354-.34.534-.508s.361-.334.543-.5c.731-.66,1.484-1.3,2.248-1.927s1.541-1.244,2.326-1.852c-.435.24-.862.5-1.283.761" transform="translate(0 -1357.011)" fill="#252425"/>
      <path id="Path_110" data-name="Path 110" d="M945.531,1489.565l-.007-.171-.01-.171c-.007-.114-.013-.228-.021-.342l-.024-.342c-.008-.114-.019-.228-.029-.342l-.015-.171-.017-.171-.036-.342c-.028-.227-.055-.455-.089-.682s-.068-.454-.106-.681c-.02-.113-.042-.226-.063-.339l-.032-.17-.035-.169c-.091-.452-.207-.9-.338-1.346a10.968,10.968,0,0,0-.483-1.316l-.073-.161c-.012-.027-.025-.053-.039-.08l-.04-.079-.081-.158-.041-.079-.045-.077c-.061-.1-.119-.207-.182-.308s-.13-.2-.2-.3c-.139-.191-.279-.382-.43-.561l-.112-.136-.117-.131-.117-.131c-.039-.044-.079-.086-.12-.127a12.1,12.1,0,0,0-1.017-.952c-.176-.151-.358-.293-.539-.435l-.277-.207c-.092-.069-.187-.134-.281-.2-.047-.033-.093-.067-.141-.1l-.143-.1c-.1-.064-.19-.129-.287-.19s-.192-.125-.29-.186l-.293-.18q-.589-.354-1.2-.67t-1.234-.594c-.417-.185-.839-.358-1.269-.507q1.195.66,2.331,1.4.568.368,1.119.758l.273.2c.091.065.181.133.271.2s.179.135.268.2.178.136.265.207q.527.415,1.02.867c.326.3.645.61.937.94a9.924,9.924,0,0,1,.813,1.028c.058.091.118.182.177.272s.108.186.162.279l.04.07.036.073.073.145.036.072c.012.024.025.048.035.073l.066.15.067.149c.012.025.022.05.032.076l.03.076.061.153c.02.051.042.1.059.154l.11.312c.036.1.067.211.1.316.017.053.035.105.051.158l.046.16.046.16c.016.053.031.107.044.161l.084.323c.015.054.026.108.039.162l.039.163.039.163.036.164c.024.109.048.218.071.328.043.22.089.439.129.66.082.441.154.885.219,1.33l.048.334.046.335c.015.112.028.224.043.336l.021.168.02.168q.081.672.147,1.348.134,1.351.226,2.712c.046-.453.074-.908.092-1.363s.026-.911.026-1.367c0-.228,0-.456-.008-.684s-.013-.456-.024-.684" transform="translate(-911.446 -1437.954)" fill="#252425"/>
      <path id="Path_111" data-name="Path 111" d="M731.547,1280.948h.006l.008,0-.019,0h.005" transform="translate(-712.606 -1247.787)" fill="#252425"/>
      <path id="Path_112" data-name="Path 112" d="M528.112,1098.786a.982.982,0,0,0-.348-.14.964.964,0,0,0-.783.2.993.993,0,0,0-.273.346,1.016,1.016,0,0,0,0,.875.993.993,0,0,0,.273.345.965.965,0,0,0,1.13.058,1,1,0,0,0,.457-.84.679.679,0,0,1-.072.3.651.651,0,0,1-.2.232.624.624,0,0,1-.268.112.61.61,0,0,1-.483-.129.644.644,0,0,1-.142-.162.67.67,0,0,1-.076-.177.684.684,0,0,1,0-.357.677.677,0,0,1,.076-.177.652.652,0,0,1,.141-.161.609.609,0,0,1,.482-.13.624.624,0,0,1,.268.111.65.65,0,0,1,.2.232.678.678,0,0,1,.072.3,1.005,1.005,0,0,0-.457-.841" transform="translate(-512.978 -1070.191)" fill="#252425"/>
      <path id="Path_113" data-name="Path 113" d="M364.346,1034.266a.829.829,0,0,0-.235.1,1.106,1.106,0,0,0-.343.334,1.587,1.587,0,0,0,0,1.705,1.11,1.11,0,0,0,.342.334.83.83,0,0,0,.235.1.7.7,0,0,0,.255.012.661.661,0,0,0,.23-.079.731.731,0,0,0,.173-.14,1.079,1.079,0,0,0,.206-.344,1.794,1.794,0,0,0,.1-.365,2.278,2.278,0,0,0,.027-.321,1.184,1.184,0,0,1-.206.641.72.72,0,0,1-.252.226.431.431,0,0,1-.143.045.33.33,0,0,1-.13-.011.366.366,0,0,1-.186-.143.859.859,0,0,1-.116-.236,2,2,0,0,1,0-1.136.868.868,0,0,1,.115-.236.367.367,0,0,1,.185-.143.331.331,0,0,1,.13-.011.433.433,0,0,1,.143.045.718.718,0,0,1,.253.225,1.18,1.18,0,0,1,.207.641,2.294,2.294,0,0,0-.027-.321,1.8,1.8,0,0,0-.1-.365,1.08,1.08,0,0,0-.206-.345.729.729,0,0,0-.174-.14.661.661,0,0,0-.23-.08.7.7,0,0,0-.256.012" transform="translate(-354.11 -1007.476)" fill="#252425"/>
      <path id="Path_114" data-name="Path 114" d="M433.591,1084.634c0,.016,0,.031,0,.047q0-.023,0-.047" transform="translate(-422.367 -1056.558)" fill="#252425"/>
      <path id="Path_115" data-name="Path 115" d="M433.591,1082.824c0,.016,0,.031,0,.047q0-.023,0-.047" transform="translate(-422.367 -1054.795)" fill="#252425"/>
      <path id="Path_116" data-name="Path 116" d="M767.68,566.414c.386.021.773.039,1.161.045-.375-.1-.752-.19-1.129-.277s-.755-.166-1.133-.244c-.189-.039-.379-.076-.568-.114l-.569-.109c-.289-.053-.577-.106-.866-.157l0-.063.007-.321c0-.214.011-.427.013-.641l.009-.641,0-.641c0-.855-.005-1.71-.028-2.564s-.055-1.71-.1-2.564c-.011-.214-.027-.427-.04-.641s-.03-.427-.048-.641c-.035-.427-.074-.855-.127-1.282-.053.427-.092.855-.127,1.282-.018.214-.033.427-.049.641s-.029.427-.04.641c-.05.855-.083,1.71-.1,2.564s-.029,1.71-.028,2.564l0,.641.009.641c0,.214.008.427.013.641l.007.321.01.32.009.276.256.029c.383.043.767.081,1.151.118l.577.052c.192.016.385.033.577.047.385.029.771.056,1.157.077" transform="translate(-744.139 -541.177)" fill="#252425"/>
      <path id="Path_117" data-name="Path 117" d="M316.285,34.839c.029.209.063.416.105.623.01.052.022.1.033.155l.018.077.01.039c0,.013.006.021.009.036.025.1.053.206.084.308a6.068,6.068,0,0,0,.217.594,5.482,5.482,0,0,0,.278.566,4.666,4.666,0,0,0,.347.525,3.491,3.491,0,0,0,.424.461,3.755,3.755,0,0,1-.385-.489,4.6,4.6,0,0,1-.3-.54,6.064,6.064,0,0,1-.41-1.163c-.024-.1-.046-.2-.063-.3,0-.011,0-.028-.007-.04l-.007-.037-.013-.076c-.008-.051-.016-.1-.023-.152q-.043-.306-.069-.614a12,12,0,0,1-.038-1.234,10.053,10.053,0,0,1,.336-2.424q.08-.294.181-.581t.226-.562c.082-.184.173-.364.27-.54s.2-.347.316-.512a6.34,6.34,0,0,1,.765-.921c.142-.14.289-.276.444-.4.076-.065.156-.124.235-.185l.12-.087.06-.043.062-.04c.041-.026.081-.055.123-.079l.125-.074c.085-.046.169-.092.255-.131a2.32,2.32,0,0,1,.523-.175,1.47,1.47,0,0,1,.515-.015,1.217,1.217,0,0,1,.123.026l.061.016.059.021.03.01.029.013.058.025.056.03a.557.557,0,0,1,.056.031,1.836,1.836,0,0,1,.408.338,3.023,3.023,0,0,1,.337.45,5.563,5.563,0,0,1,.493,1.067A9.781,9.781,0,0,1,323.081,30q.065.3.114.6.025.15.046.3l.02.15.009.074.007.071.689-.039v-.1l0-.1q0-.1.007-.209.009-.21.024-.421.031-.421.087-.839a12.949,12.949,0,0,1,.329-1.649,8.681,8.681,0,0,1,.579-1.556,6.255,6.255,0,0,1,.407-.71c.074-.114.155-.222.238-.329s.17-.208.263-.3.188-.19.287-.279c.051-.042.1-.088.153-.127l.078-.062.081-.058c.053-.04.11-.074.164-.111.028-.018.056-.034.085-.052s.056-.035.085-.051c.058-.031.115-.065.175-.093l.089-.044.094-.041.188-.081c.063-.025.127-.047.19-.071l.1-.035c.032-.011.064-.019.1-.029.064-.019.128-.039.193-.056a3.274,3.274,0,0,1,.776-.105,2.062,2.062,0,0,1,1.392.492,2.62,2.62,0,0,1,.5.586,3.125,3.125,0,0,1,.191.346c.029.06.054.12.079.181.012.03.024.061.034.091l.015.045.012.039.009.028h0c.084.222.166.446.234.674s.13.457.184.689a8.622,8.622,0,0,1,.191,1.413c.008.119.009.238.012.357v.179c0,.06,0,.119,0,.179s0,.119-.007.179l-.011.179c0,.06-.011.119-.016.179l-.008.089-.01.089c-.026.238-.063.475-.11.71s-.1.47-.165.7-.135.462-.215.69-.169.452-.264.675a11.884,11.884,0,0,1-.654,1.3,13.064,13.064,0,0,1-.8,1.219,10.871,10.871,0,0,1-.943,1.122c.186-.16.362-.332.532-.508s.336-.359.5-.546a12.3,12.3,0,0,0,.888-1.182,10.992,10.992,0,0,0,1.3-2.667q.116-.355.2-.721c.058-.243.108-.488.146-.736s.067-.5.084-.747c0-.063.009-.125.011-.188l.008-.188c0-.126.005-.251,0-.377a8.858,8.858,0,0,0-.153-1.5,9.566,9.566,0,0,0-.4-1.44l-.006-.023-.009-.03q-.009-.03-.018-.058c-.012-.038-.026-.075-.039-.112-.027-.073-.056-.146-.088-.217a3.7,3.7,0,0,0-.216-.416,3.5,3.5,0,0,0-.272-.387,2.952,2.952,0,0,0-.332-.346c-.059-.055-.124-.1-.188-.153L330.3,23.5l-.025-.017-.051-.034c-.034-.022-.067-.046-.1-.067l-.107-.06-.053-.03-.055-.026-.111-.052-.028-.013-.029-.011-.057-.021a2.816,2.816,0,0,0-.951-.173,3.9,3.9,0,0,0-.936.112c-.075.019-.149.041-.223.062-.037.011-.075.02-.111.032l-.108.038c-.072.026-.145.049-.216.077l-.21.087-.105.044-.106.05c-.071.032-.139.071-.208.107-.035.018-.068.039-.1.058s-.068.039-.1.06c-.065.043-.132.083-.195.129l-.1.068-.092.071c-.062.047-.12.1-.18.148-.117.1-.23.208-.336.321s-.207.228-.3.347-.188.243-.272.37a6.6,6.6,0,0,0-.459.786,9.375,9.375,0,0,0-.631,1.679,12.282,12.282,0,0,0-.269,1.224c-.028-.086-.058-.172-.089-.257a6.2,6.2,0,0,0-.572-1.188,3.659,3.659,0,0,0-.42-.542,2.423,2.423,0,0,0-.559-.445,1.942,1.942,0,0,0-.7-.239,2.082,2.082,0,0,0-.727.034,2.915,2.915,0,0,0-.655.233,4.051,4.051,0,0,0-.575.343l-.068.047-.066.049-.131.1c-.084.069-.169.135-.25.208-.165.141-.321.292-.471.449a6.638,6.638,0,0,0-.8,1.023,7.546,7.546,0,0,0-.976,2.372,9.345,9.345,0,0,0-.2,1.259,10.637,10.637,0,0,0-.039,1.268,11.386,11.386,0,0,0,.1,1.26" transform="translate(-307.993 -22.404)" fill="#252425"/>
      <path id="Path_118" data-name="Path 118" d="M403.931,323.864a1.364,1.364,0,0,0,.493.351,1.213,1.213,0,0,0,.292.079,1.137,1.137,0,0,0,.818-.2,1.356,1.356,0,0,0,.358-.383,1.782,1.782,0,0,0,.264-.95,1.4,1.4,0,0,1-.086.482,1.222,1.222,0,0,1-.252.41,1,1,0,0,1-.383.257.813.813,0,0,1-.423.039.8.8,0,0,1-.357-.162,1.035,1.035,0,0,1-.248-.289,1.517,1.517,0,0,1,0-1.473,1.04,1.04,0,0,1,.247-.289.793.793,0,0,1,.778-.124,1,1,0,0,1,.383.257,1.22,1.22,0,0,1,.252.41,1.393,1.393,0,0,1,.086.482,1.786,1.786,0,0,0-.263-.95,1.356,1.356,0,0,0-.358-.383,1.15,1.15,0,0,0-.523-.2,1.172,1.172,0,0,0-.59.081,1.361,1.361,0,0,0-.493.351,1.572,1.572,0,0,0-.308.517,1.733,1.733,0,0,0,0,1.177,1.574,1.574,0,0,0,.308.516" transform="translate(-393.074 -312.898)" fill="#252425"/>
      <path id="Path_119" data-name="Path 119" d="M686.805,237.805a1.029,1.029,0,0,0,.287.112.927.927,0,0,0,.306.016.9.9,0,0,0,.283-.084.95.95,0,0,0,.229-.158,1.346,1.346,0,0,0,.3-.42,2.266,2.266,0,0,0,.2-.951,1.683,1.683,0,0,1-.069.477,1.407,1.407,0,0,1-.209.427.986.986,0,0,1-.339.3.6.6,0,0,1-.391.063.766.766,0,0,1-.511-.491,2.1,2.1,0,0,1,0-1.548.766.766,0,0,1,.509-.491.6.6,0,0,1,.39.062.986.986,0,0,1,.339.3,1.405,1.405,0,0,1,.209.426,1.679,1.679,0,0,1,.069.477,2.272,2.272,0,0,0-.2-.952,1.345,1.345,0,0,0-.3-.421.946.946,0,0,0-.229-.158.894.894,0,0,0-.283-.084.926.926,0,0,0-.307.016,1.022,1.022,0,0,0-.288.112,1.364,1.364,0,0,0-.437.405,1.953,1.953,0,0,0,0,2.162,1.367,1.367,0,0,0,.436.4" transform="translate(-668.284 -228.623)" fill="#252425"/>
      <path id="Path_120" data-name="Path 120" d="M350.547,544.2c-.072.024-.143.047-.214.073-.286.1-.57.2-.851.32.305-.008.607-.03.908-.057.075-.006.15-.014.225-.022l.225-.024.225-.025.224-.028c.6-.076,1.19-.169,1.781-.276s1.178-.228,1.763-.361,1.167-.278,1.746-.441l.067-.019.031-.022c.02-.015.03-.023.043-.034l.036-.031c.023-.021.046-.042.068-.063a1.777,1.777,0,0,0,.123-.135,1.755,1.755,0,0,0,.2-.306,1.357,1.357,0,0,0,.125-.357,1.108,1.108,0,0,0,.005-.381,1.175,1.175,0,0,0-.119-.347,1.482,1.482,0,0,0-.1-.148c-.018-.023-.034-.047-.052-.068l-.057-.063a1.945,1.945,0,0,0-.524-.391,2.757,2.757,0,0,1,.36.508,1.354,1.354,0,0,1,.107.269.882.882,0,0,1,.028.265.735.735,0,0,1-.055.246.922.922,0,0,1-.127.221,1.362,1.362,0,0,1-.179.195c-.034.03-.068.058-.1.085l-.047.034c-.58.087-1.156.192-1.729.307s-1.173.249-1.756.393-1.162.3-1.738.478l-.216.066-.215.069-.215.071" transform="translate(-340.435 -526.987)" fill="#252425"/>
      <path id="Path_121" data-name="Path 121" d="M880.263,259.783c-.024.035-.048.071-.074.1-.05.069-.1.138-.153.206-.026.034-.052.069-.078.1s-.054.067-.081.1a8.063,8.063,0,0,1-.708.777,2.765,2.765,0,0,0,.491-.229,4.471,4.471,0,0,0,.454-.3l.108-.084c.036-.028.07-.058.105-.087.071-.057.137-.12.2-.182s.131-.128.2-.192.125-.134.186-.2a6.354,6.354,0,0,0,1.128-1.882l.093-.259c.032-.086.056-.175.083-.262l.039-.132c.014-.044.025-.088.035-.133.021-.089.043-.178.063-.267a7.133,7.133,0,0,0,.143-1.082l.007-.136c0-.045,0-.09,0-.136,0-.091,0-.181,0-.271l0-.135c0-.045,0-.09-.008-.135l-.02-.27-.006-.067-.008-.067c-.006-.045-.011-.089-.018-.134-.013-.089-.025-.178-.04-.266q-.05-.265-.119-.526c-.032.178-.054.354-.076.53-.015.088-.026.175-.039.262-.007.043-.012.087-.018.13l-.009.065-.011.065-.042.258c-.007.043-.013.086-.019.129l-.024.128c-.017.085-.031.17-.046.255-.006.043-.016.085-.025.127l-.026.126c-.066.337-.152.667-.241.994-.05.162-.094.325-.151.484s-.112.318-.169.477c-.123.313-.259.621-.41.922a9.544,9.544,0,0,1-.5.88c-.048.07-.093.142-.141.212Z" transform="translate(-856.411 -247.071)" fill="#252425"/>
      <path id="Path_122" data-name="Path 122" d="M1134.817,432.784c0-.16-.007-.321-.013-.481q-.033-.961-.094-1.918c-.041-.639-.091-1.277-.154-1.914-.032.639-.059,1.278-.083,1.917s-.048,1.276-.077,1.913c-.013.318-.028.636-.046.953-.008.159-.019.316-.029.474l-.019.235-.01.117-.013.111a2.483,2.483,0,0,1-.086.42,1.09,1.09,0,0,1-.165.341.592.592,0,0,1-.111.113.423.423,0,0,1-.125.065.477.477,0,0,1-.142.022.548.548,0,0,1-.075-.005l-.035-.007-.016,0-.005,0-.056-.013-.389-.059-.389-.057-.778-.113-.779-.11c-.26-.036-.519-.074-.779-.108l-.012,0h-.014a2.052,2.052,0,0,1-.567-.107,1.164,1.164,0,0,1-.443-.269,1.06,1.06,0,0,1-.264-.433,1.4,1.4,0,0,1-.059-.264c-.006-.045-.01-.091-.011-.137,0-.023,0-.045,0-.067s0-.021,0-.032v-.023h0l0-.038,0-1.208-.01-1.208c0-.4-.011-.806-.016-1.208l-.023-1.208v-.022a6.385,6.385,0,0,1-.039-.706,2.909,2.909,0,0,1,.075-.671,1.033,1.033,0,0,1,.114-.279.421.421,0,0,1,.174-.168.3.3,0,0,1,.05-.017.246.246,0,0,1,.044-.006h0l.023,0,.046.007.091.013.365.052c.487.068.975.135,1.463.2s.977.122,1.467.175q-.715-.188-1.433-.361t-1.436-.34l-.359-.082-.09-.02-.045-.01-.022-.005h-.02l-.012,0h-.01a.587.587,0,0,0-.139,0,.685.685,0,0,0-.128.031.732.732,0,0,0-.22.125.9.9,0,0,0-.162.173,1.456,1.456,0,0,0-.194.387,3.15,3.15,0,0,0-.142.783,6.615,6.615,0,0,0,0,.747l-.034,1.206c-.009.4-.02.805-.027,1.208l-.021,1.208-.015,1.191v.014l0,.028c0,.018,0,.036,0,.053,0,.035,0,.069,0,.1,0,.068.007.134.015.2a2.093,2.093,0,0,0,.086.4,1.876,1.876,0,0,0,.171.379,1.7,1.7,0,0,0,.262.334l.038.038.04.035c.027.023.053.047.082.067l.085.062.089.055a1.955,1.955,0,0,0,.371.171,2.729,2.729,0,0,0,.745.141c.256.033.512.064.769.1l.781.1.781.092.391.046.375.042.013,0,.043.009c.028.005.055.009.083.012a1.16,1.16,0,0,0,.164,0,1.08,1.08,0,0,0,.327-.067,1.022,1.022,0,0,0,.291-.169,1.142,1.142,0,0,0,.214-.238,1.651,1.651,0,0,0,.228-.527,2.943,2.943,0,0,0,.081-.521l.007-.128,0-.122,0-.243c0-.161,0-.323,0-.483s0-.321-.008-.482" transform="translate(-1099.082 -415.188)" fill="#252425"/>
      <path id="Path_123" data-name="Path 123" d="M1330.377,770.6h0Z" transform="translate(-1295.94 -750.651)" fill="#252425"/>
      <path id="Path_124" data-name="Path 124" d="M985.357,485.455c-.046.083-.092.167-.134.254a.156.156,0,1,0,.143.132c.084-.049.164-.1.243-.153q.236-.159.453-.336a7.928,7.928,0,0,0,.809-.762,8.023,8.023,0,0,0,.7-.864q.16-.23.3-.477c.046-.083.092-.167.134-.254a.156.156,0,1,0-.142-.132c-.083.049-.164.1-.243.153q-.236.159-.453.336a8.017,8.017,0,0,0-.809.762,7.936,7.936,0,0,0-.7.864q-.16.23-.3.477" transform="translate(-959.607 -470.231)" fill="#252425"/>
      <path id="Path_125" data-name="Path 125" d="M952.343,622.44l.2-.007c.068,0,.136-.006.2-.012.137-.009.274-.022.412-.043-.127-.058-.256-.108-.385-.154-.064-.024-.129-.045-.194-.068l-.194-.063c-.259-.081-.52-.151-.783-.214-.486-.116-.976-.206-1.468-.275l-.026-.03c-.034-.039-.066-.08-.1-.123a2.614,2.614,0,0,1-.176-.272,3.1,3.1,0,0,1-.259-.616c-.032-.11-.06-.222-.083-.337s-.042-.233-.056-.353-.023-.243-.032-.368l-.009-.189c0-.064,0-.128-.008-.193-.033.056-.063.114-.092.172s-.054.119-.077.18-.046.123-.064.186-.036.127-.051.192a2.677,2.677,0,0,0-.06.4,2.858,2.858,0,0,0,0,.408,2.605,2.605,0,0,0,.2.808,2.46,2.46,0,0,0,.2.376,2.12,2.12,0,0,0,.128.176c.023.029.048.057.073.086l.041.043.022.022.012.012.017.016.073.067.108.016a15.831,15.831,0,0,0,1.6.154c.269.011.54.015.811.008" transform="translate(-924.477 -603.095)" fill="#252425"/>
      <path id="Path_126" data-name="Path 126" d="M403.7,814.068c.022.1.046.2.074.3a3.16,3.16,0,0,0,.1.3,3.177,3.177,0,0,0,.1-.3c.028-.1.052-.2.074-.3.044-.2.078-.406.1-.608a9.532,9.532,0,0,0,.074-1.217,9.634,9.634,0,0,0-.075-1.217c-.026-.2-.06-.406-.1-.608-.022-.1-.046-.2-.074-.3s-.058-.2-.1-.3c-.039.1-.069.2-.1.3s-.052.2-.074.3c-.044.2-.077.406-.1.608a9.64,9.64,0,0,0-.075,1.217,9.521,9.521,0,0,0,.074,1.217c.026.2.06.406.1.608" transform="translate(-393.073 -788.847)" fill="#252425"/>
      <path id="Path_127" data-name="Path 127" d="M224.445,700.8a2.635,2.635,0,0,0,.288.368c.052.056.106.11.162.162.028.026.057.052.086.077l.045.038.023.019.027.021.2.16.21-.149c.082-.058.164-.116.245-.176s.162-.12.242-.18q.215-.163.424-.334c.259-.024.517-.055.776-.095q.223-.035.446-.08c.149-.031.3-.064.446-.108-.149-.044-.3-.077-.446-.108s-.3-.056-.446-.08c-.3-.046-.594-.08-.891-.106l-.066-.006-.1.057q-.263.15-.519.311c-.085.054-.17.107-.255.162l-.023.015-.084-.082c-.044-.044-.084-.089-.125-.134-.019-.023-.04-.046-.058-.069s-.038-.046-.055-.069a1.063,1.063,0,0,1-.25-.551.218.218,0,0,1,0-.032.279.279,0,0,1,0-.032.5.5,0,0,1,.011-.065l.008-.033.012-.033a.418.418,0,0,1,.031-.068l.008-.018c0-.006.007-.011.011-.017l.022-.034.011-.018.016-.021.032-.042q.063-.084.124-.169l.121-.172c.039-.059.079-.116.118-.176.077-.118.153-.239.221-.365-.127.069-.247.144-.365.221-.06.038-.117.078-.176.118l-.172.121-.169.124-.042.031-.021.016-.024.021-.048.043-.024.022-.022.024a.864.864,0,0,0-.085.1c-.013.019-.026.037-.039.057l-.033.062a.9.9,0,0,0-.056.131c-.008.023-.013.046-.019.069a.6.6,0,0,0-.015.07,1.174,1.174,0,0,0,.045.545,1.82,1.82,0,0,0,.215.448" transform="translate(-218.368 -680.491)" fill="#252425"/>
      <path id="Path_128" data-name="Path 128" d="M832.855,760.8a1.985,1.985,0,0,0,.282-.639,1.928,1.928,0,0,0,.053-.336,1.391,1.391,0,0,0-.013-.336,5.232,5.232,0,0,1-.35.529,2.984,2.984,0,0,1-.391.429,2.088,2.088,0,0,1-.439.3,1.99,1.99,0,0,1-.489.172c-.085.022-.175.03-.264.043s-.182.016-.276.015h-.106l-.036,0-.144,0h-.036l-.036,0-.073-.006-.148-.011-.149-.018c-.05-.006-.1-.009-.151-.017l-.153-.022c-.051-.007-.1-.012-.155-.021l-.156-.024c-.053-.008-.106-.013-.159-.022-.106-.017-.214-.032-.327-.041a3.177,3.177,0,0,0,.25.22c.087.069.18.128.273.189.046.031.1.057.144.083l.148.078c.049.027.1.046.153.069l.157.063c.053.019.108.034.163.051l.082.024.041.012.042.009a2.555,2.555,0,0,0,.345.056l.088.008.044,0h.224c.06,0,.121-.011.181-.017a1.681,1.681,0,0,0,.181-.032,1.971,1.971,0,0,0,.683-.288,1.893,1.893,0,0,0,.516-.518" transform="translate(-807.678 -739.83)" fill="#252425"/>
      <path id="Path_129" data-name="Path 129" d="M807.047,574l.264.04c.089.014.18.027.276.04a1.436,1.436,0,0,0-.19-.213,2.365,2.365,0,0,0-.217-.181,2.644,2.644,0,0,0-.49-.283,2.737,2.737,0,0,0-.545-.177,2.635,2.635,0,0,0-.582-.056l-.074,0h-.037l-.037,0-.148.016-.147.026-.037.007-.036.009-.072.019a2.045,2.045,0,0,0-.546.237l-.063.039-.06.044c-.039.03-.079.058-.116.09a1.894,1.894,0,0,0-.206.206l-.046.055a.55.55,0,0,0-.044.057c-.027.04-.054.079-.079.12l-.019.03a.248.248,0,0,0-.018.031l-.032.064c-.02.043-.04.086-.057.131.046-.017.089-.037.131-.055s.082-.039.124-.056.082-.035.122-.052.081-.032.121-.048c.078-.034.159-.058.235-.086.039-.013.079-.023.117-.035l.057-.018.058-.014a3.465,3.465,0,0,1,.459-.091l.057-.008.029,0,.029,0,.115-.011c.078,0,.154-.01.233-.01.156,0,.314,0,.474.012s.323.029.489.049.335.045.508.071" transform="translate(-782.885 -558.333)" fill="#252425"/>
      <path id="Path_130" data-name="Path 130" d="M841.076,651.192l.033-.006.063-.014a1.16,1.16,0,0,0,.124-.038.853.853,0,0,0,.236-.131.531.531,0,0,0,.1-.106.38.38,0,0,0,.057-.134.309.309,0,0,0,0-.134.346.346,0,0,0-.049-.11.32.32,0,0,1-.09.178.207.207,0,0,1-.068.039.306.306,0,0,1-.077.018.765.765,0,0,1-.172,0c-.03,0-.06-.007-.09-.011l-.044-.008-.021,0-.01,0s-.007,0-.006,0l-.048,0s-.008,0-.013,0l-.02,0-.041-.008a.8.8,0,0,1-.154-.049.613.613,0,0,1-.063-.034.377.377,0,0,1-.09-.078.387.387,0,0,1-.055-.092c0-.009-.008-.017-.011-.027s-.006-.02-.01-.029-.012-.042-.015-.066a1.092,1.092,0,0,1-.017-.155,2.312,2.312,0,0,1,.02-.368,2.392,2.392,0,0,1,.068-.357c0-.013.008-.024.012-.036a.341.341,0,0,1,.012-.035l.013-.032c0-.009.009-.018.013-.028a.307.307,0,0,1,.056-.082.193.193,0,0,1,.109-.048.555.555,0,0,1,.178.007c.033.006.067.013.1.022s.07.019.1.031c.071.023.142.05.217.08a.981.981,0,0,0-.121-.209,1.2,1.2,0,0,0-.079-.095,1.167,1.167,0,0,0-.093-.087.772.772,0,0,0-.242-.136.609.609,0,0,0-.331-.018.688.688,0,0,0-.307.167l-.058.058-.049.06a.59.59,0,0,0-.044.061c-.013.021-.027.042-.039.062a1.828,1.828,0,0,0-.185.495,1.976,1.976,0,0,0-.053.518,1.424,1.424,0,0,0,.042.286,1.166,1.166,0,0,0,.048.147c.011.025.022.049.033.073s.026.048.04.072a.912.912,0,0,0,.224.252.9.9,0,0,0,.291.149.99.99,0,0,0,.3.042,1.076,1.076,0,0,0,.141-.01l.07-.012.036-.007.042-.01-.048,0,.021,0Z" transform="translate(-818.083 -631.983)" fill="#252425"/>
      <path id="Path_131" data-name="Path 131" d="M893.973,873.346a.711.711,0,0,0,.275-.2.325.325,0,0,0,.074-.2.33.33,0,0,0-.075-.2.287.287,0,0,0-.548,0,.33.33,0,0,0-.075.2.325.325,0,0,0,.074.2.71.71,0,0,0,.275.2" transform="translate(-870.493 -849.95)" fill="#252425"/>
      <path id="Path_132" data-name="Path 132" d="M464.686,1008.722c.429-.127.857-.261,1.282-.4.213-.072.425-.146.636-.224s.422-.158.631-.246c-.226.013-.451.034-.675.058s-.447.051-.67.08c-.445.059-.888.129-1.329.2-.883.151-1.758.333-2.629.535s-1.736.427-2.595.681c-.429.127-.857.261-1.282.4-.213.073-.425.146-.636.225s-.422.158-.631.247c.226-.013.451-.034.675-.057s.447-.051.67-.08c.445-.059.888-.128,1.329-.2.883-.151,1.758-.333,2.629-.536s1.736-.428,2.594-.682" transform="translate(-444.965 -981.759)" fill="#252425"/>
      <path id="Path_133" data-name="Path 133" d="M458.516,955.5c.149,0,.3-.012.444-.022l.22-.017.22-.021c.146-.014.292-.031.437-.05.581-.075,1.157-.179,1.727-.3s1.136-.274,1.695-.451c.14-.044.279-.09.418-.139s.277-.1.415-.151.275-.108.412-.167.273-.12.407-.189c-.151-.006-.3,0-.449,0s-.3.012-.444.022-.294.023-.44.038-.292.031-.437.05c-.582.075-1.157.179-1.727.3s-1.136.273-1.695.45c-.14.044-.279.09-.418.139-.069.025-.139.048-.208.074l-.207.077c-.138.053-.275.108-.412.167s-.273.12-.407.189c.151.007.3.005.449,0" transform="translate(-446.21 -929.29)" fill="#252425"/>
      <path id="Path_134" data-name="Path 134" d="M513.453,639.383q-.273.112-.541.225l-.534.224q-.53.224-1.042.446l1.168-.325.571-.161.564-.161c.374-.107.743-.215,1.11-.324q.372-.111.741-.223v.042l-.011.39c-.007.26-.016.52-.021.78l-.017.78-.013.78-.006.39,0,.39-.007.78,0,.78q0,.255,0,.51c-.281.073-.561.145-.841.219l-1.1.294-1.1.3-.751.21-.01-.331-.027-.712q-.029-.714-.066-1.438t-.081-1.465q-.042-.741-.094-1.5-.05.693-.093,1.41t-.081,1.448q-.037.732-.066,1.476l-.027.745-.021.748-.01.361.369-.083c.371-.083.741-.172,1.111-.257l1.11-.265,1.108-.272c.369-.091.737-.186,1.106-.278l.261-.065,0-.272c0-.26,0-.52,0-.78l0-.78-.007-.78,0-.39-.006-.39-.013-.78-.017-.78c0-.26-.014-.52-.021-.78l-.011-.39-.013-.39-.012-.365-.326.125c-.376.144-.749.292-1.12.44s-.737.3-1.1.448" transform="translate(-497.81 -621.847)" fill="#252425"/>
      <path id="Path_135" data-name="Path 135" d="M305.528,702.948a4.909,4.909,0,0,0,.5.1,6.335,6.335,0,0,0,.99.074,6.41,6.41,0,0,0,.99-.075,4.959,4.959,0,0,0,.5-.1c.083-.022.165-.046.248-.074a.143.143,0,1,0,0-.194c-.083-.028-.165-.052-.248-.074a4.942,4.942,0,0,0-.5-.1,6.4,6.4,0,0,0-.99-.075,6.328,6.328,0,0,0-.99.074,4.909,4.909,0,0,0-.5.1c-.083.022-.165.046-.248.074a.143.143,0,1,0,0,.195c.083.028.165.052.248.074" transform="translate(-297.137 -684.245)" fill="#252425"/>
      <path id="Path_136" data-name="Path 136" d="M971.786,813.588c.022.09.046.18.074.27a.152.152,0,1,0,.194,0c.028-.09.052-.18.074-.27.044-.18.077-.36.1-.54a7.608,7.608,0,0,0,.075-1.08,7.51,7.51,0,0,0-.074-1.08c-.026-.18-.06-.36-.1-.54-.022-.09-.046-.18-.074-.27a.153.153,0,1,0-.195,0c-.028.09-.052.18-.074.27-.044.18-.078.36-.1.54a7.519,7.519,0,0,0-.074,1.08,7.608,7.608,0,0,0,.075,1.08c.026.18.06.36.1.54" transform="translate(-946.458 -788.847)" fill="#252425"/>
      <path id="Path_137" data-name="Path 137" d="M1208.381,505.226a.106.106,0,1,0-.065-.112c-.064.016-.127.034-.19.053q-.187.058-.365.131a5.685,5.685,0,0,0-.686.338,5.617,5.617,0,0,0-.636.424q-.153.118-.3.25c-.048.045-.095.09-.141.138a.106.106,0,1,0,.065.112c.065-.015.127-.034.19-.052q.187-.058.365-.131a5.623,5.623,0,0,0,.686-.339,5.713,5.713,0,0,0,.636-.425q.152-.118.3-.25c.048-.045.095-.09.141-.138" transform="translate(-1174.656 -492.001)" fill="#252425"/>
      <path id="Path_138" data-name="Path 138" d="M1220.392,682.952a2.874,2.874,0,0,0-.986-.407,2.246,2.246,0,0,0-.273-.038c-.047,0-.094-.005-.142-.005a.082.082,0,1,0-.05.12c.034.034.069.066.1.1a2.244,2.244,0,0,0,.22.165,2.77,2.77,0,0,0,.474.249,2.8,2.8,0,0,0,.512.157,2.251,2.251,0,0,0,.273.038c.047,0,.094.006.142.005a.082.082,0,1,0,.049-.119c-.034-.034-.069-.066-.1-.1a2.255,2.255,0,0,0-.22-.165" transform="translate(-1187.293 -664.835)" fill="#252425"/>
      <path id="Path_139" data-name="Path 139" d="M1584.776,306.448c.019.386.032.772.044,1.157l.014.579.008.579c0,.386,0,.772,0,1.157l0,.157.162,0c.648.009,1.3.032,1.951.066q.49.025.984.057l.991.059c.663.04,1.328.071,1.992.086s1.325.013,1.98,0c1.312-.023,2.612-.069,3.883-.134.635-.033,1.263-.07,1.882-.112.309-.021.616-.043.919-.067s.6-.049.9-.078l.1-1.1c.032-.377.067-.761.1-1.152q.024-.293.046-.592t.042-.6c.027-.4.049-.81.069-1.219l.018-.371-.409-.02q-1.93-.1-3.86-.138c-1.287-.029-2.573-.037-3.86-.017-.322,0-.643.009-.965.017l-.965.021-1.93.046q-.965.023-1.93.072l-.965.051-.965.055-.3.017.015.266c.021.386.043.771.06,1.157m2.153-.767q.965.048,1.93.072l1.93.045.965.021c.322.007.643.012.965.017,1.287.021,2.573.013,3.86-.017q1.746-.041,3.493-.12c.014.228.029.457.046.688q.019.276.042.557t.046.565l.1,1.162q.05.593.1,1.212c-.35-.03-.693-.054-1.033-.078s-.677-.046-1.011-.067c-.669-.042-1.327-.079-1.979-.112-1.3-.065-2.576-.111-3.838-.134-.631-.013-1.257-.015-1.88,0s-1.244.045-1.868.086l-.94.059q-.471.031-.946.057-.871.048-1.752.063,0-.5,0-.995l.008-.579.014-.579c.012-.386.025-.771.044-1.157.013-.286.028-.572.044-.858l.7.04Z" transform="translate(-1543.681 -296.845)" fill="#252425"/>
      <path id="Path_140" data-name="Path 140" d="M1582.659,659.679q1.6.035,3.2,0c.533-.01,1.066-.024,1.6-.039l1.6-.044q.8-.025,1.6-.071l.8-.05.8-.053.3-.02-.017-.264c-.025-.386-.049-.771-.069-1.157s-.035-.771-.044-1.157c-.019-.771-.023-1.543,0-2.314l.006-.169-.18-.006c-.538-.018-1.078-.049-1.624-.087s-1.094-.078-1.647-.113-1.107-.057-1.659-.064q-.414-.006-.825,0c-.274,0-.547.009-.819.015-1.09.026-2.168.073-3.218.138-.526.031-1.043.069-1.552.11s-1.009.085-1.489.14l-.11,1.094c-.037.375-.074.759-.109,1.151s-.067.792-.1,1.2c-.014.2-.028.406-.04.61l-.033.614-.021.4.445.022q1.6.08,3.2.115m-1.453-4.992c.557.04,1.106.078,1.647.11,1.083.065,2.137.112,3.18.138.261.006.521.012.78.015s.517,0,.774,0c.515-.007,1.026-.031,1.54-.064s1.031-.074,1.552-.113c.466-.034.935-.062,1.406-.08.02.711.016,1.422,0,2.133-.009.386-.026.771-.044,1.157q-.022.428-.049.856l-.536-.035-.8-.05q-.8-.046-1.6-.071l-1.6-.044c-.533-.014-1.066-.029-1.6-.039q-1.6-.034-3.2,0-1.4.03-2.8.1l-.006-.1c-.012-.182-.026-.364-.04-.547-.028-.367-.061-.739-.1-1.118l-.109-1.163-.11-1.22c.586.055,1.151.1,1.71.14" transform="translate(-1538.142 -637.138)" fill="#252425"/>
      <path id="Path_141" data-name="Path 141" d="M1596.3,1026.181l-.162,0c-.644-.009-1.289-.032-1.938-.067q-.487-.026-.978-.057l-.984-.059c-.658-.04-1.32-.07-1.98-.085s-1.316-.013-1.968,0c-1.3.023-2.595.069-3.858.134-.631.033-1.255.07-1.869.112-.307.021-.612.043-.912.067s-.6.048-.891.078l-.1,1.1c-.032.377-.067.76-.1,1.152q-.025.293-.046.592l-.022.3-.02.3c-.027.4-.049.81-.069,1.219l-.018.372.41.02q1.918.095,3.835.137c1.279.029,2.557.037,3.835.016.32-.005.639-.01.959-.017l.959-.021,1.918-.046q.959-.023,1.918-.072l.959-.051.959-.055.3-.017-.015-.266c-.021-.386-.043-.771-.061-1.157s-.032-.771-.044-1.157l-.013-.579-.008-.579c0-.386,0-.771,0-1.157Zm-2.08,4.4q-.959-.048-1.918-.072l-1.918-.046-.959-.021c-.32-.007-.639-.012-.959-.017-1.278-.021-2.557-.013-3.835.016q-1.733.041-3.467.12-.021-.341-.046-.686l-.02-.277-.022-.279q-.022-.28-.046-.565l-.1-1.162q-.05-.593-.1-1.213c.348.03.689.054,1.027.078s.673.046,1.005.067c.664.042,1.318.078,1.966.112,1.294.065,2.56.111,3.813.134.627.013,1.249.015,1.868,0s1.236-.045,1.856-.085l.933-.059q.468-.031.94-.057.865-.048,1.739-.064.005.5,0,.994l-.008.579-.013.579c-.012.386-.025.771-.044,1.157-.013.286-.028.572-.044.858l-.692-.04Z" transform="translate(-1539.475 -999.345)" fill="#252425"/>
      <path id="Path_142" data-name="Path 142" d="M1748.467,5.645l.283.161q.283.158.561.3c.185.1.368.191.547.28s.355.174.526.252c.293-.065.593-.151.9-.243s.608-.193.916-.3c.615-.216,1.238-.46,1.859-.725.31-.133.621-.268.928-.419s.609-.315.907-.488c.6-.346,1.167-.723,1.753-1.044l.293-.16-.263-.161c-.333-.2-.654-.423-.968-.654s-.62-.471-.92-.721-.592-.51-.886-.769-.588-.516-.889-.764L1753.774,0l-.292.219c-.237.177-.469.359-.7.543l-.694.55c-.231.184-.462.367-.69.555s-.455.376-.678.568c-.446.386-.88.786-1.306,1.2s-.846.825-1.257,1.253l-.357.372.385.225Zm1.608-1.25c.467-.362.926-.733,1.372-1.119.223-.193.444-.389.661-.589s.433-.4.649-.6l.645-.607q.213-.2.423-.4c.232.137.466.271.7.4.34.193.682.384,1.016.587s.661.413.981.635q.34.236.668.49c-.515.185-1.036.34-1.539.516-.3.106-.6.219-.887.347s-.578.27-.865.415c-.575.292-1.148.6-1.728.944q-.435.253-.878.532c-.3.186-.594.378-.9.592q-.239-.238-.466-.459c-.152-.147-.3-.291-.445-.431s-.289-.275-.431-.406l-.045-.041q.541-.4,1.069-.807" transform="translate(-1702.557 0.002)" fill="#252425"/>
      <path id="Path_143" data-name="Path 143" d="M2327.411,329.328q.579,0,1.157.008t1.157.015l.176,0,0-.182c.024-1.546.07-3.091.122-4.637l.074-2.319.032-1.159c.009-.386.019-.773.026-1.159q.046-2.319.031-4.637-.009-2.113-.04-4.226l1.18-.02,1.6-.035,1.6-.043c.535-.016,1.069-.032,1.6-.051l.27-.01-.008-.252c-.013-.4-.029-.8-.046-1.2s-.037-.791-.057-1.182l-.122-2.285-2.123-.083-2.151-.079q-2.162-.078-4.365-.146l-1.1-.032-1.105-.031c-.739-.018-1.479-.038-2.22-.052L2322,305.51l-1.115-.019-1.116-.017-1.116-.013-.527-.006-.005.538-.011,1.157-.008,1.157,0,1.157v1.715h.558l1.612,0,1.612-.01,1.612-.014,1.106-.012.048,4.12q.031,2.319.1,4.637l.127,4.637q.057,2.319.074,4.637v.163h.16q1.157-.009,2.314-.005m-2.314-19.217-1.612-.017-1.612-.014-1.612-.01-1.056,0v-.6l0-1.157-.008-1.157-.006-.632.533-.007,1.071-.017,1.071-.019,1.073-.022c.716-.014,1.434-.034,2.153-.052l1.081-.03,1.084-.032q2.172-.066,4.38-.146l2.222-.08,2.25-.083-.06,1.186-.062,1.157c-.019.381-.04.759-.057,1.133q-.02.425-.036.846-.676-.023-1.352-.043l-1.6-.043-1.6-.035-1.6-.028-.412-.007-.006.425q-.036,2.319-.045,4.637t.031,4.637c.007.386.018.773.026,1.159l.032,1.159.074,2.319c.05,1.487.094,2.974.119,4.461l-.976.012q-.579.005-1.157.007-1.076,0-2.152,0,.016-2.238.073-4.477l.127-4.637q.064-2.319.1-4.637l.054-4.637.006-.506Z" transform="translate(-2258.087 -297.548)" fill="#252425"/>
      <path id="Path_144" data-name="Path 144" d="M3125.272,306.448q.027.579.044,1.157l.014.579.008.579c0,.386,0,.772,0,1.157l0,.157.162,0c.648.009,1.3.032,1.951.066q.49.025.984.057l.991.059c.663.04,1.328.071,1.992.086s1.325.013,1.98,0c1.312-.023,2.612-.069,3.883-.134.635-.033,1.263-.07,1.882-.112.309-.021.616-.043.919-.067s.6-.049.9-.078l.1-1.1c.032-.377.067-.761.1-1.152q.025-.293.046-.592t.042-.6c.027-.4.049-.81.069-1.219l.018-.371-.409-.02q-1.93-.1-3.86-.138c-1.287-.029-2.573-.037-3.86-.017-.322,0-.644.009-.965.017l-.965.021-1.93.046q-.965.023-1.93.072l-.965.051-.965.055-.3.017.015.266c.021.386.043.771.061,1.157m2.153-.767q.965.048,1.93.072l1.93.045.965.021c.322.007.643.012.965.017,1.287.021,2.573.013,3.86-.017q1.746-.041,3.493-.12.021.342.045.688.019.276.042.557t.046.565l.1,1.162q.05.593.1,1.212c-.35-.03-.693-.054-1.033-.078s-.677-.046-1.011-.067c-.669-.042-1.327-.079-1.979-.112-1.3-.065-2.576-.111-3.838-.134-.631-.013-1.257-.015-1.88,0s-1.244.045-1.868.086l-.939.059q-.471.031-.946.057-.872.048-1.751.063c0-.332,0-.663,0-.995l.008-.579.014-.579c.012-.386.025-.771.044-1.157.013-.286.028-.572.044-.858l.7.04Z" transform="translate(-3044.301 -296.845)" fill="#252425"/>
      <path id="Path_145" data-name="Path 145" d="M3123.154,659.679q1.6.035,3.2,0c.533-.01,1.066-.024,1.6-.039l1.6-.044q.8-.025,1.6-.071l.8-.05.8-.053.3-.02-.017-.264c-.025-.386-.049-.771-.069-1.157s-.036-.771-.044-1.157c-.019-.771-.023-1.543,0-2.314l.006-.169-.18-.006c-.538-.018-1.079-.049-1.624-.087s-1.094-.078-1.647-.113-1.107-.057-1.658-.064q-.414-.006-.825,0c-.274,0-.547.009-.82.015-1.09.026-2.168.073-3.218.138-.526.031-1.043.069-1.552.11s-1.009.085-1.489.14l-.11,1.094c-.037.375-.073.759-.109,1.151s-.067.792-.1,1.2c-.014.2-.028.406-.04.61l-.033.614-.021.4.446.022q1.6.08,3.2.115m-1.453-4.992c.557.04,1.106.078,1.647.11,1.083.065,2.137.112,3.18.138.261.006.521.012.78.015s.517,0,.774,0c.514-.007,1.026-.031,1.54-.064s1.031-.074,1.552-.113c.466-.034.935-.062,1.406-.08.02.711.016,1.422,0,2.133-.009.386-.026.771-.044,1.157q-.022.428-.049.856l-.536-.035-.8-.05q-.8-.046-1.6-.071l-1.6-.044c-.533-.014-1.066-.029-1.6-.039q-1.6-.034-3.2,0-1.4.03-2.8.1l-.006-.1c-.012-.182-.026-.364-.04-.547-.028-.367-.061-.739-.1-1.118l-.109-1.163-.11-1.22c.586.055,1.151.1,1.71.14" transform="translate(-3038.761 -637.138)" fill="#252425"/>
      <path id="Path_146" data-name="Path 146" d="M3129.918,1031.5l.959-.021,1.918-.045q.959-.023,1.918-.072l.959-.051.959-.055.3-.017-.015-.266c-.021-.386-.043-.771-.061-1.157s-.032-.771-.044-1.157l-.013-.579-.008-.579c0-.386,0-.771,0-1.157l0-.158-.162,0c-.644-.009-1.289-.032-1.938-.067q-.487-.026-.978-.057l-.985-.059c-.658-.04-1.32-.07-1.98-.085s-1.316-.013-1.968,0c-1.3.023-2.595.069-3.858.134-.631.033-1.255.07-1.869.112-.307.021-.612.043-.913.067s-.6.048-.891.078l-.1,1.1c-.032.377-.067.76-.1,1.152q-.025.293-.046.592l-.022.3-.02.3c-.027.4-.049.81-.069,1.219l-.018.372.41.02q1.917.095,3.835.137c1.279.029,2.557.037,3.835.016.32,0,.639-.01.959-.017m-4.794-1.057q-1.733.041-3.467.12-.021-.341-.046-.686l-.02-.277-.022-.279q-.022-.28-.046-.565l-.1-1.162q-.05-.593-.1-1.213c.348.03.689.054,1.027.078s.673.046,1.005.067c.664.042,1.318.078,1.966.112,1.294.065,2.56.111,3.813.134.627.013,1.249.015,1.868,0s1.236-.045,1.856-.085l.933-.059q.468-.031.94-.057.865-.048,1.739-.064c0,.332,0,.663,0,.994l-.008.579-.013.579c-.012.386-.025.771-.044,1.157-.013.286-.028.572-.044.858l-.692-.04-.959-.051q-.959-.048-1.918-.072l-1.918-.046-.959-.021c-.319-.007-.639-.012-.959-.017-1.279-.021-2.557-.013-3.835.016" transform="translate(-3040.095 -999.345)" fill="#252425"/>
      <path id="Path_147" data-name="Path 147" d="M3880.2,340.6h.352l2.463.007h3.337l-.369-.79-1.157-2.476-1.163-2.473-2.133-4.514a7.51,7.51,0,0,0,1.134-.761,7.394,7.394,0,0,0,1.281-1.347,7.261,7.261,0,0,0,1.359-3.416,7.334,7.334,0,0,0-.465-3.622l-.088-.212c-.03-.07-.064-.139-.1-.208-.062-.14-.137-.273-.209-.409l-.027-.05-.029-.049-.059-.1-.059-.1-.029-.049-.031-.048c-.085-.127-.166-.256-.259-.377a7.454,7.454,0,0,0-.583-.7l-.16-.163c-.027-.027-.053-.055-.08-.081l-.084-.077-.167-.154-.174-.147-.087-.073-.091-.069-.181-.138c-.062-.044-.125-.086-.187-.129l-.094-.064c-.031-.021-.064-.04-.1-.061l-.193-.12c-.065-.039-.132-.074-.2-.112-.131-.076-.268-.14-.4-.207-.034-.017-.068-.032-.1-.047l-.1-.045-.1-.045-.052-.023-.053-.02c-.141-.053-.281-.109-.426-.153-.072-.023-.143-.048-.216-.068l-.219-.059c-.036-.009-.073-.02-.109-.029l-.11-.024-.221-.047a7.492,7.492,0,0,0-.9-.111l-.112-.007c-.038,0-.075-.006-.113-.005l-.225,0h-.112l-.109,0-.218,0-1.746.022q-.873.01-1.746.017l-.873.007-.873,0q-1.745.009-3.491,0h-.156v.157q-.007,2.9-.058,5.795c-.032,1.931-.079,3.863-.121,5.794s-.082,3.863-.1,5.794-.031,3.863-.024,5.794l0,.466.463,0,2.314-.009,2.314-.015.444,0,0-.438q-.018-2.28-.055-4.564l-.042-2.29-.051-2.3q-.055-2.306-.12-4.641l-.136-4.718.858.029.848.032,1.667.062.822.026.2.006.1.005.1.01a2.108,2.108,0,0,1,.376.082,2.061,2.061,0,0,1,.67.358,2.123,2.123,0,0,1,.494.57,2.091,2.091,0,0,1,.261.7,2.166,2.166,0,0,1,0,.742,2.022,2.022,0,0,1-.256.685,1.99,1.99,0,0,1-.479.543,1.957,1.957,0,0,1-.637.331,2.012,2.012,0,0,1-.352.073c-.03,0-.06.007-.09.009l-.09,0h-.09l-.1,0-1.69-.03-.382-.007-.006.4-.037,2.314-.032,2.315v.1l.044.1,1.055,2.336,1.06,2.334,1.064,2.332,1.069,2.329Zm-1.348-5.41-1.106-2.312-1.069-2.224-.031-2.207-.031-1.933,1.3-.023.107,0,.121,0,.121-.011c.04,0,.08-.011.12-.016a2.691,2.691,0,0,0,.47-.118,2.6,2.6,0,0,0,1.73-2.123,2.7,2.7,0,0,0-.044-.938,2.609,2.609,0,0,0-.367-.858,2.582,2.582,0,0,0-.641-.669,2.5,2.5,0,0,0-1.287-.466l-.115-.005h-.114l-.218.006-.868.026-3.388.123c-.048,1.5-.092,3.024-.136,4.557s-.083,3.079-.12,4.633l-.051,2.338-.042,2.347q-.034,2.13-.051,4.267l-1.878-.012-1.849-.007q.007-2.666-.024-5.332c-.023-1.931-.061-3.863-.1-5.794s-.088-3.863-.12-5.794q-.049-2.819-.058-5.638,1.667,0,3.333,0l.873,0,.873.007q.873.006,1.746.017l1.746.022.218,0,.109,0,.106,0,.211.009c.035,0,.07.005.105.008l.1.01a6.765,6.765,0,0,1,.833.13l.2.052.1.026c.034.009.067.02.1.03l.2.062c.067.021.132.047.2.07.133.045.261.1.39.156l.048.02.047.023.094.045.094.045c.032.015.063.03.094.047.123.067.247.13.365.205.059.037.12.071.178.11l.173.117c.029.02.058.038.086.059l.084.063c.056.042.112.083.167.126l.161.133.081.066.077.07.155.14.148.147.074.074c.024.025.047.051.07.077l.14.154a6.842,6.842,0,0,1,.505.66c.08.113.15.233.222.351l.027.044.025.046.05.091.05.091.025.045.023.047c.06.125.123.247.175.375.026.064.055.126.08.191l.072.194c.012.032.025.064.035.1l.031.1.062.2.052.2.026.1c.008.033.014.067.022.1l.043.2c.014.067.023.135.034.2l.016.1.008.051.006.051.022.2c.009.068.011.137.016.205l.012.205v.308c0,.034,0,.068,0,.1,0,.068,0,.137-.008.205l-.014.2-.022.2c-.007.068-.019.135-.028.2a6.9,6.9,0,0,1-.172.8,6.282,6.282,0,0,1-.271.77,6.484,6.484,0,0,1-1.953,2.564,6.56,6.56,0,0,1-1.387.836l-.449.2.206.454,2.26,4.977,1.135,2.486.778,1.694h-1.6l-2.116.006-.946-2Z" transform="translate(-3768.348 -308.43)" fill="#252425"/>
      <path id="Path_148" data-name="Path 148" d="M1601.149,1263.4h-.206l-.157.142-2.423,2.188-2.416,2.2-2.409,2.2-2.048,1.883-4.509-4.038-2.438-2.182q-1.219-1.09-2.441-2.177l-.13-.116-.164,0-1.587.018-.425.005.005.415c.023,1.932.057,3.863.089,5.794s.069,3.863.1,5.795.051,3.863.063,5.794.018,3.863.011,5.795v.157h.158q2.314.007,4.629.037l.192,0,0-.2.026-1.773.03-1.773.07-3.546.068-3.546.028-1.773.01-.776.925.855q.827.761,1.656,1.518l1.663,1.511,1.667,1.507.31.28.3-.28,1.653-1.522,1.65-1.525,1.647-1.529,1.025-.957.014.95.033,1.8q.037,1.8.083,3.583l.1,3.542.1,3.489,1.144.037,1.16.04,1.175.038c.394.012.79.023,1.186.032l.18,0,0-.189q.072-2.9.126-5.795t.1-5.794l.039-2.9.033-2.9.028-2.9.023-2.9,0-.526-.533,0Zm-.647,23.6-1.154.04-1.171.037.2-7.153q.046-1.764.083-3.51l.033-1.745.026-1.741.013-.849-.643.571-1.68,1.492-1.676,1.5-1.673,1.5-1.36,1.224-1.352-1.24-1.66-1.515q-.831-.756-1.667-1.507t-1.674-1.5l-.749-.667.013.992.023,1.773.028,1.773.068,3.546.07,3.546.031,1.773.023,1.58q-2.137.026-4.274.034-.008-2.818.012-5.636.018-2.9.063-5.794t.1-5.795q.045-2.685.083-5.369l1,.012q1.139,1.057,2.282,2.108l2.406,2.216,4.814,4.43.356.328.364-.328,2.424-2.187,2.418-2.194,2.411-2.2,2.253-2.07.884-.005.019,2.365.028,2.9.033,2.9.039,2.9q.04,2.9.1,5.794.054,2.808.122,5.615-.469.012-.94.027Z" transform="translate(-1538.901 -1230.697)" fill="#252425"/>
      <path id="Path_149" data-name="Path 149" d="M2633.8,1262.785c-1.287-.029-2.573-.037-3.86-.017-.322.005-.643.01-.965.017l-.965.021-1.93.046q-.965.023-1.93.072l-.965.052-.965.055-.3.017.015.266c.021.386.043.771.061,1.157s.032.771.044,1.157l.014.579.008.579c0,.386,0,.771,0,1.157l0,.157.162,0c.648.009,1.3.032,1.951.066q.49.025.984.057l.99.059c.663.04,1.329.071,1.992.086s1.325.013,1.98,0c1.312-.023,2.612-.069,3.883-.134.635-.034,1.264-.07,1.882-.112.309-.021.616-.043.918-.067s.6-.049.9-.078l.1-1.1c.032-.377.067-.761.1-1.152q.025-.293.046-.592t.042-.6c.027-.4.049-.81.069-1.219l.018-.371-.409-.02q-1.93-.1-3.86-.138m2.791,5.043c-.341-.024-.677-.046-1.011-.067-.669-.042-1.327-.079-1.979-.112-1.3-.065-2.576-.111-3.838-.134-.631-.013-1.257-.015-1.88,0s-1.244.046-1.868.086l-.939.059q-.471.031-.946.057c-.581.032-1.166.053-1.751.063,0-.332,0-.663,0-.995l.008-.579.013-.579c.012-.386.026-.771.044-1.157q.019-.429.044-.859l.7.04.965.052q.965.047,1.93.072l1.93.046.965.021c.322.007.643.012.965.017,1.287.021,2.573.013,3.86-.017q1.747-.041,3.493-.12c.014.228.028.457.045.688q.019.276.042.557t.046.565l.1,1.162q.05.593.1,1.212c-.35-.03-.693-.054-1.033-.078" transform="translate(-2554.05 -1230.07)" fill="#252425"/>
      <path id="Path_150" data-name="Path 150" d="M2619.876,1617.7q1.6.034,3.2,0c.533-.01,1.066-.024,1.6-.039l1.6-.044q.8-.025,1.6-.071l.8-.05.8-.053.3-.02-.017-.264c-.025-.386-.049-.771-.069-1.157s-.036-.771-.044-1.157c-.019-.771-.022-1.543,0-2.315l.006-.169-.18-.006c-.538-.018-1.079-.049-1.624-.087s-1.094-.078-1.647-.113-1.107-.057-1.658-.064q-.414-.006-.825,0c-.274,0-.547.009-.819.015-1.09.026-2.168.073-3.218.138-.525.031-1.043.069-1.552.11s-1.009.085-1.489.14l-.11,1.094c-.037.375-.074.759-.109,1.151s-.067.792-.1,1.2c-.013.2-.028.406-.039.61l-.033.615-.021.4.445.022q1.6.08,3.2.115m-1.453-4.992c.557.04,1.106.078,1.647.11,1.083.065,2.137.112,3.18.138.261.007.521.012.78.015s.517,0,.774,0c.515-.007,1.026-.031,1.541-.064s1.031-.074,1.552-.113c.466-.034.935-.062,1.406-.08.021.711.017,1.422,0,2.133-.009.386-.026.771-.044,1.157q-.022.428-.049.856l-.536-.036-.8-.05q-.8-.046-1.6-.071l-1.6-.044c-.533-.014-1.066-.028-1.6-.039q-1.6-.034-3.2,0-1.4.03-2.8.1l-.006-.1c-.012-.181-.026-.364-.04-.547-.028-.367-.061-.739-.1-1.118l-.109-1.163-.11-1.22c.586.055,1.151.1,1.71.14" transform="translate(-2548.511 -1570.365)" fill="#252425"/>
      <path id="Path_151" data-name="Path 151" d="M2633.577,1987.836c-.019-.386-.032-.771-.044-1.157l-.013-.579-.008-.579c0-.386,0-.771,0-1.157l0-.158-.162,0c-.644-.009-1.289-.032-1.939-.067q-.487-.026-.978-.057l-.984-.059c-.659-.04-1.32-.07-1.98-.085s-1.316-.013-1.968,0c-1.3.023-2.595.069-3.858.134-.631.033-1.255.07-1.869.112-.307.021-.612.043-.913.067s-.6.049-.891.078l-.1,1.1c-.033.377-.067.76-.1,1.152q-.025.293-.046.592l-.022.3-.02.3c-.027.4-.049.81-.069,1.219l-.018.372.41.02q1.917.095,3.835.137c1.278.029,2.557.037,3.835.016.32,0,.639-.009.959-.017l.959-.021,1.918-.045q.959-.023,1.917-.072l.959-.052.959-.055.3-.017-.015-.266c-.021-.386-.043-.771-.061-1.157m-2.141.767q-.959-.048-1.917-.072l-1.918-.045-.959-.021c-.32-.007-.639-.012-.959-.017-1.279-.021-2.557-.013-3.835.016q-1.734.041-3.467.12c-.014-.228-.028-.456-.046-.686l-.02-.277-.022-.279q-.022-.28-.046-.565l-.1-1.162q-.05-.593-.1-1.213c.348.029.689.054,1.027.078s.673.046,1.005.067c.664.042,1.318.079,1.966.112,1.294.065,2.56.111,3.813.134.627.013,1.249.015,1.868,0s1.236-.045,1.856-.085l.933-.059q.468-.031.94-.057.865-.048,1.739-.064.005.5,0,.994l-.008.579-.013.579c-.012.386-.026.771-.044,1.157-.013.286-.028.572-.044.858l-.692-.04Z" transform="translate(-2549.845 -1932.572)" fill="#252425"/>
      <path id="Path_152" data-name="Path 152" d="M3400.58,1274.421l0-.262-.252,0q-2.372.044-4.745.071c-.791.01-1.582.015-2.372.021l-2.372.009q-2.372,0-4.745-.02t-4.745-.076l-.246-.005-.006.257-.1,4.331-.008.34.355.008,1.339.03,1.339.026,1.339.022,1.339.018q1.339.015,2.678.021.883,0,1.766,0-1.323,1.826-2.638,3.658-1.58,2.2-3.146,4.419t-3.114,4.443q-1.547,2.229-3.07,4.475l-.021.031v.03c.008.233.019.465.031.692l.037.667,5,.138q2.521.068,5.076.13t5.131.108l2.579.042,2.583.033.482.006.005-.493.022-2.149.019-2.149,0-.525-.532,0-3.025-.019-3.025-.009q-1.513,0-3.025,0l-1.964.009.964-1.335,1.587-2.2,3.171-4.407q1.584-2.2,3.15-4.423l3.124-4.442.056-.08,0-.087Zm-3.776,5.508q-1.641,2.163-3.265,4.339l-3.243,4.355-1.621,2.178-1.618,2.18-.635.856,1.072,0,3.025.013q1.513,0,3.025,0l3.025-.009,2.5-.016.014,1.618.017,1.668-2.008.026-2.5.042q-2.509.047-5.036.108l-5.091.13-5.165.137c.011-.223.025-.442.037-.655s.021-.4.03-.593q1.67-2.121,3.309-4.263t3.284-4.319q1.635-2.165,3.252-4.343t3.223-4.363l.541-.737-.917,0q-1.339,0-2.678,0t-2.678.021l-1.339.018-1.339.022-1.339.026-1,.022-.083-3.73q2.244-.046,4.488-.071,2.372-.025,4.745-.02l2.372.009c.791.006,1.582.011,2.372.021q2.241.024,4.483.067l-.019,1.005Z" transform="translate(-3291.686 -1241.177)" fill="#252425"/>
      <path id="Path_153" data-name="Path 153" d="M4337.007,1254.2c-.14-.372-.3-.739-.472-1.1s-.366-.71-.574-1.053a12.363,12.363,0,0,0-1.446-1.929,11.878,11.878,0,0,0-1.817-1.614,11.6,11.6,0,0,0-2.124-1.212,12.131,12.131,0,0,0-9.583-.037,12.511,12.511,0,0,0-5.557,4.668c-.055.086-.111.171-.164.258s-.107.173-.157.262q-.153.264-.293.536a11.686,11.686,0,0,0-.5,1.112,11.808,11.808,0,0,0-.385,1.155c-.107.391-.195.787-.263,1.186a12.211,12.211,0,0,0-.166,2.41,12.715,12.715,0,0,0,.3,2.384c.088.39.192.776.316,1.156s.265.753.422,1.119a13.146,13.146,0,0,0,6.547,6.693,12.165,12.165,0,0,0,2.288.781,11.8,11.8,0,0,0,1.2.214,11.989,11.989,0,0,0,1.215.089,11.52,11.52,0,0,0,4.768-.923,11.41,11.41,0,0,0,2.126-1.193,11.3,11.3,0,0,0,.953-.756,11.58,11.58,0,0,0,.867-.848,12.267,12.267,0,0,0,1.448-1.925q.312-.513.574-1.052c.175-.358.332-.725.471-1.1a13.215,13.215,0,0,0,.008-9.286m-.25,9.186a11.2,11.2,0,0,1-.539,1.031,11.468,11.468,0,0,1-.641.966,11.936,11.936,0,0,1-1.539,1.71q-.423.388-.878.734t-.937.649a12.776,12.776,0,0,1-2.019,1.032,12.478,12.478,0,0,1-2.164.654,12.647,12.647,0,0,1-2.25.253c-.379.008-.758,0-1.137-.027s-.757-.07-1.133-.131a11.627,11.627,0,0,1-2.212-.589,11.125,11.125,0,0,1-5.958-5.245,11.034,11.034,0,0,1-.487-1.054,11.027,11.027,0,0,1-.631-2.226,11.415,11.415,0,0,1-.161-2.3,11.855,11.855,0,0,1,.294-2.272q.128-.557.311-1.1c.119-.361.258-.714.411-1.061a11.94,11.94,0,0,1,2.568-3.7,11.679,11.679,0,0,1,3.752-2.452,11.807,11.807,0,0,1,2.15-.64,11.95,11.95,0,0,1,2.232-.222q.563,0,1.123.048c.373.034.745.085,1.114.154a11.888,11.888,0,0,1,2.162.624,12.472,12.472,0,0,1,3.839,2.386,11.527,11.527,0,0,1,2.721,3.7,10.85,10.85,0,0,1,.739,2.212,10.953,10.953,0,0,1,.006,4.654,10.771,10.771,0,0,1-.737,2.214" transform="translate(-4201.846 -1214.024)" fill="#252425"/>
      <path id="Path_154" data-name="Path 154" d="M4521.327,1436.487l-.008-.046-.017-.092-.034-.184c-.01-.062-.026-.122-.04-.183l-.043-.182c-.013-.061-.033-.12-.05-.181l-.053-.18c-.016-.061-.039-.119-.059-.178l-.063-.177c-.02-.06-.046-.117-.069-.175l-.071-.174-.018-.043-.02-.043-.041-.085-.082-.17-.02-.043-.022-.042-.044-.083-.09-.166c-.015-.028-.031-.055-.047-.082l-.049-.081-.1-.161a7.675,7.675,0,0,0-3.424-2.913,7.42,7.42,0,0,0-5.943.037,6.974,6.974,0,0,0-2.4,1.79,7.561,7.561,0,0,0-.853,1.21l-.088.162-.044.081c-.015.027-.029.053-.042.081l-.081.165-.04.082-.02.041-.018.042-.073.168-.036.083-.018.042-.016.043-.064.17c-.021.057-.045.112-.062.17a8.525,8.525,0,0,0-.473,2.825,8.649,8.649,0,0,0,.481,2.822c.018.058.042.113.063.17l.064.17.016.043.018.042.036.083.073.167.018.042.02.041.04.082.08.165c.013.028.028.054.042.081l.044.08.088.161a7.433,7.433,0,0,0,.855,1.205l.253.274c.089.087.178.174.269.26s.187.167.283.246.2.156.3.231a6.711,6.711,0,0,0,1.306.75,6.864,6.864,0,0,0,2.947.558l.376-.023c.125-.012.249-.028.373-.042.031,0,.062-.009.093-.015l.093-.016.185-.032c.123-.023.244-.054.365-.082a7.473,7.473,0,0,0,1.4-.507,8.346,8.346,0,0,0,3.971-4.117,8.05,8.05,0,0,0,.673-2.838,7.5,7.5,0,0,0-.075-1.482Zm-.556,2.9-.006.043-.008.042-.016.085-.033.17c-.01.057-.026.112-.039.168l-.041.168c-.013.056-.032.111-.048.166l-.051.166c-.034.11-.077.218-.117.327a6.331,6.331,0,0,1-3.868,3.722,6.927,6.927,0,0,1-1.32.315l-.168.02-.083.01-.042.005-.042,0c-.112.007-.224.018-.336.023s-.224.008-.335.01l-.335-.005a7.909,7.909,0,0,1-2.6-.542,8.113,8.113,0,0,1-1.2-.589c-.049-.028-.094-.06-.142-.089l-.142-.09-.278-.191-.27-.2-.262-.216a7.087,7.087,0,0,1-.946-.99l-.1-.138-.052-.069c-.018-.023-.035-.046-.05-.07l-.1-.144-.049-.072-.024-.036-.023-.037-.089-.149-.044-.075-.022-.037-.021-.038-.082-.154c-.027-.052-.056-.1-.08-.156a6.177,6.177,0,0,1-.463-1.322,6.27,6.27,0,0,1-.155-1.4,6.346,6.346,0,0,1,.161-1.4,6.191,6.191,0,0,1,.466-1.32,6.709,6.709,0,0,1,1.685-2.159,7.686,7.686,0,0,1,2.3-1.35,7.213,7.213,0,0,1,1.27-.35l.163-.026.081-.013.041-.007.041,0c.109-.011.218-.026.327-.035l.328-.02.329-.005a7.268,7.268,0,0,1,1.305.131,7.113,7.113,0,0,1,1.259.367,6.864,6.864,0,0,1,2.21,1.415,7.138,7.138,0,0,1,1.532,2.163l.067.154c.022.051.047.1.066.154l.061.156c.02.052.042.1.059.158l.054.16c.018.053.038.106.052.16l.046.162.023.081.012.041.009.041a7.163,7.163,0,0,1,.2,1.344,6.753,6.753,0,0,1-.069,1.371" transform="translate(-4389.938 -1393.199)" fill="#252425"/>
      <path id="Path_155" data-name="Path 155" d="M4602.869,967.02l.158-.018.157-.02q.157-.02.31-.042c.205-.028.405-.061.6-.093s.385-.068.568-.106c.2-.2.394-.411.587-.633s.382-.454.571-.692c.375-.477.743-.978,1.1-1.5.176-.26.353-.521.518-.792s.321-.551.467-.836c.292-.571.545-1.157.835-1.707l.173-.328-.338.028c-.388.032-.777.044-1.166.039s-.777-.023-1.166-.054-.777-.077-1.166-.119-.777-.082-1.166-.108l-.3-.021-.118.343-.065.191-.062.192c-.042.128-.083.256-.124.384l-.246.768c-.163.512-.323,1.025-.461,1.543s-.264,1.041-.375,1.566-.217,1.053-.308,1.585l-.092.537.47-.043c.217-.02.432-.041.644-.066m.269-1.746c.169-.51.327-1.024.468-1.542s.263-1.041.381-1.565l.176-.786c.029-.131.06-.262.087-.393l.022-.1c.268-.023.536-.05.8-.08.389-.043.777-.088,1.166-.119s.777-.051,1.166-.054q.393,0,.786.015c-.3.383-.624.749-.917,1.125-.183.233-.354.471-.517.718s-.314.5-.465.762c-.3.518-.59,1.052-.871,1.612-.14.28-.277.567-.413.862s-.27.6-.4.921c-.22-.038-.432-.073-.639-.106s-.409-.065-.605-.093l-.293-.042-.145-.02-.143-.018-.026,0q.2-.544.376-1.092" transform="translate(-4482.639 -935.171)" fill="#252425"/>
      <path id="Path_156" data-name="Path 156" d="M4887.717,967.02l.158-.018.157-.02q.157-.02.311-.042c.205-.028.405-.061.6-.093s.386-.068.568-.106c.2-.2.394-.411.587-.633s.383-.454.571-.692c.375-.477.743-.978,1.1-1.5.176-.26.353-.521.518-.792s.321-.551.467-.836c.292-.571.545-1.157.835-1.707l.173-.328-.338.028c-.389.032-.777.044-1.166.039s-.777-.023-1.166-.054-.777-.077-1.166-.119-.777-.082-1.166-.108l-.3-.021-.118.343-.065.191-.062.192c-.042.128-.082.256-.124.384l-.246.768c-.162.512-.322,1.025-.461,1.543s-.264,1.041-.375,1.566-.217,1.053-.308,1.585l-.092.537.47-.043c.217-.02.432-.041.644-.066m.269-1.746c.169-.51.327-1.024.468-1.542s.263-1.041.381-1.565l.176-.786c.029-.131.06-.262.087-.393l.022-.1c.268-.023.536-.05.8-.08.388-.043.777-.088,1.166-.119s.777-.051,1.166-.054q.393,0,.786.015c-.3.383-.624.749-.917,1.125-.182.233-.354.471-.517.718s-.314.5-.465.762c-.3.518-.59,1.052-.87,1.612-.14.28-.278.567-.413.862s-.27.6-.4.921c-.22-.038-.432-.073-.639-.106s-.409-.065-.606-.093l-.293-.042-.145-.02-.143-.018-.026,0q.2-.544.376-1.092" transform="translate(-4760.113 -935.171)" fill="#252425"/>
    </g>
  </g>
</svg>
