<svg id="Component_5_1" data-name="Component 5 – 1" xmlns="http://www.w3.org/2000/svg" xmlns:xlink="http://www.w3.org/1999/xlink" width="28.794" height="28.799" viewBox="0 0 28.794 28.799">
  <defs>
    <clipPath id="clip-path">
      <rect id="Rectangle_8" data-name="Rectangle 8" width="28.794" height="28.799" fill="none"/>
    </clipPath>
  </defs>
  <g id="Group_12" data-name="Group 12" clip-path="url(#clip-path)">
    <path id="Path_28" data-name="Path 28" d="M28.72,8.467a10.532,10.532,0,0,0-.67-3.494A7.38,7.38,0,0,0,23.837.759,10.538,10.538,0,0,0,20.344.091C18.8.017,18.312,0,14.4,0S10,.017,8.466.085A10.538,10.538,0,0,0,4.973.754,7.026,7.026,0,0,0,2.419,2.42,7.085,7.085,0,0,0,.759,4.968,10.541,10.541,0,0,0,.09,8.461C.016,10,0,10.492,0,14.4s.016,4.4.084,5.935a10.528,10.528,0,0,0,.67,3.494,7.1,7.1,0,0,0,1.665,2.554,7.091,7.091,0,0,0,2.549,1.659,10.543,10.543,0,0,0,3.494.669c1.535.068,2.025.085,5.935.085s4.4-.016,5.935-.085a10.508,10.508,0,0,0,3.494-.669,7.368,7.368,0,0,0,4.215-4.214,10.579,10.579,0,0,0,.669-3.494c.068-1.536.084-2.025.084-5.935s-.006-4.4-.073-5.935M26.127,20.225a7.9,7.9,0,0,1-.495,2.673A4.78,4.78,0,0,1,22.9,25.632a7.923,7.923,0,0,1-2.672.494c-1.519.068-1.975.085-5.818.085s-4.3-.016-5.817-.085a7.885,7.885,0,0,1-2.672-.494,4.44,4.44,0,0,1-1.654-1.075A4.486,4.486,0,0,1,3.189,22.9a7.937,7.937,0,0,1-.494-2.672c-.068-1.519-.085-1.975-.085-5.817s.017-4.3.085-5.817a7.909,7.909,0,0,1,.494-2.673A4.381,4.381,0,0,1,4.27,4.27,4.469,4.469,0,0,1,5.924,3.2,7.932,7.932,0,0,1,8.6,2.7c1.519-.067,1.975-.084,5.817-.084s4.3.017,5.817.084A7.89,7.89,0,0,1,22.9,3.2,4.432,4.432,0,0,1,24.557,4.27a4.481,4.481,0,0,1,1.075,1.654A7.933,7.933,0,0,1,26.127,8.6c.068,1.519.084,1.974.084,5.817s-.016,4.292-.084,5.811" transform="translate(0 0)" fill="#050605"/>
    <path id="Path_29" data-name="Path 29" d="M17.22,9.821a7.4,7.4,0,1,0,7.4,7.4,7.4,7.4,0,0,0-7.4-7.4m0,12.2a4.8,4.8,0,1,1,4.8-4.8,4.8,4.8,0,0,1-4.8,4.8" transform="translate(-2.818 -2.818)" fill="#050605"/>
    <path id="Path_30" data-name="Path 30" d="M32.012,8.717A1.727,1.727,0,1,1,30.285,6.99a1.727,1.727,0,0,1,1.727,1.727" transform="translate(-8.192 -2.005)" fill="#050605"/>
  </g>
</svg>
