<svg id="Component_12_1" data-name="Component 12 – 1" xmlns="http://www.w3.org/2000/svg" xmlns:xlink="http://www.w3.org/1999/xlink" width="183.091" height="95.348" viewBox="0 0 183.091 95.348">
  <defs>
    <clipPath id="clip-path">
      <rect id="Rectangle_14" data-name="Rectangle 14" width="183.091" height="95.348" fill="none"/>
    </clipPath>
  </defs>
  <g id="Group_21" data-name="Group 21" clip-path="url(#clip-path)">
    <path id="Path_181" data-name="Path 181" d="M14.039,58.9A9.624,9.624,0,0,1,20.3,63.571a8.672,8.672,0,0,1,1.051,2.917c2.753-.123,5.067-1.168,6.18-2.839a5.037,5.037,0,0,0,.057-5.115l-.547-1.166,1.273-.2c2.4-.384,5.369-2.17,5.962-4.217.888-3.062.321-6-1.841-9.437a10.4,10.4,0,0,1-1.816.737c-2.99.891-6.206.349-9.572-1.611-.973,1.709-3.363,5.12-7.368,6.177a13.153,13.153,0,0,1-3.387.439,14.27,14.27,0,0,1-1.934-.138C4.246,50.543,4.2,56.765,5.326,59.958A15.662,15.662,0,0,1,14.039,58.9" transform="translate(-1.691 -15.351)" fill="#8c000c"/>
    <path id="Path_182" data-name="Path 182" d="M15.208,33.765c4.386-1.16,6.573-6.019,6.593-6.067l.461-1.048.959.624c3.195,2.085,6.175,2.739,8.858,1.944,4-1.186,6.3-5.273,6.847-6.362a14.472,14.472,0,0,1-1.693-4.33l1.891-.441c.735,3.15,2.073,5.214,3.979,6.133,2.751,1.325,5.893-.138,5.925-.153l.841,1.75a10.5,10.5,0,0,1-4.184.9,7.845,7.845,0,0,1-3.408-.743,7.439,7.439,0,0,1-2.043-1.451A16.184,16.184,0,0,1,36.1,29.3c1.679,2.653,3.385,6.454,2.062,11.014-.635,2.19-2.893,4-5.274,4.956,3.972,2.646,7.34,3.531,10.02,2.623,3.479-1.18,4.692-5.111,4.7-5.152l1.863.551c-.059.2-1.49,4.917-5.922,6.432a8.645,8.645,0,0,1-2.81.456c-2.562,0-5.439-1.029-8.6-3.075a6.323,6.323,0,0,1-.972,4.446,8.211,8.211,0,0,1-4.5,3.166,10.754,10.754,0,0,1,9.693,7.225,11.507,11.507,0,0,1,6.2-6.274,12.612,12.612,0,0,1,10.69.54V16.736c0-6.021-2.785-10.683-8.481-10.683s-9.192,4.791-9.97,7.121c-6.862-2.978-13.6,3.5-13.6,8.157C15.281,20.739,9.684,27.2,10.371,33.962a11.562,11.562,0,0,0,4.837-.2" transform="translate(-3.713 -2.179)" fill="#0f4916"/>
    <path id="Path_183" data-name="Path 183" d="M39.61,80.739a9.419,9.419,0,0,0-5.715,7.3l-.166,1.22-1.148-.446a9.739,9.739,0,0,0-7.537.393c-2.992,1.625-5.13,5.518-3.191,10.431,3.512-.886,6.94.521,9.59,3.885l.028-.024c3.228-2.5,7.487-2.308,11.686.54l-1.09,1.606c-3.456-2.344-6.885-2.567-9.4-.611a7.207,7.207,0,0,0-2.342,7.935l-1.828.658a9.208,9.208,0,0,1,1.563-8.728c-2.211-2.9-5.028-4.116-7.85-3.351a7.208,7.208,0,0,0-5.217,6.421l-1.94-.1a9.207,9.207,0,0,1,4.989-7.548c-2.244-5.751.23-10.733,4.08-12.824a11.724,11.724,0,0,1,6.894-1.086c-2.4-6.9-8.625-6.928-12.3-6.267l-1.627.294.537-1.565a5.4,5.4,0,0,0-.7-4.235,7.656,7.656,0,0,0-4.967-3.728c-3.27-.676-6.664.49-8.737,1.45C-.395,75.528-1.958,83.819,3.9,88.506c-2.719,4.921,3.237,10.1,4.4,10.877.13,9.322,8.676,14.631,13.726,13.725,4.921,9.451,27.515,13.466,27.515-7.446V81.7a10.939,10.939,0,0,0-9.933-.961" transform="translate(0 -25.46)" fill="#b87700"/>
    <path id="Path_184" data-name="Path 184" d="M134.617,26.514V46.189a.837.837,0,0,1-.886.886H124.4a.837.837,0,0,1-.886-.886V27.282c0-1.241-.413-1.89-1.241-1.89-.886,0-1.359.65-1.359,1.89V46.189a.838.838,0,0,1-.886.886h-9.336a.837.837,0,0,1-.886-.886V27.282c0-1.241-.414-1.89-1.241-1.89-.886,0-1.359.65-1.359,1.89V46.189a.837.837,0,0,1-.886.886H96.981a.837.837,0,0,1-.886-.886V17.238a.837.837,0,0,1,.886-.886h9.336a.793.793,0,0,1,.886.827v.236c0,.3.177.414.414.178a7.421,7.421,0,0,1,4.9-1.714c3.249,0,5.436,1.182,6.735,3.368.177.236.413.059.768-.414a7.389,7.389,0,0,1,6.2-2.954c5.968,0,8.39,4.077,8.39,10.635" transform="translate(-34.599 -5.717)" fill="#8c000c"/>
    <path id="Path_185" data-name="Path 185" d="M185.065,25.805V46.189a.837.837,0,0,1-.886.886h-9.336a.838.838,0,0,1-.886-.886V44.948c0-.3-.177-.355-.413-.118-1.24,1.714-3.131,2.659-5.968,2.719-3.367.059-8.33-.886-8.33-9.394,0-8.627,4.9-9.336,12.348-9.336H173.6a.313.313,0,0,0,.355-.354v-1.3a1.66,1.66,0,0,0-1.714-1.773,1.507,1.507,0,0,0-1.417,1.064c-.177.532-.413.827-.945.827l-9.454-.118a.792.792,0,0,1-.886-.827c.413-6.618,5.5-10.457,12.7-10.457,7.681,0,12.821,3.958,12.821,9.925M173.957,37.977v-1.6a.314.314,0,0,0-.355-.355h-1.181a1.817,1.817,0,0,0-1.832,1.891,1.479,1.479,0,0,0,1.477,1.654,1.812,1.812,0,0,0,1.89-1.6" transform="translate(-57.336 -5.718)" fill="#8c000c"/>
    <path id="Path_186" data-name="Path 186" d="M203.284,40.471V.885A.838.838,0,0,1,204.17,0h9.336a.837.837,0,0,1,.886.886V17.31c0,.355.3.414.415.059l2.717-6.085a.961.961,0,0,1,1-.65H228.1c.708,0,.945.473.59,1.064L222.073,22.51a.649.649,0,0,0,0,.472l7.208,17.371c.236.591-.059,1-.709,1H219a.945.945,0,0,1-1-.709l-2.718-8.39c-.118-.355-.3-.355-.413,0l-.355.827a1.4,1.4,0,0,0-.118.473v6.913a.837.837,0,0,1-.886.886H204.17a.838.838,0,0,1-.886-.886" transform="translate(-73.192 0)" fill="#252425"/>
    <path id="Path_187" data-name="Path 187" d="M261.918,16.618h9.335a.837.837,0,0,1,.886.886V46.456a.837.837,0,0,1-.886.886h-9.335a.838.838,0,0,1-.887-.886v-.237c0-.3-.177-.413-.413-.177-1.3,1.536-3.072,1.772-4.9,1.772-4.135,0-8.39-2.3-8.39-8.98V17.5a.838.838,0,0,1,.886-.886h9.336a.837.837,0,0,1,.886.886V36.411c0,1.241.413,1.891,1.241,1.891.886,0,1.359-.65,1.359-1.891V17.5a.838.838,0,0,1,.887-.886" transform="translate(-89.049 -5.983)" fill="#252425"/>
    <path id="Path_188" data-name="Path 188" d="M110.74,94.121h-2.481a.314.314,0,0,0-.355.355V105.82c0,1.536.769,1.832,1.832,1.773h.118a.837.837,0,0,1,.886.886v7.8a.837.837,0,0,1-.886.886h-2.836c-5.791,0-9.75-1-9.75-6.854V94.475a.34.34,0,0,0-.355-.355h-1.6a.837.837,0,0,1-.886-.886V87.326a.837.837,0,0,1,.886-.886h1.6a.313.313,0,0,0,.355-.355V79.763a.838.838,0,0,1,.886-.886h8.863a.837.837,0,0,1,.886.886v6.322a.341.341,0,0,0,.355.355h2.481a.838.838,0,0,1,.887.886v5.908a.838.838,0,0,1-.887.886" transform="translate(-34.001 -28.4)" fill="#252425"/>
    <path id="Path_189" data-name="Path 189" d="M149.334,99.882v20.384a.837.837,0,0,1-.886.886h-9.335a.838.838,0,0,1-.887-.886v-1.24c0-.3-.177-.355-.413-.118-1.24,1.714-3.131,2.659-5.967,2.718-3.368.059-8.331-.886-8.331-9.394,0-8.627,4.9-9.336,12.348-9.336h2.009a.313.313,0,0,0,.354-.354v-1.3a1.66,1.66,0,0,0-1.714-1.773,1.508,1.508,0,0,0-1.417,1.064c-.177.532-.413.827-.945.827l-9.453-.118a.792.792,0,0,1-.886-.827c.414-6.618,5.5-10.458,12.7-10.458,7.682,0,12.822,3.959,12.822,9.926m-11.108,12.171v-1.6a.313.313,0,0,0-.354-.354h-1.181a1.817,1.817,0,0,0-1.832,1.89,1.479,1.479,0,0,0,1.477,1.654,1.811,1.811,0,0,0,1.89-1.6" transform="translate(-44.471 -32.389)" fill="#252425"/>
    <path id="Path_190" data-name="Path 190" d="M182.2,94.121h-2.481a.314.314,0,0,0-.355.355V105.82c0,1.536.769,1.832,1.832,1.773h.118a.837.837,0,0,1,.886.886v7.8a.837.837,0,0,1-.886.886h-2.836c-5.791,0-9.75-1-9.75-6.854V94.475a.34.34,0,0,0-.355-.355h-1.6a.837.837,0,0,1-.886-.886V87.326a.837.837,0,0,1,.886-.886h1.6a.313.313,0,0,0,.355-.355V79.763a.838.838,0,0,1,.886-.886h8.863a.837.837,0,0,1,.886.886v6.322a.341.341,0,0,0,.355.355H182.2a.838.838,0,0,1,.887.886v5.908a.838.838,0,0,1-.887.886" transform="translate(-59.73 -28.4)" fill="#252425"/>
    <path id="Path_191" data-name="Path 191" d="M194.975,111.936v-.177a.838.838,0,0,1,.886-.887h8.862c.532,0,.886.118.886.355v.413a1.735,1.735,0,0,0,1.714,1.832,1.054,1.054,0,0,0,1.122-1.122c0-1.654-2.954-2.009-5.495-2.836-3.309-1.064-7.563-3.6-7.563-9.512,0-6.2,4.667-10.045,11.58-10.045,7.268,0,11.936,4.313,11.936,10.754,0,.354-.355.591-.886.591h-8.567c-.532,0-.887-.3-.887-.65v-.591c0-1-.59-1.536-1.3-1.536-.886,0-1.241.886-1.241,1.536,0,1.773,2.54,2.541,4.136,3.014,4.194,1.24,9.453,3.131,9.453,9.158,0,5.849-4.9,9.394-12.172,9.394-7.562,0-12.466-3.9-12.466-9.689" transform="translate(-70.201 -32.389)" fill="#252425"/>
    <path id="Path_192" data-name="Path 192" d="M235.044,120.533v-8.567a1.771,1.771,0,0,1,.355-1.064l7.149-9.749c.178-.236.06-.413-.237-.413h-5.967a.837.837,0,0,1-.886-.886V91.581a.837.837,0,0,1,.886-.886h18.848a.838.838,0,0,1,.886.886v8.567a1.763,1.763,0,0,1-.355,1.064l-7.68,9.749c-.178.236-.118.413.177.413h7.5a.837.837,0,0,1,.886.887v8.271a.837.837,0,0,1-.886.886H235.93a.837.837,0,0,1-.886-.886" transform="translate(-84.627 -32.655)" fill="#252425"/>
  </g>
</svg>
