<svg id="Component_8_1" data-name="Component 8 – 1" xmlns="http://www.w3.org/2000/svg" xmlns:xlink="http://www.w3.org/1999/xlink" width="116.976" height="82.418" viewBox="0 0 116.976 82.418">
  <defs>
    <clipPath id="clip-path">
      <rect id="Rectangle_10" data-name="Rectangle 10" width="116.976" height="82.418" fill="none"/>
    </clipPath>
  </defs>
  <g id="Group_15" data-name="Group 15" clip-path="url(#clip-path)">
    <path id="Path_35" data-name="Path 35" d="M33.715,29.164a13.864,13.864,0,0,1-.259-1.4,3.523,3.523,0,0,0-.211-.857,4.765,4.765,0,0,0-.36-.718c-.062-.115-.14-.22-.209-.332a3.738,3.738,0,0,1-.364-.621c-.062-.166-.154-.293-.3-.315-.292-.046-.323-.335-.5-.48a2.164,2.164,0,0,1-.3-.395l.508-.631c-.079-.071-.154-.146-.236-.214s-.192-.151-.292-.228c.01-.044.021-.1.038-.172l-.274.08c.017-.094.031-.174.054-.3l.488-.262c.036-.071.11-.152.1-.212-.068-.3.222-.37.359-.468.226-.16.324-.258.231-.533a.218.218,0,0,1,0-.148,2.133,2.133,0,0,0,.209-.77c0-.009.022-.016.034-.025l.054-.054c.031.058.061.117.094.173s.066.1.119.188a1.1,1.1,0,0,0,0-.194c-.036-.155-.075-.311-.12-.464-.037-.124-.11-.179-.285-.042.067-.1.094-.152.127-.2.162-.218.15-.331-.05-.527-.028-.028-.063-.074-.059-.107a1.592,1.592,0,0,0-.294-.9,7.082,7.082,0,0,0-1.2-1.7.422.422,0,0,1-.074-.108,1.784,1.784,0,0,0-.762-.9.392.392,0,0,1-.159-.144c-.176-.337-.542-.438-.827-.608a5.627,5.627,0,0,0-1.214-.429c-.117-.037-.263,0-.365-.057-.475-.256-.939-.531-1.407-.8-.134-.078-.269-.154-.458-.263l.2.316c-.125-.028-.21-.021-.25-.06A1.169,1.169,0,0,0,24.528,13c-.259.016-.521-.011-.783-.019-.009.183-.068.223-.261.117a5.685,5.685,0,0,0-.56-.328,10.4,10.4,0,0,0-.991-.333,1.017,1.017,0,0,0-.3,0c-.088,0-.176.014-.263.009s-.186-.024-.279-.039c-.148-.024-.3-.048-.442-.076a.667.667,0,0,1-.141.057,7.486,7.486,0,0,1-.88.166.534.534,0,0,1,.049.047c.151.167.291.344.434.517l-.2-.031.035-.03-.435-.485-.058.008-.3.1a3.724,3.724,0,0,1,.841,1.07,2.61,2.61,0,0,0-1.135-.98l-.049.016a1.3,1.3,0,0,0,.379.258.513.513,0,0,1,.356.4c-.273-.21-.549-.417-.816-.634-.318.1-.638.2-.946.323a3.389,3.389,0,0,1,.586.478,5.838,5.838,0,0,1,.483.658l-.056.041a5.009,5.009,0,0,0-.486-.563c-.219-.191-.448-.371-.679-.549-.106.045-.209.094-.311.145a3.5,3.5,0,0,1,1.011,1.337c-.254-.213-.318-.58-.673-.673l.663,1.085L18.3,15.1c-.12-.128-.286-.236-.351-.387a4.971,4.971,0,0,0-.773-.977l-.138-.188.039-.05.4.231.02-.024-.32-.306c-.113.062-.223.126-.328.2a.533.533,0,0,1-.134.066c-.022.02-.046.038-.069.055a7.739,7.739,0,0,1,1.545,1.5,6.027,6.027,0,0,1-1.55-1.493.655.655,0,0,1-.423.113c-.073.018-.152.037-.233.063.02-.047.034-.08.045-.105a.593.593,0,0,1-.329-.3,1.307,1.307,0,0,1-.335,0,3.367,3.367,0,0,0-.643.085c-.145.026-.31.135-.425.094a1.08,1.08,0,0,0-.558-.057,2.269,2.269,0,0,0-.673.145c-.352.163-.726.277-1.1.416-.126-.181-.284-.172-.457-.014l-.048-.031c.015-.116.03-.231.046-.35-.021.008-.044.011-.056.025-.085.1-.149.255-.253.288s-.26-.041-.393-.069l-.186-.038,0,0c-.067-.031-.145-.1-.193-.078-.308.118-.608.257-.911.388v0c-.2-.1-.22.124-.327.192a1.344,1.344,0,0,0-.6.785l-.056-.044c-.072.105-.12.259-.2.28A.463.463,0,0,0,8,15.833a.947.947,0,0,1-.163.2c.034-.457-.232-.939.172-1.266-.014-.107-.025-.191-.043-.316-.347.347-.685.672-1,1.016-.115.124-.187.27-.374.326-.1.031-.187.161-.255.262a2.519,2.519,0,0,0-.168.349c.013.062.065.157.044.231-.065.216-.163.422-.236.636a2.657,2.657,0,0,0-.067.35l-.129-.231-.27.134a.377.377,0,0,1-.108.491c-.019.016.021.108.041.163,0,.013.035.016.057.025.028-.058.053-.112.089-.19.147.163.073.284,0,.419l-.216-.151v.572l-.067.01a2.98,2.98,0,0,1-.245-.912c-.045.139-.112.3-.062.411a1.787,1.787,0,0,1,.029.776,1.183,1.183,0,0,0,.056.245c.016.07-.013.15,0,.221a.393.393,0,0,1-.11.376c-.108-.129-.214-.258-.324-.385-.055-.062-.116-.121-.186-.193-.019.191-.033.324-.049.482a1.278,1.278,0,0,0-.279-.11c-.036,0-.121.067-.116.09.051.257.115.512.175.76l-.246.117c.44.18.539.357.366.653a2.36,2.36,0,0,1-.634-.615c-.182-.3-.071-.587-.046-.885l-.11-.007c.064.246-.2.422-.077.686.057.125.092.333-.044.364-.247.056-.145.177-.118.3a.234.234,0,0,1-.014.074H3.083c-.039.272-.119.527.109.76.075.076.022.2-.124.191s-.3-.031-.484-.052c.039.132.067.225.094.317L2.631,22.5a.749.749,0,0,0-.152.191c-.067.188-.112.383-.165.576l-.048-.016c.035.09.07.179.109.28l-.424.067.2.087a.432.432,0,0,1-.035.136c-.107.156-.224.3-.328.461-.119.18-.3.356-.329.552a3.851,3.851,0,0,1-.542,1.376A7.971,7.971,0,0,0,.463,27.5a1.9,1.9,0,0,0-.053.39c-.031.251-.068.5-.092.752-.036.385-.049.772-.1,1.154a.679.679,0,0,0,.059.505.317.317,0,0,1,.049.2q-.15.828-.317,1.652c-.029.144,0,.258.14.3s.147.118.144.234a5.983,5.983,0,0,0,.334,1.848c.027.091.044.186.065.279a8.306,8.306,0,0,0,.236,1.072c.177.486.42.948.626,1.424.091.213.16.435.239.653l-.181.127a.99.99,0,0,1,.461.834.25.25,0,0,0,.048.122.475.475,0,0,1,.058.45.321.321,0,0,0,.029.2c.089.237.2.468.277.708s-.152.374-.209.569c-.048.163-.169.151-.252.068-.064-.065-.125-.219-.09-.278.066-.117.182-.068.264.029a.255.255,0,0,0,.046-.019,1.025,1.025,0,0,0-.064-.246,1.17,1.17,0,0,0-.29-.436,1,1,0,0,1-.358-.42,2.551,2.551,0,0,0-.991-1.093c-.273-.16-.452-.071-.457.243a5.229,5.229,0,0,0,.043.856,2.326,2.326,0,0,0,.22.8,3.056,3.056,0,0,1,.31.654.21.21,0,0,0,.072.083c.084.068.17.134.258.2.051.036.129.1.157.087a.29.29,0,0,0,.11-.167c.1-.383.193-.767.3-1.207.069.107.1.149.123.193.179.308.048.65.1.972.027.16,0,.328.015.493s-.022.4.069.519a4.953,4.953,0,0,0,.64.618c.142.321-.138.672.044,1.009a.608.608,0,0,0,.06-.308c-.008-.131.039-.174.158-.139a2.792,2.792,0,0,1,.025.287c0,.071-.042.141-.039.211.014.31.295.568.181.907,0,.014.013.044.03.056.108.077.079.164.044.27a.358.358,0,0,0,.017.233c.108.255.234.5.345.757a.505.505,0,0,1,0,.174c.163.083.388.466.315.652-.041.106-.195.176-.309.241-.025.015-.1-.057-.191-.113l.3-.117c-.26-.06-.483.419-.7-.009l-.241.19a1.891,1.891,0,0,0,.5.359,3.638,3.638,0,0,0,.986.128c.211,0,.216.054.2.219a5.33,5.33,0,0,0-.017.606c0,.174.026.347.026.521,0,.125-.03.245.124.314.026.011.022.129.007.192a.473.473,0,0,0,.025.41,1.509,1.509,0,0,1,.31.776,1.891,1.891,0,0,0,.08.526,1.838,1.838,0,0,1,.2.585,1.979,1.979,0,0,0,.317.706c.044.089.1.17.153.256.12.209.247.413.351.629.029.058-.014.152-.029.267l.073.032A2.056,2.056,0,0,0,6,54.262c.225.381.471.751.728,1.111.131.183.124.466.393.55a.048.048,0,0,1,.016.037c-.124.185.107.149.121.241a3.118,3.118,0,0,0,.1.471.3.3,0,0,1,.007.123c-.032.174-.069.347-.1.52.3.08.325.123.265.392l.149.007c-.245.278.237.6-.1.888.255.186-.011.359-.016.574a.6.6,0,0,0,.22.03c.2-.055.31,0,.31.227l-.045-.016-.234.257c.064.091.126.264.246.327a.572.572,0,0,1,.273.315.086.086,0,0,0,.011.018c-.024.087-.048.175-.072.263l.337.124c0,.017-.006.1-.01.186l.085-.039.657,1.6.221-.168c-.008.074-.013.123-.021.19l.115-.057.085-.337c.067.038.144.078.217.123a.883.883,0,0,1,.1.079.987.987,0,0,0-.108.062,1.368,1.368,0,0,0-.105.091c.286.014.357.277.507.447a.537.537,0,0,1-.041.045l.448.1c0,.034,0,.068,0,.1l-.374.114c.141.226.139.547.4.666.009.066.017.128.025.191l.25-.138.11.184h.119l-.119.355h.2l-.251.131.269.429.032-.06c.065.028.173.042.187.086.058.178.163.213.336.191a.753.753,0,0,1,.554.425c0,.016-.016.036-.024.053l-.085-.077-.048.113a2.982,2.982,0,0,0,1.031.811l.2-.048c-.021.044-.035.082-.049.116.108.045.218.089.333.126a14.854,14.854,0,0,1,1.583.393,1.553,1.553,0,0,1,.438.295,1.356,1.356,0,0,0,.294-.062.564.564,0,0,1,.453.048v-.182a2.558,2.558,0,0,1,.7.918c.094.2.166.2.288.028a3.089,3.089,0,0,1,1.054-.951A13.153,13.153,0,0,1,21,66.3a2.419,2.419,0,0,0,.4-.217A.759.759,0,0,0,21.384,66c-.072-.125-.2-.261-.018-.381.164-.11.3-.008.381.134.1.166.2.1.312.033.857-.535,1.717-1.067,2.57-1.609a2.438,2.438,0,0,0,.53-.424c.415-.474.806-.968,1.207-1.453a4.815,4.815,0,0,0,.553-.682,12.767,12.767,0,0,0,.668-1.414,2.852,2.852,0,0,0,.266-1.523,5.8,5.8,0,0,0-.342-1.178,2.433,2.433,0,0,0-.423-.6c-.045-.055-.149-.062-.225-.091a.7.7,0,0,0-.08.23q.028.845.078,1.689a1.639,1.639,0,0,1-.159.912,2.468,2.468,0,0,0-.243.462.429.429,0,0,1-.326.34.326.326,0,0,0-.284.337.246.246,0,0,1-.1.185c-.167.081-.4.066-.422.331h-.04l-.352.037a.766.766,0,0,1,.02.129.861.861,0,0,1-.024.144.637.637,0,0,1-.144-.085.719.719,0,0,1-.093-.149c-.044.062-.128.127-.126.188.007.119-.027.3.23.269l-.432.3.165.255-.425.089.071.275-.42.117c.007.218-.044.262-.269.163a3.5,3.5,0,0,1-.436-.264c-.063.319.26.264.408.418-.044.092-.091.191-.139.289-.011-.022-.021-.044-.033-.067l-.463.026c.071.083.131.151.188.219l-.022.03-.209-.115c.031.089.05.139.068.191a.341.341,0,0,1-.536-.057c-.033.077-.054.145-.087.205-.065.118-.084.166.1.152s.087.112.051.192l.4.29-.21.123-.2-.393c-.088.108-.154.108-.231-.023a1.341,1.341,0,0,0-.213-.226l-.077.016c.08-.2.155-.411.243-.612.015-.034.087-.04.129-.066s.132-.062.14-.1c.029-.156.153-.3.049-.475-.008-.014,0-.042.007-.056.162-.03.317-.065.475-.081.047,0,.1.046.149.071a.427.427,0,0,1,.007-.086.64.64,0,0,1,.043-.087l.156.093a.393.393,0,0,0,0-.073c-.006-.067-.045-.155-.016-.2.114-.171.076-.253-.12-.284-.02,0-.034-.042-.049-.062a1.572,1.572,0,0,0,.181-.125,2.349,2.349,0,0,1,.386-.352c.1-.054.251-.01.4-.01a2.282,2.282,0,0,1,.137-.295.6.6,0,0,1,.163-.126c.112-.082.223-.172.342-.244a.8.8,0,0,1,.207-.06c-.114-.153.048-.236.088-.35a1.469,1.469,0,0,0,.076-.236,2.222,2.222,0,0,0,0-.293l-.109-.08.284-.466c.013.16.02.246.027.332h.05c.035-.18.071-.36.108-.546-.137-.026-.3-.088-.255-.276.027-.114.153-.206.241-.318l-.173-.137c.3-.064.553-.508.4-.7a1.808,1.808,0,0,1,.233-.33.22.22,0,0,0,.017-.347.513.513,0,0,1-.1-.467,2.784,2.784,0,0,1,.333-1.2c.168-.25.3-.521.471-.772.293-.44.786-.7,1.043-1.183.168-.315.393-.6.588-.9a1.045,1.045,0,0,0,.056-.167c.071-.175.14-.351.218-.522a2.284,2.284,0,0,0,.387-.921c0-.21-.006-.425.212-.558.03-.018.04-.078.048-.121.1-.574.185-1.148.281-1.722.062-.369.118-.738.2-1.1a.779.779,0,0,1,.439-.545c.326-.158.341-.175.253-.519a1.681,1.681,0,0,1-.028-.465c.006-.418.137-.572.576-.581l-.149-.149c.094-.142.044-.236-.126-.271a1.1,1.1,0,0,1-.284-.157,2.778,2.778,0,0,1,.172-.276c.135-.169.282-.331.423-.5.082-.1.145-.25.245-.28.368-.112.432-.4.466-.711a1.014,1.014,0,0,1,.282-.737c.062-.054.151-.131.151-.2a2.605,2.605,0,0,0-.063-.819c-.056-.166-.108-.333-.152-.5a.3.3,0,0,0-.07-.157c-.295-.223-.17-.579-.279-.86a.1.1,0,0,1,.039-.089.123.123,0,0,1,.1.036c.057.085.1.177.186.33.078-.311.157-.561.2-.817a2.261,2.261,0,0,1,.361-1.074.247.247,0,0,0,.057-.162.237.237,0,0,0-.087-.172c-.041-.019-.136.024-.174.068a6.011,6.011,0,0,1-.434.544.745.745,0,0,0-.242.473c-.026.186.027.474-.333.333,0,0-.016.011-.019.009-.046-.03-.126-.056-.131-.092a.9.9,0,0,1,.4-.732c.042-.024.061-.092.087-.141s.021-.085.049-.111c.192-.18.4-.347.581-.535.066-.068.137-.218.106-.274a.463.463,0,0,0-.291-.224,1.016,1.016,0,0,0-.438.1c-.093.035-.163.131-.255.169-.071.03-.2.044-.233.006a.347.347,0,0,1-.081-.27c.115-.438.25-.872.385-1.3a.642.642,0,0,1,.149-.29,1.735,1.735,0,0,0,.425-.827.4.4,0,0,1,.057-.141,2.155,2.155,0,0,0,.5-1.046,5.073,5.073,0,0,1,.415-.926c.039-.085.091-.165.132-.25a3.788,3.788,0,0,0,.333-.734c.16-.7.28-1.4.409-2.1a.788.788,0,0,0-.021-.279m-1.667-9.3a.336.336,0,0,1,0,.537ZM32,20.5v.519c-.172-.178-.15-.317,0-.519M2.072,38.081l-.278-.116c.037-.076.07-.156.112-.229a1.646,1.646,0,0,1,.118-.155c.03.053.086.1.087.157a2.437,2.437,0,0,1-.04.343M28.509,14.719c.088.01.2-.01.258.034.241.169.469.356.7.541a4.548,4.548,0,0,1,.4.345c.047.048.052.137.076.208a.688.688,0,0,1-.22.006,1.044,1.044,0,0,1-.566-.415c-.138-.191-.255-.438-.516-.528-.059-.02-.1-.088-.151-.134.007-.019.016-.038.023-.057m-2.721-.583c.135.11.268.223.411.321a3.931,3.931,0,0,0,.411.239,1.131,1.131,0,0,0,.2.062l.028-.064-.4-.268.03-.052.232.1c-.007-.138-.014-.268-.021-.4l.045-.044.512.489-.2.1c.195.085.485,0,.481.242.128.089.221.145.3.213a3.315,3.315,0,0,0,.669.54,4.069,4.069,0,0,1,1.123.771,5.122,5.122,0,0,1,.379.428.745.745,0,0,1-.572-.365,3.019,3.019,0,0,0-.384-.439c-.305.121-.395-.191-.585-.3-.216-.122-.408-.285-.618-.419a3.088,3.088,0,0,0-.333-.156c-.112-.054-.222-.112-.378-.19l-.058.078a.617.617,0,0,0,.112.082,3.292,3.292,0,0,1,1.345,1.123c.073.093.228.119.313.208a1.431,1.431,0,0,1,.48.806,5.7,5.7,0,0,0,.3.916c-.084-.045-.112-.05-.117-.064-.124-.31-.239-.625-.371-.932a.875.875,0,0,0-.2-.259c-.118-.116-.251-.218-.377-.327s-.274-.251-.42-.365c-.235-.183-.479-.354-.715-.534a.441.441,0,0,1-.126-.149.793.793,0,0,0-.656-.524,1.01,1.01,0,0,1-.354-.162c-.124-.071-.236-.162-.36-.234-.021-.012-.067.03-.1.034-.111.013-.242.117-.323-.073l.319-.157c-.166-.119-.335-.239-.51-.363a.528.528,0,0,1,.5.085m2.5,3.481a.745.745,0,0,0-.193-.186l.054.234-.077.022c-.038-.138-.076-.276-.113-.415a.808.808,0,0,0-.034-.145,4.436,4.436,0,0,0-.842-1.173,6.754,6.754,0,0,1-.576-.605.983.983,0,0,1,.242.127,4.344,4.344,0,0,1,1.049,1.157,10.111,10.111,0,0,0,.563.881c.06.094.1.2.154.3l-.059.025c-.055-.075-.109-.15-.167-.223m.158,1.05-.085.013a1.848,1.848,0,0,1-.164-.975l.091-.01q.079.485.158.971m-2.534-1.2-.045.038c-.05-.045-.126-.082-.146-.139-.068-.193-.117-.393-.168-.592,0-.021.018-.049.057-.144.115.319.209.578.3.837m-.831-1.511q.054.186.138.467l-.181-.223c.025.444.047.825.067,1.206l-.039.007c-.04-.222-.08-.444-.119-.66l-.063.113c-.038-.232-.069-.429-.1-.625l.036-.008c.025.105.051.21.076.316l.074-.012c-.03-.2-.051-.4-.094-.6s-.109-.383-.149-.579c.167.163.111.46.356.6m-.438.015a.175.175,0,0,1-.015.118c-.039.1-.085.2-.118.268a2.11,2.11,0,0,0-.407-1.292l-.01.133-.021,0c-.022-.121-.044-.242-.07-.393l.163.106a3.283,3.283,0,0,1,.477,1.056m-.957,1.977-.164.3c.034-.549.386-.98.466-1.508l.07.01-.1.61.036.019.154-.188a2.668,2.668,0,0,1-.643,1.461c.083-.248.156-.466.228-.686l-.049-.02m.11-3.761c-.007.009-.024.034-.016.044.115.149.232.3.359.438.091.1.2.19.292.292.018.021-.007.08-.017.155l-.246-.2c-.135-.146-.27-.293-.406-.438-.113-.122-.31-.166-.3-.4,0-.081-.13-.169-.177-.284l.51.4m-.456.866.28.5-.067.034-.292-.492.079-.044m-.065,1.331-.1,1.354h-.057a1.343,1.343,0,0,0-.1-.983l.108.131c.032-.188.059-.348.086-.509l.062.007m-.149-3.09c-.064.141-.078.143-.541.018.186.2.326.368.479.52.091.092.1.215-.011.393l-.28-.25c-.019.114-.04.246-.065.394-.2-.2.1-.413-.039-.61l-.165-.032.172-.162-.188-.267c.213-.166.255-.165.639,0m-.168,5.287-.079.034-.248-.526.067-.025c.086.172.172.345.259.517m-.726-5.1c.093.076.175.163.26.247.007.069.014.139.025.243l-.425-.519c.048.009.107,0,.14.029m-.143-.03c.02.108.042.218.075.386l-.538-.6.463.215m-1.143.366.337.547-.074.045c-.112-.181-.226-.364-.338-.547l.075-.045m-.15,7.839c.257.245,0,.292-.046.4.014-.117.027-.233.046-.4m-.163-7.26-.072.026q-.112-.328-.225-.655l.059-.022c.08.217.158.434.238.651m-.686-1.125.168-.147.336.378-.054.061c-.234.022-.3-.217-.449-.292m-.53.726-.352-.461c.272.034.287.267.352.461m-1.553-.326-.373-.327.053-.061.361.34c-.013.016-.027.032-.041.048m.4.721.062-.043.341.5-.048.03-.354-.483m-1.566-.416a.8.8,0,0,0,.072.108c.163.185.329.367.511.568-.2-.044-.627-.5-.583-.677m.61,2.745-.048.029L16.64,15.8l.07-.043.595.962m-.459-1.026c.04.082.1.158.144.236l-.041.021-.282-.325c-.2.173-.467.244-.592.5-.028.057-.131.078-.2.115l-.032-.053c.16-.2.313-.411.483-.6a.343.343,0,0,1,.521.109m-.967,5.575c0-.01.008-.021.012-.03l.3.1-.131-.144a.271.271,0,0,1,.344.218l-.188-.049.247.233c-.141.09-.2.077-.446-.114l.22.03-.359-.246M15.483,16.1c-.018-.03-.039-.066-.044-.076a1.483,1.483,0,0,1,.686-.526l-.365.337.147.138-.234.206-.043-.034.15-.206-.3.161m.085-.716c.1-.1.208-.186.313-.279v-.018q.176-.11.35-.221l.034.017c-.039.044-.073.091-.114.131-.168.162-.335.324-.509.479-.028.025-.091.011-.138.014a.4.4,0,0,1,.065-.122m-.109.274-.871.7a1.217,1.217,0,0,1,.871-.7m-.9,5.027.4.43-.085.075-.378-.447.066-.058m.122.792a2.52,2.52,0,0,1,.341.186c.044.035.035.138.05.21l-.218.022h0l-.488-.1c0-.018,0-.036.006-.054l.137-.029-.5-.544.051-.048c.205.119.41.241.616.357m-.674-5.625.126-.406.071.019c-.029.139-.057.277-.087.415Zm-.48-1.006a1.475,1.475,0,0,1,.223-.218l.041,0-.264.51-.09-.03a1.054,1.054,0,0,1,.09-.259m.668.057.076.057L13.5,16.035l-.08-.057.777-1.071m-.785.505a.439.439,0,0,1-.472.44l.472-.44m-2.186-.764c.016-.047.094-.073.173-.129.012.394.266-.076.348.133l-.036-.159.373.137.207-.26.032.029-.181.442a1.035,1.035,0,0,0-.723.521l-.056-.085-.346.452-.227-.4.39-.135-.094-.034c.045-.176.082-.349.14-.516m-.417-.179.044.026-.1.333.034.018.284-.322a.4.4,0,0,1-.122.469c-.088.076-.114.223-.168.34a.162.162,0,0,0-.05.039,1.237,1.237,0,0,1-.207.331,4.813,4.813,0,0,1-.57.349c-.13-.156.119-.235.135-.382l-.144-.017.86-1.184M10.61,14c-.12.165-.2.371-.416.434l-.124-.287L10.61,14m-.53.744c.023-.081.038-.163.059-.259a.322.322,0,0,1,.107.456c-.085.147-.168.295-.251.443l-.052-.025.086-.253c-.01-.006-.02-.012-.03-.017l-.281.45-.06-.036.11-.23h0c.08-.11.165-.217.238-.332a.734.734,0,0,0,.074-.2m-.234,1.375a2.231,2.231,0,0,1-.153.24c-.026.032-.08.039-.122.058a.335.335,0,0,1,.014-.124c.052-.094.115-.181.192-.3l.069.125m-.333-1.806c.009.1.018.2.03.319l-.3-.152.273-.168m-.236.4a.9.9,0,0,1,.265.061,1.314,1.314,0,0,1-.2.26c-.053.047-.191.079-.228.046A.931.931,0,0,1,8.96,14.8a1.566,1.566,0,0,1,.317-.094m-.568,1.522c.025-.115-.049-.292.171-.3-.067-.226.2-.148.254-.28.014-.038.113-.044.173-.064-.085-.4.14-.641.53-.548-.022.073-.044.145-.066.217-.287.053-.259.31-.328.5-.016.046-.039.09-.058.133l-.094-.071c-.024.076-.048.153-.087.278l-.115-.2a2.521,2.521,0,0,0-.217.422,2.476,2.476,0,0,0-.051.466l-.191-.146c.026-.141.048-.28.079-.418m-2.091-.038a.491.491,0,0,1,.2.05c.025.019,0,.11-.011.169L6.581,16.3l.037-.1m.08,1.586-.067.023c-.094-.175-.186-.35-.28-.524l.061-.031c.1.177.191.355.286.532m-.273.681-.075.019a.394.394,0,0,1-.084-.544l.158.526M6.361,16.7c-.047.287-.085.52-.125.757-.214-.1-.168-.5.125-.757M4.973,19.978l.123.665a.913.913,0,0,1-.347-.682l.224.016m-.961,9.705a10.046,10.046,0,0,1-.567,1.2c.021-.52.137-1.061.567-1.2M2.77,43.477c-.168-.18-.162-.241.082-.475a3.378,3.378,0,0,1,.088.4c0,.016-.109.046-.17.07m2.518,4.449-.124-.353.253.116c-.024.082-.047.161-.071.24Zm.968,4.863c.057-.209.1-.363.147-.539.2.281.2.316-.147.539M6.939,51.7l.149-.4c.129.208.066.378-.149.4m.334.475c-.223-.192-.223-.192.087-.334-.034.128-.058.222-.087.334m.129.38a2.939,2.939,0,0,1,.039-.393,1.151,1.151,0,0,1,.241,0l-.28.395m.1.132c.058-.131.109-.254.172-.371.007-.013.078.008.12.013.007.181-.014.344-.292.358m.749.483c-.146-.249-.146-.249.067-.418-.026.16-.044.277-.067.418m1.3,2.444c-.021-.158-.021-.158.324-.357.075.274-.024.375-.324.357m1.1.946.2-.347c.122.186.068.283-.2.347m4.173,1.72c-.035-.214-.071-.428-.107-.642l.057-.01q.057.32.114.64Zm.3-.8-.078.006a.87.87,0,0,1-.094-.632l.172-.159Zm.094-.334.063-.006c.014.181.028.361.044.577-.256-.192-.074-.393-.108-.572m6.1,1.071c-.058-.185-.1-.316-.14-.447.224.053.267.149.14.447m2.427-4.621a.681.681,0,0,1-.177-.284l.324.191a.833.833,0,0,1-.147.093m.653-.034c-.071-.039-.164-.062-.2-.121-.029-.043.016-.133.029-.2l.055.013.157.251-.038.058m3.7-5.732c-.031-.124-.053-.21-.074-.3l.042-.016.193.161-.161.152M30.07,42.5c0,.078-.047.154-.053.233-.016.2-.019.4-.031.6-.008.128-.023.255-.036.383a2.161,2.161,0,0,1-.03.231c-.021.1-.061.194-.08.292-.029.151-.048.3-.071.457a4.624,4.624,0,0,1-.362,1.378c-.08.163-.2.3-.278.468a.361.361,0,0,0,.02.279c.08.154.038.286-.178.442l-.311-.218a.84.84,0,0,0,.169-.815c-.133.076-.124.078-.161.287a.684.684,0,0,1-.117.2,1.267,1.267,0,0,0-.1-.152,1.816,1.816,0,0,0-.214-.206c-.008-.007-.085.045-.1.082s.034.091.02.124a2.916,2.916,0,0,1-.149.272l-.223-.248-.287-.1c.039.09.077.177.115.264l.6.234c-.311.075-.317.1-.062.371l-.275-.067c-.074.193-.149.391-.231.606-.031-.056-.063-.114-.1-.173h-.2c-.01.183-.02.384-.031.585l-.094.034c-.044-.084-.087-.168-.137-.264-.166.25-.166.25.111.442a2.447,2.447,0,0,1-.175.361,1.2,1.2,0,0,1-.254.253c-.187.15-.384.288-.569.441-.021.017.007.1.015.156l-.152-.014c.007.124.015.239.022.354l-.347-.052c-.067.155.284.149.132.357-.083.114-.05.307-.114.443a1.7,1.7,0,0,1-.305.331c.008.08.024.233.044.428l-.2-.186c-.057.183-.112.356-.176.561l-.18.077c.016.068.035.142.058.236l-.171.018v.727l-.4-.187c.041.149.08.288.119.428l-.044.017-.232-.347c-.2.08-.377.157-.558.221-.033.012-.089-.044-.125-.034-.1.025-.231.041-.271.108-.181.3-.171.309-.461.146-.132.2.12.246.142.394-.22.054-.191.2-.083.36l-.069.034-.177-.263-.87.518c.008-.115.012-.175.017-.243a.586.586,0,0,1-.819-.175c-.023-.036-.039-.086-.072-.105a.868.868,0,0,1-.378-.615l-.709.214c-.192-.227-.192-.227-.5-.158l.183-.273-.158-.1-.238.337c.047.135-.065.218-.254.268-.064-.222-.2-.35-.455-.249l-.094.2-.308-.328c.1.406-.236.5-.383.722l-.057-.042.305-.383-.03-.067c-.108.224-.167.081-.222.011l-.207.547-.058-.017V53.8l-.227-.085c-.006.025-.021.083-.041.166-.1-.3-.154.038-.254-.009-.01-.067-.022-.143-.038-.247l-.115.132c-.045-.38-.077-.016-.115-.334-.379.02-.7.048-1.012.048a3.678,3.678,0,0,1-.523-.074c-.021,0-.053-.007-.065,0-.154.159-.348.089-.535.12l.2.044a.322.322,0,0,0-.083.509c.024.037-.007.11-.018.225l.322.024-.048.08c.021.01.044.029.058.024a.232.232,0,0,1,.34.232c.007.112,0,.225,0,.355l.351-.324c.13.13.252-.379.385-.246.021-.019.042.131.064.273l-.1.306h.049l.1-.074c0,.01.009.014.014.01l0-.021.067-.048.089.155-.041.03-.05-.028,0,.024a.648.648,0,0,1,.2.14,1.6,1.6,0,0,0-.021-.186L16.421,55a2.347,2.347,0,0,0,.093.331,2.825,2.825,0,0,0,.192.318c.112-.21.234-.113.36-.071a.54.54,0,0,0,.3.052,1.448,1.448,0,0,1,1.026.046c.053.021.11.032.216.062l-.171-.154c.012-.015.02-.033.027-.034a2.083,2.083,0,0,0,.762-.154c.236-.1.51-.278.759-.081l.217-.331a.25.25,0,0,0,.4,0c.158-.156.289-.149.412.062.229-.27.465-.1.688-.015.154.055.28.191.434.232.083.022.2-.081.329-.142v.42l.277.108c-.025-.11-.036-.16-.049-.221.033,0,.066-.008.072,0,.03.047.08.1.072.146a.573.573,0,0,0,.139.512.487.487,0,0,1,.1.383c-.05.163-.206.2-.378.1-.061-.033-.154,0-.233,0,0,.025,0,.052-.006.077l.24.106-.658.234.346.106a2.172,2.172,0,0,1-.513.437,1.668,1.668,0,0,1-.6,0l-.1.225a.754.754,0,0,0-.053-.181c-.059-.106-.126-.163-.246-.043a.4.4,0,0,0-.148.262c-.008.085-.092.163-.184.038a.229.229,0,0,0-.08-.062c-.073-.034-.149-.443-.224-.475.019.09.042.205.066.319l-.024,0-.118-.284-.211.077c.025.145.051.285.076.425l-.044.035-.184-.132-.342.135c-.011.077-.028.2-.054.392a3.106,3.106,0,0,1-.225-.33c-.054-.108-.083-1.111-.123-1.225l-.091,0c-.011.071-.048.15-.028.212.04.123.12.234.163.356.017.048-.019.113-.045.233l-.135-.216-.125.154c-.1-.149-.192.1-.306-.072-.1.188-.176.327-.267.5-.034-.112-.057-.191-.08-.269l-.044,0-.032.192-.03.012c-.028-.1-.055-.205-.08-.3l-.254.287-.3-.73c-.01.186-.16.342.119.468.144.064.053.447-.105.553-.252-.145-.112-.4-.159-.654l-.11.232-.061.012c-.043-.135-.086-.27-.13-.4l-.045-.015a.653.653,0,0,0-.023.225,1.67,1.67,0,0,0,.122.254c.038.086.066.177.094.254l-.4.105a1.575,1.575,0,0,1-.052-.447c.072-.479-.056-.07-.028-.544a.851.851,0,0,1-.157-.036,2.064,2.064,0,0,1-.043.441c-.011.076-.021.145-.032.221a1.127,1.127,0,0,1-.318-.787l-.024-.008a1.083,1.083,0,0,1-.1-.046c0,.022,0,.045,0,.068l0,.01,0,0c.02.258.038.575.056.635l-.013-.007L15.8,57.8l-.044-.035.052-.18a4.2,4.2,0,0,1-.131-.883c-.02-.017-.04-.034-.059-.053a.818.818,0,0,1-.141-.108c.03.146.057.273.084.4l-.076.039-.255-.2c.1-.306.09-.324-.27-.465.234.148.214.29.02.434-.021.016-.025.058-.034.091-.057-.037-.114-.076-.132-.088-.06.324-.118.636-.18.968l-.323-.34.106-.319-.109-.019c-.017.222-.034.444-.053.691l-.177-.618L14,57.14c.054.235.11.47.166.706l-.208.232c.034-.155.056-.248.079-.353-.4-.007-.09-.319-.242-.446l-.2.214-.228-.254-.207.539-.075-.016c-.023-.048-.045-.1-.087-.186-.028.141-.048.241-.068.342l-.057,0c-.012-.1-.025-.2-.039-.308l-.105.049a1.036,1.036,0,0,1-.135-.36c0-.1.111-.195.133-.319l-.282.31.039-.265-.275.227.135-.488-.036-.02-.141.165v-.125l-.157.084c0,.186-.1.264-.306.249l.285-.29c.007-.049.015-.1.024-.158-.141,0-.15.341-.321.131l-.315.213c0-.008-.009-.016-.013-.023l.328-.476-.055-.038-.111.156-.04-.115-.479.17c.058-.175.115-.342.176-.526h-.148l-.02-.047.411-.238-.024-.048c-.068.028-.135.057-.2.084s-.126.042-.191.063l-.045-.1.545-.319-.015-.031-.39.1.157-.172h-.329c-.007-.067-.012-.13-.022-.233-.03.061-.05.084-.051.108-.01.231-.14.322-.357.319a1.788,1.788,0,0,1-.2.012,2.3,2.3,0,0,1-.251-.065,1.2,1.2,0,0,1,.183-.224,1.933,1.933,0,0,1,.333-.163L10,55.237c-.007-.019-.016-.038-.024-.056l.374-.242-.016-.033c-.142.064-.286.125-.425.195a.152.152,0,0,1-.242-.082,1.285,1.285,0,0,0-.188-.234l.052-.049.168.127c-.009-.17-.013-.315-.025-.459-.022-.239-.192-.319-.471-.237l.232-.3-.282-.246-.062.036c.016-.073.031-.147.051-.238-.269.025-.273-.145-.25-.254a2.8,2.8,0,0,0-.272-.3.935.935,0,0,0-.241-.1c.023-.076.049-.162.088-.291l-.289.246L8.135,52.7c.045-.108.091-.214.137-.321l-.05-.034-.169.311V51.8L8,51.8c-.007.1-.009.2-.025.3s0,.249-.185.217v-.4a.421.421,0,0,1-.167.017c-.059-.016-.15-.069-.152-.108,0-.109.048-.072.122-.037.032.016.123-.092.165-.126-.126-.025-.3-.012-.4-.094s-.08-.246-.12-.4c-.185.024-.143-.162-.169-.3l-.053.011c.007.076.008.154.02.229.024.153-.062.257-.19.218-.255-.077-.329.117-.372.257a.491.491,0,0,1-.284.362,2.859,2.859,0,0,0-.076-.384c-.044-.134.029-.167.125-.207.03-.012.048-.057.071-.086l-.14-.062.371-.191H6.388l-.031-.056.347-.242.054.047c0-.09.009-.179.014-.261l-.745.607a.722.722,0,0,1,.255-.654c.066-.051.07-.181.116-.315l-.2.112-.06-.039c.107-.161.212-.323.319-.484a.765.765,0,0,1-.627.278c.044-.06.066-.12.1-.133.1-.034.162-.073.106-.185-.043-.085-.051-.2-.208-.159-.094.025-.2-.223-.14-.329.022-.042.048-.083.09-.154l-.2.117-.039-.037.207-.3L5.709,48.8a1.559,1.559,0,0,1-.161.045c-.062.012-.127.016-.191.025.011-.067.02-.135.034-.2s.033-.123.05-.185c-.031-.015-.079-.031-.078-.045a3.026,3.026,0,0,1,.038-.481.671.671,0,0,1,.106-.2L5.1,47.3c.036-.125.091-.208.071-.262-.056-.147-.034-.239.156-.284l-.219-.144.131-.471L5,46.415a1.994,1.994,0,0,0-.285-.9c-.02-.025,0-.081,0-.123,0-.182.011-.347-.2-.465s-.1-.339-.081-.472a1.327,1.327,0,0,1-.2-.282c-.072-.206-.121-.42-.175-.633s-.108-.413-.149-.622c-.037-.182-.062-.367-.085-.551-.056-.461-.117-.921-.158-1.382-.027-.3-.02-.612-.027-.919s-.031-.61-.019-.914c.03-.777.076-1.551.118-2.327a.284.284,0,0,1,.02-.077c.3-.077.577-.144.852-.223a.532.532,0,0,1,.663.414c.057.423.083.849.131,1.273a10.274,10.274,0,0,0,.725,2.763,1.529,1.529,0,0,0,1.244.966,20.4,20.4,0,0,0,4.221.248,13.105,13.105,0,0,0,2.518-.272c.011,0,.026.01.094.039-.157.149-.3.281-.438.416a6.767,6.767,0,0,0-.518.523c-.078.094-.124.1-.243.044.017.07.014.161.057.2s.135.015.191-.013a3.1,3.1,0,0,0,.956-.7,7.533,7.533,0,0,0,1.365-2.137c.3-.732.546-1.49.875-2.209.3-.645,1.361-1.3,1.448-1.945-.151-.029-1.527-.05-1.641-.072l0-.021h1.6v-.219H16.3c.089.049,1.407.08,1.464.111l-.007.048c-.366-.06-2-.12-2.389-.184a.85.85,0,0,0,.1-.209.572.572,0,0,0-.051-.195l-.165.365-.066-.025.14-.415-.061-.054c-.037.09-.074.181-.11.272l-.083-.057-.088-.183c-.016.094-.029.16-.04.226-.119-.328-.121-.705-.413-.93.028.2.057.407.085.613-.269-.264-.3-.712-.739-.9l.424.683-.044.041-.522-.563-.023.018.272.484L12.9,34.313l-.03.043.344.319-.02.032-.972-.457-.047.088c.2.108.41.217.576.3-.247-.034-.532-.094-.82-.109a1.032,1.032,0,0,0-.8.163,9.84,9.84,0,0,0-1.093.092c-.391.073-.769.216-1.152.328l-.021-.067.659-.179c-.313-.135-.546.023-.79.105-.067.023-.136.074-.2.068a.364.364,0,0,0-.295.134.851.851,0,0,1-.418.14c-.923.14-1.847.27-2.771.4-.146.021-.263.058-.237.2l-.569.246.2.227c-.388.123-.393-.246-.549-.356-.09.147-.174.286-.273.451l.237-.024a.5.5,0,0,1-.073.131c-.071.064-.156.112-.229.172-.334.281-.664.566-1,.842a1.44,1.44,0,0,1-.257.135c-.039-.113-.14-.255-.1-.335a1.848,1.848,0,0,1,.769-.868,5.639,5.639,0,0,0,.732-.519c.051-.042.016-.186.021-.284.007-.126.021-.251.023-.378s-.023-.256-.016-.383c.027-.446,0-.913.356-1.189a3.148,3.148,0,0,0,.036-1.2l-.157.176c-.287-.264-.016-.54-.039-.869l-.333.454c-.024-.292-.046-.553-.067-.813l-.28.535a.522.522,0,0,1,.064-.521.674.674,0,0,0,.087-.2.948.948,0,0,1,.269-.515,1.843,1.843,0,0,0,.27-.625,1.4,1.4,0,0,1,.09-.17c.021-.036.058-.067.066-.105.028-.139.047-.28.068-.416l-.127.028L4.269,29l-.041-.024c-.117.14-.232.28-.347.42l-.039-.018c.108-.227.216-.453.328-.689l-.135-.044c.007-.028.012-.049.019-.07.066-.206.131-.412.2-.618a.869.869,0,0,1,.069-.2c.156-.245.12-.354-.11-.413.085-.146.273-.323.245-.451-.062-.282.119-.485.145-.734a2.07,2.07,0,0,1,.292-.669c.108-.21.319-.406.331-.618a1.4,1.4,0,0,1,.327-.676,5.341,5.341,0,0,1,.375-.479,6.188,6.188,0,0,1,.443-.553,2.958,2.958,0,0,1,.45-.311l.048.075-.286.241.05.059.395-.343c.2-.088.341-.154.484-.212.185-.073.328-.287.569-.172.133-.169.454.075.525-.24.007-.028.067-.044.149-.1-.05.1-.076.154-.126.255l.2-.117c-.007.067-.011.115-.019.193l.788-.6.051.061a.526.526,0,0,1-.032.069.588.588,0,0,1-.071.069l.223-.018-.193.155c.1-.012.151,0,.185-.026a.942.942,0,0,0,.164-.145c.257-.272.256-.273.7-.2l-.322.179.01.042c.07-.014.173,0,.2-.045.128-.182.262-.135.416-.049.03.017.114,0,.123-.016.113-.26.314-.136.49-.12a.14.14,0,0,0,.09-.019l-.2-.043c0-.018,0-.036,0-.054h.385c-.165-.1-.282-.166-.4-.235l.018-.043.464.057c.036,0,.089.027.1.011.3-.3.558-.055.81.076.216.111.2.129.439-.025a.125.125,0,0,1,.1-.011,1.033,1.033,0,0,0,.489.086c.177-.011.361.141.544.218a1.9,1.9,0,0,0,.328.116c.039.008.091-.052.138-.081.123.163.249.319.492.241l-.268-.149.231-.038-.152-.1c0-.012.006-.024.009-.035l.3.025-.3-.242.689.224.025-.043-.094-.124.375.037c-.032.163-.141.194-.272.188-.087,0-.173-.015-.26-.023.177.149.346.213.556.029.057-.051.213.011.309.02.013-.054.03-.129.048-.2l.054,0c.019.1.038.192.063.319a2,2,0,0,1,.213-.186c.03-.019.088,0,.132.008a.338.338,0,0,1-.05.112c-.081.082-.179.149-.255.236a.76.76,0,0,0-.085.206l.729-.226v.157l.612-.19-.136-.092.02-.076c.073-.016.185-.067.211-.039a.331.331,0,0,1,.089.246c-.015.067-.111.135-.186.164s-.177.016-.264.048c.208.069.415.14.623.206.032.01.1,0,.1-.012.048-.168.145-.163.289-.117a1.113,1.113,0,0,0,.352-.022c.038-.011.143-.078.23-.059a.441.441,0,0,0,.443-.1c.015-.014.054,0,.1,0-.02.093-.037.173-.053.255l.048.018c.1-.117.2-.239.3-.352s.163-.138.3,0c.168.168.242-.043.323-.158l.3-.117c-.044.128-.146.276-.108.351a.427.427,0,0,0,.463.276c-.011.08-.019.142-.026.2.145.2.146.2.062.225.066.319.427.275.593.512-.016-.255.039-.291.347-.254v-.192l.171.194c-.1.267-.181.321-.449.314-.236-.006-.473,0-.737,0,.139.158.39-.073.448.192l.154-.1c0,.094.009.162.013.229l.056.011c.017-.08.034-.162.054-.256.267-.053.549-.124.834-.155.078-.009.169.1.255.16V23.5l.055-.03a2.763,2.763,0,0,1,.246.379,3.013,3.013,0,0,1,.124.461l.173-.152.26.988.213-.29.117.232h.035c-.006-.085-.011-.168-.019-.274l.243.045c-.169.307.325.271.276.48a.779.779,0,0,1,.249.037c.14.071.264.131.355,0l.444.027c0,.028.015.108.021.156l.3.059c.02-.039.049-.1.085-.175.192.112.467.078.56.36.012.039.131.043.244.074-.01-.126-.017-.232-.024-.319.175-.042.357-.085.539-.131.144-.038.3-.13.327.134,0,.036.048.069.071.1-.118.181-.086.273.1.37-.08.207.117.245.195.351a2.546,2.546,0,0,1,.195.347c0,.093-.03.161-.006.19.151.187.315.364.471.548a.727.727,0,0,1,.161.232c.05.164.2.212.279.307a2.032,2.032,0,0,0,.318,1.236.439.439,0,0,0-.207.538.2.2,0,0,1,0,.1c-.01.06-.046.124-.034.179.1.484.23.962.293,1.449a6.478,6.478,0,0,1,.134,1.166c-.013.269.116.541.124.814.019.576.011,1.154-.007,1.73-.025.737-.082,1.471-.037,2.21.052.856.087,1.715.089,2.573,0,.835-.048,1.671-.08,2.506m-7.5,12.13-.1.056a1.988,1.988,0,0,1-.158-.246c-.006-.012.086-.07.132-.106l.129.3M7.08,36.324c.057-.023.116-.039.175-.058.007.027.015.054.021.081l-.535.13c-.118.029-.22.071-.181.241l.285.039-.239.094.235.227H6.58c0,.017-.007.034-.011.052a.3.3,0,0,0,.106.031c.305-.03.305-.032.275.276l.186.035a.535.535,0,0,0-.076.135c-.016.071-.044.168-.011.214.117.166.108.238-.1.339l.088.049c-.062.3-.12.585-.166.811l.333.3s.008-.037.021-.1c.114.146.4-.122.471.252l.752-.333c.241.205.523.352.645.691L9.329,40a1.74,1.74,0,0,1,.341.024,3.631,3.631,0,0,0,2.153-.144c.365-.122.707-.321,1.076-.434a3.871,3.871,0,0,0,.65-.331,1.1,1.1,0,0,1,.209-.062l.028.057-.254.186.02.033.273-.146c-.029-.356.026-.4.4-.392a.752.752,0,0,0,.368-.109.2.2,0,0,1,.278.062.8.8,0,0,1,.093.417c-.011.13-.148.25-.024.39.061-.118.124-.236.181-.357.1-.213.186-.429.291-.639.013-.025.094-.016.144-.024a1.8,1.8,0,0,0-.122.241c-.179.551-.335,1.111-.535,1.654a1.72,1.72,0,0,1-1.15,1.155l.307-.073.02.079c-.317.077-.63.175-.951.228a12.621,12.621,0,0,1-3.057.134c-.9-.072-1.809-.169-2.711-.274a2.533,2.533,0,0,1-.545-.191l.011-.062.094-.021c0-.008,0-.024-.013-.028a1.71,1.71,0,0,1-.621-1.037,9.357,9.357,0,0,1-.531-3.224,1.077,1.077,0,0,1,.921-1.167c.2-.053.4-.082.6-.123.032.161.032.161-.346.573.051-.025.1-.055.152-.076m.312.319.021.071-.515.057-.012-.085.507-.043M11.538,39.6c-.1.035-.242-.031-.365-.052-.01.036-.016.1-.031.1-.176.025-.352.042-.53.061,0-.025,0-.049-.007-.074l.537-.1a4.3,4.3,0,0,0-.435-.017.644.644,0,0,0-.2.079c-.032-.055-.051-.118-.093-.144-.023-.015-.1.021-.127.055-.148.181-.145.183-.352.2l.393.065c0,.02-.007.04-.011.061l-.8-.092.453-.206c0-.018,0-.036,0-.054l-.309-.075c0-.013-.007-.027-.011-.041l.272-.105c-.011-.038-.022-.083-.039-.146-.225.15-.441.3-.746.066h.463l-.121-.247-.246.084c-.011-.1-.021-.184-.031-.282l.268.124-.123-.2c.01-.017.021-.034.03-.053l.351.142-.37-.476a.357.357,0,0,1,.382-.178c.08.017.177-.039.28-.065.178.53.391,1.044,1.077,1.086.819.051,1.155-.461,1.324-1.149a.62.62,0,0,1,.522.885l-.05-.171-.228.268a1.569,1.569,0,0,1,.2.044,2.526,2.526,0,0,1,.241.117l-.313.189a5.68,5.68,0,0,1-.911.376,13.384,13.384,0,0,1-1.361.186c-.018,0-.039-.016-.061-.043a3.809,3.809,0,0,0,1.8-.425c.01-.048.019-.1.025-.126a7.688,7.688,0,0,1-.741.335m-1.074-3.706a6.89,6.89,0,0,1,2.651.148c-.245.029-.488.071-.733.084s-.468-.007-.644-.011c-.227.027-.393.053-.559.066-.108.007-.215-.011-.324-.011-.074,0-.148.014-.222.014a.545.545,0,0,1-.187-.021c-.021-.008-.043-.1-.027-.112a.347.347,0,0,1,.145-.071.621.621,0,0,0,.187-.057l-.287-.028m2.593,3.118c.206-.062.382-.119.559-.168a.345.345,0,0,1,.124.012c-.018.042-.025.108-.055.12a2.93,2.93,0,0,1-.488.168c-.039.009-.1-.1-.14-.133M8.39,35.365a18.386,18.386,0,0,1,5.911.306,37.354,37.354,0,0,0-5.911-.306m7.195,1.358a.971.971,0,0,1,.136.82c-.059.33-.11.661-.164.991a1.442,1.442,0,0,1-.018-.264c.043-.362.109-.722.135-1.085a1.8,1.8,0,0,0-.09-.462M3.778,33.6c.066-.157-.026-.371.214-.517l-.142.539L3.778,33.6m26.028-16.28a1.353,1.353,0,0,1,.613,1.152l-.613-1.152m.76,25.721a.835.835,0,0,1-.136-.856c.082-.1.149-.079.188.035a1.009,1.009,0,0,1-.052.82M30.557,18.06a.946.946,0,0,1,0-.241l.08,0,.117.267c-.09-.012-.2-.01-.2-.031m.171-.937c-.191-.1-.385-.205-.572-.318-.034-.021-.034-.093-.056-.137-.054-.111-.112-.221-.168-.331-.021-.04-.043-.08-.064-.121.044-.016.1-.053.133-.043.08.021.211.054.222.1.053.24.282.323.4.5.061.091.109.191.164.287l-.058.061" transform="translate(0 -2.205)" fill="#002516"/>
    <path id="Path_36" data-name="Path 36" d="M39.39,26.656a2.028,2.028,0,0,1-.362-.206c-.045-.039-.024-.155-.033-.236.089-.008.2-.056.263-.019a1.166,1.166,0,0,0,.667.211c.02,0,.067.1.06.1a.341.341,0,0,1-.156.1.236.236,0,0,1-.151-.048c.009-.105-.015-.185-.131-.145-.06.021-.1.108-.146.166l-.01.076" transform="translate(-6.974 -4.683)" fill="#002516"/>
    <path id="Path_37" data-name="Path 37" d="M4.837,19.473c0,.192,0,.419,0,.645s.023.456.036.714a.357.357,0,0,1-.283-.465,2.015,2.015,0,0,1,.246-.894" transform="translate(-0.819 -3.483)" fill="#002516"/>
    <path id="Path_38" data-name="Path 38" d="M1.984,51.315c.209.154.39.282.561.423.017.014-.016.143-.044.149-.264.066-.553-.221-.517-.572" transform="translate(-0.354 -9.178)" fill="#002516"/>
    <path id="Path_39" data-name="Path 39" d="M6.409,18.767c-.21-.241-.205-.317.052-.619a2.713,2.713,0,0,1,.484-.427.316.316,0,0,1-.188.319.585.585,0,0,0-.347.449c-.006.092,0,.185,0,.278" transform="translate(-1.12 -3.169)" fill="#002516"/>
    <path id="Path_40" data-name="Path 40" d="M12.415,73.974l.116.3,0-.008-.172.051.006,0-.246-.375.043-.059Z" transform="translate(-2.168 -13.214)" fill="#002516"/>
    <path id="Path_41" data-name="Path 41" d="M38.311,24.489a.646.646,0,0,1,.108.022c0,.165-.018.328-.029.493L38.31,25c.014-.052.028-.1.051-.188l-.222.05c.059-.126.119-.251.177-.376Z" transform="translate(-6.821 -4.379)" fill="#002516"/>
    <path id="Path_42" data-name="Path 42" d="M11.918,73.375l0-.007v.274l.1.015V73.7c-.067,0-.149.038-.2.011-.168-.083-.113-.226-.067-.36l-.007.006.181.022" transform="translate(-2.092 -13.118)" fill="#002516"/>
    <path id="Path_43" data-name="Path 43" d="M30.067,71.871l-.089-.171h.011c.03-.017.012-.007-.007,0l.264-.349V71.7l.074.039-.254.13" transform="translate(-5.362 -12.762)" fill="#002516"/>
    <path id="Path_44" data-name="Path 44" d="M24.108,80.144l.044.123" transform="translate(-4.312 -14.334)" fill="#002516"/>
    <path id="Path_45" data-name="Path 45" d="M10.015,71.109c.009.034.02.069.027.105.011.058.044.159.027.168a.752.752,0,0,1-.209.051l-.033-.052c.064-.09.128-.178.191-.268l0,0" transform="translate(-1.758 -12.718)" fill="#002516"/>
    <path id="Path_46" data-name="Path 46" d="M10.083,70.749a.061.061,0,0,0,.011.018c-.034.023-.068.067-.1.066a.262.262,0,0,1-.145-.062c-.013-.011.011-.1.025-.105a.358.358,0,0,1,.154.019c.022.007.036.042.054.064" transform="translate(-1.761 -12.639)" fill="#002516"/>
    <path id="Path_47" data-name="Path 47" d="M12.393,74.412l-.074.264.177-.121.023.023-.166.234a.3.3,0,0,1,.045-.4l0,0" transform="translate(-2.199 -13.308)" fill="#002516"/>
    <path id="Path_48" data-name="Path 48" d="M23.382,39.584H23c0-.015-.007-.03-.009-.044a1.028,1.028,0,0,0,.374-.055c.114-.067.279-.23.258-.306a.525.525,0,0,1,.176-.562.931.931,0,0,0,.264-.578c.012-.124.157-.235.267-.387v.319l-.658,1.015.071.039a.585.585,0,0,1,.046-.134.91.91,0,0,1,.357-.364,7.419,7.419,0,0,0,.761-.488v.153a3.823,3.823,0,0,0,.423-.372.589.589,0,0,1,.6-.149l-.233.259a.99.99,0,0,1,.743-.074.131.131,0,0,0,.1-.017c.264-.314.538-.094.81-.022.091.024.2.158.268-.04a.2.2,0,0,1,.117.015.461.461,0,0,0,.2.084l-.093-.109.023-.034.232.086.023-.028-.223-.2.013-.054c.27.039.544.058.808.122a.95.95,0,0,0,.6.069L28.9,37.5c0-.009-.008-.019-.013-.028.133.026.265.06.4.077s.2.253.4.068l-.4-.158a.843.843,0,0,1,.751.172l-.047-.169c.347.183.591.512.959.641l.034-.049-.428-.319.041-.064a.885.885,0,0,1,.239.122,2.752,2.752,0,0,0,.815.537,1.444,1.444,0,0,1,.623.757,2.145,2.145,0,0,1,.176.279l-.309-.108c.175.345.685.391.668.8-.1,0-.22-.035-.288.011s-.076.172-.108.26c-.1-.1-.186-.26-.314-.312a1.1,1.1,0,0,0-.442.018l.131.311-.446-.144v.434c.4.1.423.544.674.869l-.167.041c.016.022.031.044.048.066a.28.28,0,0,0,.093.041c.115.006.288-.078.31.1s-.156.181-.287.2c-.011,0-.02.02.025.03,0,.234,0,.469,0,.7,0,.012-.031.023-.049.034a.428.428,0,0,0-.169.536,1.107,1.107,0,0,1,0,.224c-.429-.191-.464-.179-.6.172-.079-.015-.157-.035-.236-.043a.684.684,0,0,0-.136.007l-.257.576c-.251-.093-.279-.079-.347.223l-.157-.282c-.02.172-.031.274-.052.45-.081-.218-.186-.336-.355-.349-.043,0-.092.076-.144.121l-.1-.122c.016.131.026.222.037.314-.322.031-.069-.36-.3-.381-.069.115-.132.222-.227.381l-.114-.305-.034,0v.318c-.38-.071-.741-.145-1.106-.2-.244-.039-.283.018-.2.258l-.23-.03c.179-.177.115-.284-.076-.347a1.187,1.187,0,0,0-.154-.027c0,.048-.008.1-.016.145-.006.03-.014.079-.032.084-.059.018-.141.048-.182.023a4.965,4.965,0,0,1-.4-.307h.267l-.246-.2-.213.293-.379-.361c.146-.043.3-.1.452-.126.057-.011.126.034.216.062a.825.825,0,0,1,.178-.182.357.357,0,0,1,.228-.016c.084.291.3.065.438.118.033.012.089,0,.1.016.143.195.2.053.258-.069.471.25.906.015,1.352-.085,0-.019,0-.037,0-.056a4.536,4.536,0,0,0-.911-.081,1.546,1.546,0,0,1-1.5-.617,1.281,1.281,0,0,1-.2-.414c-.037-.126-.106-.166-.205-.117a2.615,2.615,0,0,0-.547.318c-.07.058-.057.219-.066.334a.988.988,0,0,0,.186.045c.017.053.044.134.086.256a.943.943,0,0,1-.339-.027,3,3,0,0,0-1.267-.1c-.124-.327-.1-.411.225-.645.172-.124.342-.25.535-.392l-.281-.062c-.255.088-.489.158-.717.249-.157.063-.3.158-.456.228-.17.077-.344.143-.569.235a1.219,1.219,0,0,0,.012-.265,3.2,3.2,0,0,0-.107-.31,2.219,2.219,0,0,0-.146.182,2.31,2.31,0,0,0-.109.21h-.071c-.011-.287-.039-.576-.028-.862a7.146,7.146,0,0,1,.1-.766,1.42,1.42,0,0,1,.06-.225c.018-.054.078-.139.064-.153-.211-.206.042-.379.1-.484.1-.181.217-.422.494-.457l-.025-.053m7.989,2.978.241.109.26-.126c-.174-.176-.334-.166-.505.032a.875.875,0,0,0-.155-.25,9.342,9.342,0,0,1-.818-.621A3.593,3.593,0,0,0,28.2,40.695a2.211,2.211,0,0,0-1.646.36.889.889,0,0,0-.282.314c-.034.071.017.2.067.286.023.038.143.046.205.025a1.572,1.572,0,0,1,.616-.16c.316.024.636-.007.953-.006.189,0,.377.02.566.031a.393.393,0,0,0,.2.158c.156.055.324.08.476.144.53.225,1.054.461,1.581.695.142.063.279.149.429.021m-1.09-2.081a1.469,1.469,0,0,0,1.087.375,1.39,1.39,0,0,1-.324-.235.582.582,0,0,0-.764-.14m.65-.673c-.091-.313-.337-.153-.5-.256-.009.026-.018.053-.026.079l.523.177m-.822.691h-.456c.149.08.3.228.456,0m1.227-.66.089-.075-.166-.213c-.027.03-.084.077-.078.085a2.171,2.171,0,0,0,.155.2" transform="translate(-4.039 -6.693)" fill="#002516"/>
    <path id="Path_49" data-name="Path 49" d="M22.769,55.456c-.208-.015-.413-.024-.617-.048-.05,0-.094-.057-.142-.085a.652.652,0,0,0-.3-.108l.857.67.117.417-.228.131a1.287,1.287,0,0,1,.044-.218c.033-.083-.1-.333-.231-.414L22,56.014c0,.011.019.07.034.128l-.071.057c-.1-.534-.554-.65-.925-.864l-.052.1-.168-.138c-.023.11-.046.218-.072.342l-.216-.03c.041.153.084.306.132.484l.208.113c-.007.014-.014.028-.022.042l-.532-.2-.028.076.172.111c-.048.074-.09.138-.14.217L19.8,55.6l.049-.059c.151.2.288.434.576.261v-.474l-.075.161c-.062-.043-.113-.083-.169-.115s-.1-.048-.165-.076c0,.028-.014.079-.025.149-.1-.16-.191-.179-.245-.03-.11-.2-.214-.4-.337-.593a.351.351,0,0,0-.213-.164c-.171-.009-.164-.1-.133-.258-.319.109-.68-.139-.96.215-.028-.052-.054-.107-.085-.165a.767.767,0,0,1-.873-.466q-.135-.48-.27-.958l.053-.054.188.14c0,.025.009.049.012.074a4.962,4.962,0,0,0,.407-.321,1.289,1.289,0,0,1,1.074-.522.82.82,0,0,1,.65.477c.137-.053.268-.1.4-.155a.233.233,0,0,0,.034-.022c.164.232.342,0,.512.007.088.007.181-.064.295-.109.009.016.038.068.04.074a4.187,4.187,0,0,1,.927-.326c.187-.022.29-.046.37-.2l.449-.062c.016.108.033.227.049.342.155-.052.459.107.611.344l.335-.157c.026.094.05.178.075.264l.131-.078c.022.044.05.076.051.108a2.552,2.552,0,0,1-.149,1.391c-.081.143-.136.412-.427.34-.008.253-.2.2-.393.2l.25.513-.256-.048.209.219m-.212-.407.045-.037a2.1,2.1,0,0,0-.134-.233.115.115,0,0,0-.112,0c-.022.02-.032.094-.015.11a1.86,1.86,0,0,0,.215.158" transform="translate(-3.018 -9.304)" fill="#002516"/>
    <path id="Path_50" data-name="Path 50" d="M24.9,57.42c.157-.241-.067-.385-.093-.562.1.092.195.185.292.276l.064-.053L25,56.826l.049-.03c.237.2.3.523.467.771l-.273-.225-.081.075c.236.08.029.431.337.466l.068-.066-.23-.046.076-.086.335.181-.085.231-.242-.071-.034.057c.044.037.08.1.13.108.19.048.179.131.056.24a2.111,2.111,0,0,0,.191.264,1.9,1.9,0,0,0,.263.192l-.108.1-.824-.723-.077.056.338.826c-.186.066-.342.131-.5.174a.509.509,0,0,1-.278,0,1.849,1.849,0,0,0-1.221.042,1.37,1.37,0,0,1-.9-.074,1.652,1.652,0,0,0-.524-.01c.023.091.044.177.065.261l-.047.035c-.167-.438-.58-.206-.879-.378,0,.09.007.149.01.2-.637-.269-1.3.03-1.977-.022-.021-.3-.042.221-.065-.122l-.531.088a.688.688,0,0,0-.709.071c.008-.063.015-.112.021-.16l-.05-.039-.223.257c-.008-.057-.018-.122-.039-.258l-.106.2c-.071-.159-.323-.132-.5.033-.007-.073-.011-.132-.016-.185l-.482.253c-.045-.057-.076-.053-.156-.015-.039.019-.1-.007-.143,0a6.028,6.028,0,0,1-.8.132c-.145.006-.281-.108-.452-.033-.248.108-.516.17-.767.273a.289.289,0,0,1-.411-.148c.14-.185.282-.371.455-.6a1.248,1.248,0,0,0-.14.041.146.146,0,0,1-.083.025l.1-.153a3.514,3.514,0,0,0,.412-.06c.039-.011.053-.1.094-.132.132-.093.273-.175.437-.278l.243.155c.083-.03.142-.072.172-.057a.589.589,0,0,0,.617-.057,4.644,4.644,0,0,1,1.429-.659,5.133,5.133,0,0,1,.7-.21,3.742,3.742,0,0,1,.848.058c.043.006.089.14.1.218.024.233.075-.1.094.132.007.087-.008-.14.017-.044l.541-.357c.012.067.021.112.032.17l.657-.249c-.076.223-.02.288.177.226.053-.016.126.027.2.045l-.135-.188a.512.512,0,0,1,.578-.188,1.429,1.429,0,0,0,.484.046,1.861,1.861,0,0,1,.99.36,1.632,1.632,0,0,0,.292.065.212.212,0,0,1,.139.13l1.049.153c-.011-.061-.02-.114-.032-.18l.186.051-.267-.341.051-.057.452.492.068-.057-.25-.319.165-.079-.543-.69.055-.046.518.556.035-.022-.182-.326c.36.172.348.737.887.731a1.665,1.665,0,0,1-.292-.261,1.564,1.564,0,0,1-.134-.342" transform="translate(-2.447 -10.158)" fill="#002516"/>
    <path id="Path_51" data-name="Path 51" d="M23.449,44a2.254,2.254,0,0,1,.157.26,1.983,1.983,0,0,1,.124.37c.011.054-.028.121-.044.181a.6.6,0,0,1-.139-.105c-.061-.08-.1-.179-.159-.255-.158-.186-.162-.2.061-.452" transform="translate(-4.163 -7.87)" fill="#002516"/>
    <path id="Path_52" data-name="Path 52" d="M32.838,54.465a.817.817,0,0,1-.278.05c-.077-.013-.209-.116-.2-.149a1.325,1.325,0,0,1,.17-.315.846.846,0,0,1,.206.146,1,1,0,0,1,.1.268" transform="translate(-5.788 -9.667)" fill="#002516"/>
    <path id="Path_53" data-name="Path 53" d="M33.566,54.25c.039.114.08.227.126.362-.03.021-.086.064-.145.1s-.126.074-.189.111c-.02-.1-.085-.224-.049-.3.049-.107.172-.18.264-.268l-.007-.006" transform="translate(-5.955 -9.703)" fill="#002516"/>
    <path id="Path_54" data-name="Path 54" d="M24.506,50.182l.3.833-.084.031a2.013,2.013,0,0,1-.3-.832l.087-.032" transform="translate(-4.367 -8.975)" fill="#002516"/>
    <path id="Path_55" data-name="Path 55" d="M34.62,52.06l.143-.22.076.049-.236.455-.085-.007-.081-.258.183-.02" transform="translate(-6.159 -9.272)" fill="#002516"/>
    <path id="Path_56" data-name="Path 56" d="M28.069,59.309c.065.172.354.1.343.379-.117.008-.292-.108-.266.15-.148-.158-.148-.158.017-.268l-.149-.2.055-.061" transform="translate(-5.01 -10.608)" fill="#002516"/>
    <path id="Path_57" data-name="Path 57" d="M33.467,41.113c.1.136.332.1.395.309.008.025.118.019.223.033l-.279.113-.434-.365.094-.09" transform="translate(-5.969 -7.353)" fill="#002516"/>
    <path id="Path_58" data-name="Path 58" d="M35.236,52.811c.052-.082.085-.128.112-.177s.052-.1.076-.157c.038.049.105.1.1.147a.286.286,0,0,1-.1.182c-.033.027-.108,0-.2,0" transform="translate(-6.302 -9.386)" fill="#002516"/>
    <path id="Path_59" data-name="Path 59" d="M6.634,56.249l.18-.512.028,0v.513l-.213-.012Z" transform="translate(-1.185 -9.969)" fill="#002516"/>
    <path id="Path_60" data-name="Path 60" d="M32.31,55.763l-.4-.113.193-.206.226.269c-.007.016-.016.033-.023.05" transform="translate(-5.708 -9.916)" fill="#002516"/>
    <path id="Path_61" data-name="Path 61" d="M33.435,52.839c-.051-.113-.1-.171-.09-.216s.074-.1.115-.154c.034.048.1.1.1.145s-.056.112-.122.226" transform="translate(-5.964 -9.384)" fill="#002516"/>
    <path id="Path_62" data-name="Path 62" d="M34.554,53.168c-.239.044-.08.214-.12.324-.2-.185-.029-.358.008-.567l.112.243" transform="translate(-6.142 -9.466)" fill="#002516"/>
    <path id="Path_63" data-name="Path 63" d="M24.288,57.332l.473.172-.052.119-.447-.232Z" transform="translate(-4.34 -10.254)" fill="#002516"/>
    <path id="Path_64" data-name="Path 64" d="M24.5,56.842c.072-.034.179-.118.212-.094a1.021,1.021,0,0,1,.195.253l-.406-.158" transform="translate(-4.382 -10.149)" fill="#002516"/>
    <path id="Path_65" data-name="Path 65" d="M32.285,56.231c.145-.036.145-.036.371.223-.094.027-.094.027-.371-.223" transform="translate(-5.774 -10.054)" fill="#002516"/>
    <path id="Path_66" data-name="Path 66" d="M15.377,45.306a.965.965,0,0,0,.433-.116,6.167,6.167,0,0,1,.766-.411l.064.089a2.961,2.961,0,0,1-.238.238c-.2.162-.406.319-.616.467a.237.237,0,0,1-.2,0,.548.548,0,0,1-.554.286c-.057-.009-.131.081-.2.129-.015.011-.019.046-.032.048a6.332,6.332,0,0,1-1.551.39c-.476-.026-.951-.082-1.426-.125-.059-.006-.117-.008-.172-.012-.031-.254.384.075.254-.278a1.617,1.617,0,0,0,1.1.109,6.651,6.651,0,0,0,1.155-.263c.379-.16.724-.373,1.086-.558.033-.016.084,0,.127.01-.1.085-.2.168-.293.252.007.012.012.025.019.036l.365-.157-.1-.137" transform="translate(-2.085 -8.009)" fill="#002516"/>
    <path id="Path_67" data-name="Path 67" d="M12.046,48.286h1.677l0,.023a.04.04,0,0,1-.014,0l-1.628,0s-.007-.007-.037-.031" transform="translate(-2.154 -8.636)" fill="#002516"/>
    <path id="Path_68" data-name="Path 68" d="M18.152,45.488l-.091.284c-.149-.255-.149-.255.1-.279l-.006,0" transform="translate(-3.212 -8.136)" fill="#002516"/>
    <path id="Path_69" data-name="Path 69" d="M24.411,65.812c-.017-.039-.058-.09-.046-.114.025-.052.079.29.121.247.031.04.091-.3.09-.257a.518.518,0,0,1-.078.174l-.086-.05" transform="translate(-4.357 -11.748)" fill="#002516"/>
    <path id="Path_70" data-name="Path 70" d="M15.454,45.137c-.108-.071-.194-.086-.291.039-.039.049-.162.033-.246.047l.452-.257.085.172" transform="translate(-2.668 -8.042)" fill="#002516"/>
    <path id="Path_71" data-name="Path 71" d="M12.975,15.636c-.077.154-.149.311-.235.46-.019.032-.089.034-.135.05,0-.059-.028-.138,0-.173.1-.125.22-.235.332-.351l.039.014" transform="translate(-2.252 -2.794)" fill="#002516"/>
    <path id="Path_72" data-name="Path 72" d="M21.65,41.209c0,22.76-.2,41.209-.451,41.209s-.451-18.45-.451-41.209S20.95,0,21.2,0s.451,18.45.451,41.209" transform="translate(-3.711 0)" fill="#002516"/>
    <path id="Path_73" data-name="Path 73" d="M56.745,41.027l-.388-.108a.491.491,0,0,0,.312-.627c-.064-.277-.073-.566-.131-.845-.143-.679-.3-1.356-.453-2.032-.1,0-.143,0-.189,0s-.1-.01-.169-.017c.338-.393.338-.4.057-.782l-.749.439a2.408,2.408,0,0,1,.517-.641.517.517,0,0,0,.174-.586c-.233-.84-.668-2.624-.9-3.465-.466.134.086.971-.4.971-.293,0-1.7.044-1.98,0-.324-.019-.062-.746-.365-.818-.12.445-.52,1.681-.64,2.127a.591.591,0,0,0,.1.537c.161.221.3.459.446.69l-.069.059-.589-.288c-.143.5-.282.987-.417,1.471a44.866,44.866,0,0,0-1.494,8.563.891.891,0,0,0,.371.979l-.267.05.544.662-.689-.27c-.012.174-.03.3-.028.425.023,1.237,0,2.478.09,3.71.107,1.406.323,2.8.491,4.2a.7.7,0,0,0,.376.561c.34.2.663.42.993.632l-.036.084-1.039-.223c-.012.061-.03.1-.021.119a7.8,7.8,0,0,0,1.426,2.4.573.573,0,0,1,.149.637A3.959,3.959,0,0,1,50.4,61.815c.382.509.782.983,1.112,1.5a9.529,9.529,0,0,1,.844,1.595,16.6,16.6,0,0,1,.492,1.766c.232-.08.154-.266.155-.4.007-1.048,0-2.1,0-3.143a.805.805,0,0,0-.151-.624.255.255,0,0,1,.086-.406.473.473,0,0,1,.383.009c.154.085.163.249.076.417a1.023,1.023,0,0,0-.152.426c-.012,1.159-.008,2.318,0,3.477a1.533,1.533,0,0,0,.084.309c.282-.286.169-.611.262-.874.1-.3.169-.612.279-.908a6.985,6.985,0,0,1,.375-.821c.148-.281.312-.553.486-.818s.346-.494.529-.734.395-.491.607-.753a3.837,3.837,0,0,1-1.393-2.261,4.7,4.7,0,0,0,1.487-2.445l-.719.424a2.132,2.132,0,0,1,.175-.3,3.7,3.7,0,0,0,.76-1.871c.038-.3.076-.6.1-.9.187-2.051.4-4.1.55-6.155a46.433,46.433,0,0,0,0-6.467c-.019-.282-.057-.562-.085-.83" transform="translate(-8.826 -5.788)" fill="#002516"/>
    <path id="Path_74" data-name="Path 74" d="M55.38,73.789a4.347,4.347,0,0,1,.644-.381c1.173-.452,2.351-.9,3.535-1.319a3.058,3.058,0,0,1,.9-.17c.691-.028.925.185,1.027.861.007.051,0,.1.007.154.082.5.309.666.8.519a6.577,6.577,0,0,0,.77-.348,5.525,5.525,0,0,1,.849-.357,1.424,1.424,0,0,1,1.439.314,3.075,3.075,0,0,0,2.336.792c2.879-.016,35.083-.043,37.96,0,3.313.054,6.626.169,9.937.287a20.848,20.848,0,0,1,3.143.37c-1.043.016-2.086.035-3.129.049q-6.09.08-12.178.16c-2.312.033-33.949.082-36.261.122a2.691,2.691,0,0,1-2.279-.9.815.815,0,0,0-.966-.265c-.391.127-.777.269-1.17.387a3.3,3.3,0,0,1-.749.159A1.018,1.018,0,0,1,60.81,73.2c-.02-.2-.027-.4-.048-.691-.345.067-.637.108-.921.182-1.216.321-2.427.659-3.645.975a6.237,6.237,0,0,1-.834.1Z" transform="translate(-9.902 -12.863)" fill="#002516"/>
    <path id="Path_75" data-name="Path 75" d="M75.894,48.329H62.539V44.392H75.894ZM62.539,51.985H73.606v3.937H62.539Zm0,8.184H75.808v3.937H62.539Zm5.634-17.352,6.205-2.84L71.09,37.671l-4.632,3.937Z" transform="translate(-11.185 -6.738)" fill="#002516"/>
    <path id="Path_76" data-name="Path 76" d="M96.332,45.856v3.937H90.784V65.57h-4V49.793H81.2V45.856Z" transform="translate(-14.524 -8.201)" fill="#002516"/>
    <path id="Path_77" data-name="Path 77" d="M114.688,49.793H101.333V45.856h13.355Zm-13.355,3.656H112.4v3.937H101.333Zm0,8.184H114.6V65.57H101.333Z" transform="translate(-18.124 -8.202)" fill="#002516"/>
    <path id="Path_78" data-name="Path 78" d="M129.924,65.565l-3.746-7.9h-2v7.874h-4V45.822h7.55a5.979,5.979,0,0,1,6.006,5.934,5.87,5.87,0,0,1-3.518,5.371l3.975,8.437Zm-5.748-15.805v3.965h3.546a1.974,1.974,0,0,0,2-1.968,2,2,0,0,0-2-2Z" transform="translate(-21.493 -8.195)" fill="#002516"/>
    <path id="Path_79" data-name="Path 79" d="M47.662,17.428a2.674,2.674,0,0,1,.062-.319.159.159,0,0,1,.112-.08c.5-.076.99-.15,1.487-.215.111-.014.163-.047.169-.163a3.087,3.087,0,0,1,.06-.337l-1.716.231c0-.006-.016-.016-.015-.023.071-.344.071-.343.435-.395.417-.059.833-.124,1.25-.179a.174.174,0,0,0,.176-.164c.015-.1.037-.2.062-.336l-1.759.236a1.1,1.1,0,0,1,.044-.255.228.228,0,0,1,.136-.129c.507-.082,1.014-.158,1.522-.222.126-.016.181-.058.193-.182a2.873,2.873,0,0,1,.067-.316l-1.794.241a1.382,1.382,0,0,1,.045-.31c.017-.045.1-.081.163-.09.49-.075.98-.153,1.473-.2.169-.017.227-.081.242-.232a2.779,2.779,0,0,1,.057-.273l-1.82.244a2,2,0,0,1,.054-.316c.012-.039.082-.075.13-.082q.794-.112,1.592-.214c.1-.012.154-.041.165-.15a3.289,3.289,0,0,1,.077-.349l-1.853.247c.021-.126.042-.248.064-.384l1.283-.181.2-.028c.408-.055.408-.056.475-.516l-1.852.241c-.01-.023-.015-.028-.014-.032.076-.4,0-.347.385-.4q.739-.092,1.475-.2a.182.182,0,0,0,.122-.1,3.947,3.947,0,0,0,.092-.388l-1.912.249a2.2,2.2,0,0,1,.066-.32A.178.178,0,0,1,49,10.959c.542-.074,1.084-.149,1.628-.208.136-.016.209-.048.217-.195a2.333,2.333,0,0,1,.057-.3l-1.929.243a2.382,2.382,0,0,1,.067-.329c.012-.035.086-.063.135-.07.485-.07.971-.149,1.458-.2.682-.063,1.365-.109,2.048-.147a6.765,6.765,0,0,1,3.04.613c.5.213.977.488,1.462.738a.236.236,0,0,0,.332-.05.244.244,0,0,0-.094-.339A9.352,9.352,0,0,0,55.531,9.8a7.841,7.841,0,0,0-3.6-.468c-.873.084-1.745.187-2.617.281-.022,0-.044,0-.088,0a3.106,3.106,0,0,1,.816-1.026.687.687,0,0,0,.082.1c.117.1.255.063.328-.094a1.14,1.14,0,0,1,.733-.706l.084-.021c-.083.148-.157.273-.225.4s-.1.24.052.325c.118.07.188.021.292-.14a5.656,5.656,0,0,1,.524-.731,1.229,1.229,0,0,1,.418-.2l.016.044c-.123.21-.251.418-.369.631-.091.165-.069.273.054.337s.2.006.287-.157a2.234,2.234,0,0,1,.6-.8,1.847,1.847,0,0,1,.365-.166l.014.044c-.133.227-.271.453-.4.686-.086.156-.061.26.064.316.15.068.209-.034.277-.145q.19-.313.4-.615a.444.444,0,0,1,.571-.212c-.1.17-.214.347-.32.526-.035.058-.061.122-.091.184a.177.177,0,0,0,.084.259c.112.061.2.011.257-.09.118-.195.231-.393.354-.584s.3-.336.556-.182c-.094.168-.2.347-.295.531-.086.165-.062.278.066.331.152.062.212-.043.277-.152.113-.191.23-.379.359-.559a.193.193,0,0,1,.169-.05,8.342,8.342,0,0,1,2.817,1.349,4.1,4.1,0,0,1,1.239,1.394,2.925,2.925,0,0,1,.246,2.173c-.2-.155-.393-.3-.587-.45q-.447-.331-.9-.654a.226.226,0,1,0-.252.373c.457.342.917.678,1.366,1.031.328.257.285.164.2.576-.294-.224-.581-.446-.872-.663-.205-.154-.411-.306-.622-.452-.144-.1-.261-.083-.342.036a.235.235,0,0,0,.082.338c.478.361.959.717,1.432,1.084.254.2.247.206.146.541-.223-.172-.442-.344-.666-.51-.279-.208-.561-.411-.844-.613a.226.226,0,0,0-.345.025c-.086.118-.05.239.091.346.511.385,1.015.777,1.53,1.155a.251.251,0,0,1,.1.318c-.014.044-.022.089-.036.15-.18-.138-.353-.273-.528-.4-.328-.248-.654-.5-.985-.74-.143-.106-.29-.091-.36.02a.265.265,0,0,0,.107.364q.8.6,1.588,1.218a.205.205,0,0,1,.058.155,2.492,2.492,0,0,1-.052.324c-.284-.227-.548-.442-.815-.65-.243-.19-.487-.377-.736-.559a.229.229,0,0,0-.356.045c-.071.115-.029.232.1.334.5.388.993.783,1.5,1.169a.332.332,0,0,1,.124.474c-.2-.153-.406-.305-.608-.457-.315-.236-.63-.472-.947-.7a.262.262,0,0,0-.356.033c-.084.112-.048.246.094.351.461.345.91.708,1.387,1.027.3.2.4.413.226.738-.217-.174-.44-.356-.667-.534-.282-.223-.565-.445-.851-.663-.145-.111-.273-.1-.36.01s-.055.24.085.35l1.718,1.355c-.03.149-.055.282-.087.443-.064-.048-.112-.082-.158-.12l-1.282-1.082a1.344,1.344,0,0,0-.108-.084.226.226,0,0,0-.332.036.23.23,0,0,0,.062.33q.748.626,1.494,1.255c.009.007.017.015.026.022.214.2.218.216.1.512-.315-.272-.627-.545-.943-.814-.186-.159-.377-.315-.57-.466a.237.237,0,0,0-.351.007.262.262,0,0,0,.082.372q.817.69,1.624,1.389a.2.2,0,0,1,.048.163,3.432,3.432,0,0,1-.1.365c-.256-.232-.5-.458-.744-.674s-.506-.426-.764-.634a.217.217,0,0,0-.342.027c-.088.128-.046.228.066.325.489.427.973.861,1.462,1.288a.235.235,0,0,1,.063.333,3.1,3.1,0,0,1-2.045,1.66l-.172.048c0,.567,0,1.126,0,1.685a1.408,1.408,0,0,1-1.66,1.45.788.788,0,0,1-.626-.574,5.362,5.362,0,0,1-.182-.934c-.056-.464-.084-.93-.113-1.272,0,.17-.009.463,0,.756.013.37.027.742.067,1.11a1.685,1.685,0,0,0,.412.925c-.115-.029-.233-.048-.344-.088a1.273,1.273,0,0,1-.792-1.176c-.021-.626-.073-1.251-.113-1.891H51.191c0,.137,0,.266,0,.4-.006.439-.006.879-.02,1.318a1.86,1.86,0,0,0,.4,1.393,1.281,1.281,0,0,1-.948-.748,1.529,1.529,0,0,1-.135-.575c-.016-.691-.01-1.382,0-2.073a.179.179,0,0,0-.146-.2,4.622,4.622,0,0,1-2.052-1.279,3.345,3.345,0,0,1-.861-2.667c.023-.231.082-.459.112-.69a.18.18,0,0,1,.175-.173c.377-.059.753-.127,1.132-.176a17.294,17.294,0,0,1,3.124-.172,5.571,5.571,0,0,1,3.062,1.094,2.579,2.579,0,0,1,.345.332c.1.108.21.152.329.06a.21.21,0,0,0,.029-.331,4.892,4.892,0,0,0-.7-.621,6.215,6.215,0,0,0-2.441-.931,8.718,8.718,0,0,0-2.169-.034c-.727.062-1.453.14-2.177.218-.186.021-.37.067-.583.106m2.288-.7c.477-.02.943-.037,1.408-.061a5.952,5.952,0,0,1,3.522.887,8.474,8.474,0,0,1,.724.538.223.223,0,0,0,.323,0,.206.206,0,0,0,0-.318,1.521,1.521,0,0,0-.122-.12A6.174,6.174,0,0,0,52.894,16.3a9,9,0,0,0-2.472-.052c-.413.03-.412.039-.472.475m.764-3.464c.4-.016.778-.023,1.151-.048a7.119,7.119,0,0,1,4.162,1.1c.131.079.253.175.38.262a.211.211,0,0,0,.307-.025.2.2,0,0,0-.015-.314,1.532,1.532,0,0,0-.244-.214c-.353-.195-.708-.387-1.071-.562A8.015,8.015,0,0,0,50.9,12.8a.136.136,0,0,0-.1.069c-.036.124-.057.253-.087.389m-.579,2.6c.467-.024.91-.048,1.353-.067a6.5,6.5,0,0,1,4.074,1.187c.1.068.183.155.281.223a.225.225,0,0,0,.306-.324A.526.526,0,0,0,56,16.74c-.438-.264-.861-.561-1.32-.779a7.007,7.007,0,0,0-3.616-.608c-.276.021-.553.035-.829.053-.035.162-.065.3-.1.456m.386-1.721c.26-.018.5-.042.747-.052a7.544,7.544,0,0,1,2.362.153,7.661,7.661,0,0,1,2.537,1.15c.158.116.282.122.374.012s.068-.255-.094-.36a11.763,11.763,0,0,0-1.021-.619,7.671,7.671,0,0,0-4.413-.776c-.418.045-.418.042-.492.493m.573-2.6c.348-.019.682-.034,1.017-.056a6.7,6.7,0,0,1,2.775.415,7.43,7.43,0,0,1,1.894.969.211.211,0,0,0,.319-.027.215.215,0,0,0-.034-.319,1.344,1.344,0,0,0-.2-.156,8.056,8.056,0,0,0-3.795-1.326,17.066,17.066,0,0,0-1.726.031.216.216,0,0,0-.164.1,2.2,2.2,0,0,0-.085.365m-.181.858h.14a17.446,17.446,0,0,1,2.082-.016A7.433,7.433,0,0,1,56.59,13.7a.221.221,0,0,0,.331-.025.218.218,0,0,0-.053-.328,3.794,3.794,0,0,0-.336-.236,8.027,8.027,0,0,0-2.2-.952,6.552,6.552,0,0,0-1.183-.242c-.572-.039-1.15-.011-1.725,0-.441.006-.441.012-.519.446a.237.237,0,0,0,.006.037m-.572,2.61c.163-.014.3-.028.434-.037s.285-.012.427-.025a6.861,6.861,0,0,1,3.686.667c.392.191.758.438,1.13.668.127.079.236.089.333-.027s.05-.233-.055-.327a2.136,2.136,0,0,0-.173-.139,7.753,7.753,0,0,0-2.881-1.2,10.276,10.276,0,0,0-2.694-.058c-.055,0-.131.08-.152.14a1.775,1.775,0,0,0-.054.341m.956-4.332c.256-.015.5-.021.744-.044a7.545,7.545,0,0,1,4.165.9c.269.135.522.3.779.46a.225.225,0,1,0,.262-.365.425.425,0,0,0-.082-.061c-.477-.252-.944-.523-1.434-.75a7.543,7.543,0,0,0-1.973-.585,8.868,8.868,0,0,0-2.013-.037c-.406.027-.406.022-.448.431,0,.011,0,.023,0,.052m4.4,11.705.026-.06a.223.223,0,0,0-.035-.033A8.509,8.509,0,0,1,54.1,21.141a2.149,2.149,0,0,1-.692-1.036c-.12-.474-.232-.95-.349-1.426-.013-.054-.032-.107-.054-.181-.027.044-.041.057-.044.072a3.842,3.842,0,0,0-.021,1.545,1.668,1.668,0,0,0,.274.648,3.8,3.8,0,0,0,1.241,1.005c.406.221.83.409,1.246.611m-3.686-3.834-.049.007a4.329,4.329,0,0,0-.057,1.422,1.633,1.633,0,0,0,.561,1.059,5.943,5.943,0,0,0,1.49.985c.25.117.506.217.759.325.007-.014.014-.028.021-.042-.045-.029-.093-.055-.136-.086-.489-.351-.991-.687-1.462-1.063a2.075,2.075,0,0,1-.756-1.13c-.075-.3-.145-.608-.219-.911-.048-.19-.1-.379-.149-.567m1.637,3.766.016-.032c-.025-.017-.05-.036-.077-.052a8.73,8.73,0,0,1-1.574-1.144,2.294,2.294,0,0,1-.723-1.175c-.085-.383-.2-.76-.3-1.14a1.641,1.641,0,0,0-.061-.16l-.069.008c-.014.357-.031.714-.04,1.071a1.737,1.737,0,0,0,.7,1.434,6.67,6.67,0,0,0,1.913,1.109l.214.081m-.989-.009.016-.033c-.034-.027-.067-.055-.1-.08-.489-.35-.989-.685-1.464-1.053a2.026,2.026,0,0,1-.723-.974c-.115-.362-.21-.732-.316-1.1-.037-.129-.078-.257-.117-.386a2.868,2.868,0,0,0-.1,1.244,1.556,1.556,0,0,0,.466.977,5.983,5.983,0,0,0,1.7,1.133c.21.1.429.18.645.269m-.967-.023.019-.041c-.037-.023-.075-.044-.11-.069-.5-.356-1.013-.7-1.494-1.077a1.919,1.919,0,0,1-.655-.862c-.14-.408-.252-.825-.377-1.239-.028-.093-.059-.185-.089-.278a2.618,2.618,0,0,0-.1,1.222,1.569,1.569,0,0,0,.523,1,6.163,6.163,0,0,0,1.618,1.068c.216.1.443.181.666.271m-1,0,.025-.049-.067-.048c-.494-.347-1-.678-1.474-1.051a3.268,3.268,0,0,1-.583-.663,3.5,3.5,0,0,1-.438-1.178c-.051-.18-.111-.357-.166-.535l-.058.007c-.025.173-.06.346-.073.52a1.809,1.809,0,0,0,.651,1.726,13.522,13.522,0,0,0,1.183.806,10.446,10.446,0,0,0,1,.465m4.332,1.338a.442.442,0,0,0-.595.062,1.21,1.21,0,0,0,0,1.641.466.466,0,0,0,.624.039.679.679,0,0,1-.733-.711c-.039-.471.106-1.025.7-1.031" transform="translate(-8.479 -1.324)" fill="#002516"/>
    <path id="Path_80" data-name="Path 80" d="M55.426,33.108V30.693H52.682V30.9c0,.634,0,1.568,0,2.2,0,.117,3.038-.039,2.743,0M54.2,32.7l.209-1.574h.023v1.567l.59.31-1.873-.062,0-.012Z" transform="translate(-9.422 -5.49)" fill="#002516"/>
    <path id="Path_81" data-name="Path 81" d="M53.7,29.838c-.272,0-.494.007-.714,0a.364.364,0,0,1-.192-.1.926.926,0,0,1-.337-.67c-.02-.71-.007-1.421-.007-2.142h.608c.01.256.022.516.03.774.012.393,0,.787.039,1.178a1.224,1.224,0,0,0,.572.959" transform="translate(-9.38 -4.816)" fill="#002516"/>
    <path id="Path_82" data-name="Path 82" d="M85.736,82.429c.016-.046.04-.139.076-.278a2.391,2.391,0,0,0,.064-.453,1.545,1.545,0,0,0-.047-.465.493.493,0,0,0-.255-.325h.581a2.88,2.88,0,0,1,.854.11,1.706,1.706,0,0,1,.575.291,1.22,1.22,0,0,1,.337.424,1.711,1.711,0,0,1,.151.5,3.363,3.363,0,0,1,.36-.57,2.427,2.427,0,0,1,.476-.464,2.216,2.216,0,0,1,.6-.314,2.13,2.13,0,0,1,.714-.117,1.3,1.3,0,0,1,.948.337,1.9,1.9,0,0,1,.488.848,3.659,3.659,0,0,1,.128,1.11,7.459,7.459,0,0,1-.111,1.109,7.019,7.019,0,0,1-.389,1.237,5.63,5.63,0,0,1-.7,1.237,3.745,3.745,0,0,1-1.011.941,2.27,2.27,0,0,1-1.319.349,1.281,1.281,0,0,1-.941-.366,1.5,1.5,0,0,1-.383-.807l-.755,2.5c-.016.048-.04.14-.075.279a2.267,2.267,0,0,0-.064.453,1.5,1.5,0,0,0,.047.465.493.493,0,0,0,.255.325h-.581a2.359,2.359,0,0,1-1.226-.261,1.408,1.408,0,0,1-.586-.645,1.745,1.745,0,0,1-.133-.813,3.51,3.51,0,0,1,.133-.778Zm2.219,1.011-.86,2.812a.681.681,0,0,0,.076.43.28.28,0,0,0,.25.145.507.507,0,0,0,.32-.174,1.322,1.322,0,0,0,.284-.541l1.115-3.5a1.127,1.127,0,0,0,.064-.576c-.035-.127-.1-.2-.2-.2a.52.52,0,0,0-.343.145,1.555,1.555,0,0,0-.371.47,2.124,2.124,0,0,0-.14.332q-.07.2-.117.378l-.07.244Z" transform="translate(-14.99 -14.446)" fill="#002516"/>
    <path id="Path_83" data-name="Path 83" d="M98.32,80.711a3.161,3.161,0,0,1,1.562.366,1.979,1.979,0,0,1,.808.888,2.757,2.757,0,0,1,.221,1.232,6,6,0,0,1-.209,1.371,5.293,5.293,0,0,1-.61,1.44,4.435,4.435,0,0,1-.958,1.11,3.934,3.934,0,0,1-1.278.7,4.422,4.422,0,0,1-1.58.2,3.133,3.133,0,0,1-1.511-.4,2.122,2.122,0,0,1-.83-.918,2.828,2.828,0,0,1-.245-1.278,5.459,5.459,0,0,1,.25-1.47,5.4,5.4,0,0,1,.6-1.325,4.149,4.149,0,0,1,.924-1.034,3.955,3.955,0,0,1,1.248-.662,4.927,4.927,0,0,1,1.6-.222m-2.184,6.158a1.449,1.449,0,0,0-.093.523.585.585,0,0,0,.087.314.229.229,0,0,0,.209.1.44.44,0,0,0,.273-.133,1.444,1.444,0,0,0,.291-.546l1.707-5.379a1.4,1.4,0,0,0,.081-.465.459.459,0,0,0-.145-.3.252.252,0,0,0-.25-.04.629.629,0,0,0-.284.244,1.793,1.793,0,0,0-.25.558Z" transform="translate(-16.757 -14.435)" fill="#002516"/>
    <path id="Path_84" data-name="Path 84" d="M108.993,85.638a2.506,2.506,0,0,0-.128.627c0,.131.043.205.128.221a.919.919,0,0,0,.25-.018,1.529,1.529,0,0,0,.418-.145,2.764,2.764,0,0,0,.505-.331,2.319,2.319,0,0,0,.5-.587,2.15,2.15,0,0,1-.459.953,2.533,2.533,0,0,1-.7.563,2.5,2.5,0,0,1-.761.268,3.9,3.9,0,0,1-.633.064,1.537,1.537,0,0,1-1.132-.372,1.5,1.5,0,0,1-.436-1.046,3.371,3.371,0,0,1-.342.581,2.547,2.547,0,0,1-.465.488,2.14,2.14,0,0,1-.581.331,1.956,1.956,0,0,1-.7.122,1.29,1.29,0,0,1-.953-.337,1.92,1.92,0,0,1-.482-.848,3.628,3.628,0,0,1-.127-1.109,7.26,7.26,0,0,1,.11-1.11,6.978,6.978,0,0,1,.389-1.237,5.577,5.577,0,0,1,.7-1.237,3.746,3.746,0,0,1,1.011-.941,2.268,2.268,0,0,1,1.318-.349,1.459,1.459,0,0,1,.53.111,1.234,1.234,0,0,1,.383.255,1.355,1.355,0,0,1,.255.354,1.747,1.747,0,0,1,.146.419l.72-2.405c.015-.046.04-.14.075-.279a2.251,2.251,0,0,0,.064-.452,1.492,1.492,0,0,0-.047-.465.494.494,0,0,0-.255-.326h.581a2.358,2.358,0,0,1,1.226.262,1.411,1.411,0,0,1,.586.645,1.748,1.748,0,0,1,.133.814,3.494,3.494,0,0,1-.133.778Zm-2.615.034a1.792,1.792,0,0,0,.169-.406c.035-.131.059-.217.075-.255.016-.054.03-.107.047-.157s.031-.106.046-.168l.884-2.94a.692.692,0,0,0-.105-.418.269.269,0,0,0-.255-.122.538.538,0,0,0-.319.209,1.451,1.451,0,0,0-.273.6l-1.035,3.242a1.261,1.261,0,0,0-.081.616.375.375,0,0,0,.174.291.334.334,0,0,0,.314-.058,1.165,1.165,0,0,0,.36-.43" transform="translate(-18.401 -13.843)" fill="#002516"/>
    <path id="Path_85" data-name="Path 85" d="M118.042,82.909q-.1.244-.215.5a3.969,3.969,0,0,0-.18.5,1.833,1.833,0,0,0-.076.465.713.713,0,0,0,.1.395c-.093,0-.186,0-.278-.011a2.183,2.183,0,0,1-.325-.058,1.258,1.258,0,0,1-.657-.325.841.841,0,0,1-.227-.517,1.628,1.628,0,0,1,.1-.662,6.216,6.216,0,0,1,.337-.774c.054-.116.105-.234.152-.354s.089-.242.127-.366q-.314-.127-.773.343a6.049,6.049,0,0,0-.947,1.412,6.442,6.442,0,0,0-.645,1.812,2.135,2.135,0,0,0,.191,1.44,1.061,1.061,0,0,0,.744.465,2.434,2.434,0,0,0,1.162-.081,3.949,3.949,0,0,0,1.289-.686,4.387,4.387,0,0,0,1.127-1.336,5.751,5.751,0,0,1-.959,1.586,4.273,4.273,0,0,1-1.068.889,3.3,3.3,0,0,1-1.063.389,4.89,4.89,0,0,1-.93.076,3.951,3.951,0,0,1-1.6-.355,2.416,2.416,0,0,1-1.005-.86,2.536,2.536,0,0,1-.383-1.278,4.3,4.3,0,0,1,.267-1.609,5.492,5.492,0,0,1,.558-1.186,5.038,5.038,0,0,1,.79-.981,3.929,3.929,0,0,1,.958-.686,2.592,2.592,0,0,1,1.063-.285,2.324,2.324,0,0,1,1.324.36v.011a1.127,1.127,0,0,0,.018-.25,1.728,1.728,0,0,0-.029-.238l.209.064.3.1a1.386,1.386,0,0,1,.592.4,1.038,1.038,0,0,1,.221.517,1.41,1.41,0,0,1-.053.581,3.771,3.771,0,0,1-.226.593" transform="translate(-20.039 -14.425)" fill="#002516"/>
    <path id="Path_86" data-name="Path 86" d="M125.172,87.86a1.537,1.537,0,0,1-1.132-.372,1.491,1.491,0,0,1-.436-1.046,3.376,3.376,0,0,1-.343.581,2.543,2.543,0,0,1-.464.488,2.151,2.151,0,0,1-.581.331,1.935,1.935,0,0,1-.7.122,1.289,1.289,0,0,1-.953-.337,1.912,1.912,0,0,1-.482-.848,3.653,3.653,0,0,1-.128-1.109,7.474,7.474,0,0,1,.11-1.11,7.027,7.027,0,0,1,.39-1.237,5.594,5.594,0,0,1,.7-1.237,3.749,3.749,0,0,1,1.012-.941,2.268,2.268,0,0,1,1.318-.349,1.413,1.413,0,0,1,.54.117,1.242,1.242,0,0,1,.383.267,1.375,1.375,0,0,1,.255.372,1.587,1.587,0,0,1,.134.429c.016-.1.027-.2.035-.314a1.409,1.409,0,0,0-.012-.308.783.783,0,0,0-.094-.267.5.5,0,0,0-.2-.192h.581a2.356,2.356,0,0,1,1.226.262,1.411,1.411,0,0,1,.586.645,1.747,1.747,0,0,1,.134.814,3.557,3.557,0,0,1-.134.778l-.86,2.846a2.505,2.505,0,0,0-.128.627c0,.131.043.205.128.221a.846.846,0,0,0,.245-.018,1.558,1.558,0,0,0,.412-.145,2.764,2.764,0,0,0,.511-.337A2.541,2.541,0,0,0,127.74,86a2.357,2.357,0,0,1-.488.958,2.476,2.476,0,0,1-.7.563,2.684,2.684,0,0,1-.75.268,3.472,3.472,0,0,1-.627.07m-1.487-2.243c.016-.054.031-.107.047-.157s.03-.106.046-.168l.86-2.719a.967.967,0,0,0-.034-.552.315.315,0,0,0-.255-.215.45.45,0,0,0-.343.181,1.485,1.485,0,0,0-.3.633l-1.034,3.241a1.251,1.251,0,0,0-.081.616.371.371,0,0,0,.174.291.332.332,0,0,0,.314-.058,1.158,1.158,0,0,0,.36-.43,1.761,1.761,0,0,0,.168-.406c.035-.132.06-.218.076-.256" transform="translate(-21.453 -14.45)" fill="#002516"/>
    <path id="Path_87" data-name="Path 87" d="M129.333,85.874a14.9,14.9,0,0,0,1.028-1.54q.517-.877.924-1.714a2.773,2.773,0,0,1,.4-.8,4.111,4.111,0,0,1,.912-.9h2.625a4.8,4.8,0,0,0-.609.535,3.474,3.474,0,0,0-.546.726,2.488,2.488,0,0,0-.3.861,1.568,1.568,0,0,0,.151.924,5.626,5.626,0,0,1,.307.766,2.789,2.789,0,0,1,.122.848,2.363,2.363,0,0,1-.238,1.069,2.3,2.3,0,0,1-.673.807,3.05,3.05,0,0,1-1.046.5,4.336,4.336,0,0,1-1.353.133,2.53,2.53,0,0,1-.953-.232,1.8,1.8,0,0,1-.714-.563,1.365,1.365,0,0,1-.256-.854,1.982,1.982,0,0,1,.425-1.092,1.554,1.554,0,0,0,.064.552,1,1,0,0,0,.2.366.711.711,0,0,0,.3.2.959.959,0,0,0,.372.047.742.742,0,0,0,.523-.244,1.563,1.563,0,0,0,.337-.569,2.321,2.321,0,0,0,.122-.721,1.984,1.984,0,0,0-.1-.685,2.535,2.535,0,0,1-.116-.4,1.669,1.669,0,0,1-.035-.517q-.406.686-.813,1.376a12.027,12.027,0,0,1-.918,1.343,1.145,1.145,0,0,0-.076-.111,1.038,1.038,0,0,1-.076-.11" transform="translate(-23.093 -14.474)" fill="#002516"/>
    <path id="Path_88" data-name="Path 88" d="M138.508,86.265c0,.132.043.205.128.221a.783.783,0,0,0,.244-.023,1.672,1.672,0,0,0,.412-.157,3.008,3.008,0,0,0,.512-.343,2.562,2.562,0,0,0,.517-.592,2.243,2.243,0,0,1-.46.964,2.42,2.42,0,0,1-.7.576,2.638,2.638,0,0,1-.76.273,3.618,3.618,0,0,1-.645.07,1.461,1.461,0,0,1-1.388-.72,2.4,2.4,0,0,1-.007-1.848l1.5-5.007q-.28-.058-.517-.087a1.317,1.317,0,0,0-.366-.006.889.889,0,0,0,.035-.14,1.137,1.137,0,0,1,.058-.2,1.1,1.1,0,0,1,.452-.622,1.308,1.308,0,0,1,.686-.181,2.2,2.2,0,0,0,.029-.3,1.261,1.261,0,0,0-.023-.3.883.883,0,0,0-.093-.262.466.466,0,0,0-.192-.186h.581a2.693,2.693,0,0,1,.958.145,1.608,1.608,0,0,1,.6.377,1.3,1.3,0,0,1,.308.523,2.047,2.047,0,0,1,.087.593,1.883,1.883,0,0,0,.871.046.94.94,0,0,1-.047.2.875.875,0,0,0-.046.157,1.3,1.3,0,0,1-.448.691.917.917,0,0,1-.587.157l-1.568,5.344a2.506,2.506,0,0,0-.128.627" transform="translate(-24.356 -13.843)" fill="#002516"/>
    <path id="Path_89" data-name="Path 89" d="M129.309,74.669s7.56.613,9.422,2.766l-1.016.426-.838-.5s.115-1.631-8.156-2.3Z" transform="translate(-23.022 -13.355)" fill="#002516"/>
  </g>
</svg>
